<svg width="148" height="148" viewBox="0 0 148 148" fill="none" xmlns="http://www.w3.org/2000/svg">
<rect width="148" height="148" fill="white"/>
<g clip-path="url(#clip0_5754_4873)">
<path d="M5.03711 84.3097V73.9152L18.9988 66.1289V71.3453L9.67821 76.5234V81.7015L5.03711 84.3097Z" fill="#583F99"/>
<path d="M32.9983 84.3493L23.6777 89.5273L9.67773 81.7027L14.3188 79.1328L23.6394 84.3109L28.2805 81.7027L32.9983 84.3493Z" fill="#00A88E"/>
<path d="M28.2802 66.1696L18.998 60.9531V66.1312L23.6391 68.7394V79.1339L28.2802 81.7038V66.1696Z" fill="#0072BC"/>
<mask id="mask0_5754_4873" style="mask-type:luminance" maskUnits="userSpaceOnUse" x="-7" y="42" width="162" height="64">
<path d="M154.664 42.2344H-6.24023V105.062H154.664V42.2344Z" fill="white"/>
</mask>
<g mask="url(#mask0_5754_4873)">
<path d="M28.1652 60.1451C28.5487 61.7177 27.8967 63.2136 26.6693 63.5204C25.4419 63.8273 24.1761 62.7917 23.7542 61.2574C23.3706 59.6848 24.0227 58.1889 25.2501 57.8821C26.4775 57.5752 27.7432 58.6108 28.1652 60.1451Z" fill="#0072BC"/>
<path d="M38.789 66.168H35.6055V80.705H38.789V66.168Z" fill="#583F99"/>
<path d="M41.5137 66.168H44.4671L51.2561 75.105V66.168H54.4013V80.705H51.6781L44.6589 71.4611V80.705H41.5137V66.168Z" fill="#583F99"/>
<path d="M57.1621 66.168H68.2087V69.0447H60.3457V72.1515H67.2881V75.0666H60.3457V80.705H57.1621V66.168Z" fill="#583F99"/>
<path d="M69.3223 73.4546C69.3223 69.2738 72.5825 65.8984 77.0702 65.8984C81.5579 65.8984 84.7798 69.2354 84.7798 73.3779C84.7798 77.5587 81.5195 80.9341 77.0319 80.9341C72.5442 80.9341 69.3223 77.5971 69.3223 73.4546ZM81.4428 73.4546C81.4428 70.9231 79.6017 68.8519 77.0319 68.8519C74.462 68.8519 72.6593 70.8847 72.6593 73.3779C72.6593 75.9094 74.5003 77.9806 77.0702 77.9806C79.6401 77.9806 81.4428 75.9478 81.4428 73.4546Z" fill="#583F99"/>
<path d="M86.8887 66.168H92.8339C96.2859 66.168 98.3955 68.2008 98.3955 71.1926C98.3955 74.6063 95.7873 76.3324 92.527 76.3324H90.1106V80.705H86.927V66.168H86.8887ZM92.6037 73.494C94.2147 73.494 95.1352 72.5351 95.1352 71.3077C95.1352 69.8502 94.138 69.083 92.527 69.083H90.0722V73.5324H92.6037V73.494Z" fill="#583F99"/>
<path d="M104.109 66.0508H107.063L113.277 80.7028H109.94L108.597 77.4426H102.46L101.118 80.7028H97.8574L104.071 66.0508H104.109ZM107.485 74.6042L105.567 69.8864L103.649 74.6042H107.523H107.485Z" fill="#583F99"/>
<path d="M115.311 66.168H121.946C123.787 66.168 125.206 66.6666 126.165 67.6255C127.009 68.4693 127.393 69.5433 127.393 70.9625C127.393 73.3406 126.127 74.8365 124.286 75.5269L127.853 80.705H124.132L121.026 76.0639H118.532V80.705H115.349V66.168H115.311ZM121.754 73.2255C123.327 73.2255 124.209 72.42 124.209 71.1543C124.209 69.7351 123.289 69.0447 121.716 69.0447H118.532V73.2255H121.754Z" fill="#583F99"/>
<path d="M129.885 66.168H133.107V72.4967L138.937 66.168H142.888L136.942 72.305L143.118 80.705H139.282L134.756 74.4913L133.107 76.2556V80.705H129.885V66.168Z" fill="#583F99"/>
<path d="M36.2192 83.8125H35.6055V87.2262H36.2192V83.8125Z" fill="#0072BC"/>
<path d="M37.7168 83.8125H38.2921L40.1332 86.1906V83.8125H40.7086V87.2262H40.2099L38.3305 84.8098V87.2262H37.7168V83.8125Z" fill="#0072BC"/>
<path d="M41.9727 86.7269L42.3179 86.3049C42.6631 86.6118 42.9699 86.7652 43.3918 86.7652C43.8138 86.7652 44.0055 86.5734 44.0055 86.3433C44.0055 86.0748 43.8521 85.9597 43.2384 85.8063C42.5096 85.6529 42.0877 85.4228 42.0877 84.7707C42.0877 84.157 42.5864 83.7734 43.2768 83.7734C43.9672 83.7734 44.159 83.9269 44.5042 84.1954L44.1973 84.6556C43.8905 84.4255 43.5836 84.3104 43.2768 84.3104C42.9699 84.3104 42.7014 84.5022 42.7014 84.7323C42.7014 85.0008 42.8548 85.1159 43.5069 85.2693C44.2357 85.4611 44.6192 85.6912 44.6192 86.2666C44.6192 86.9186 44.1206 87.3022 43.3918 87.3022C42.6631 87.3022 42.3562 87.1104 41.9727 86.7652" fill="#0072BC"/>
<path d="M45.9231 83.8125H47.2656C48.0711 83.8125 48.5697 84.2728 48.5697 84.9632C48.5697 85.7303 47.956 86.1522 47.1889 86.1522H46.4985V87.2646H45.8848V83.8509L45.9231 83.8125ZM47.2272 85.5769C47.6875 85.5769 47.956 85.3084 47.956 84.9632C47.956 84.5413 47.6491 84.3495 47.2272 84.3495H46.5368V85.5769H47.2272Z" fill="#0072BC"/>
<path d="M50.4125 83.8125H49.7988V87.2262H50.4125V83.8125Z" fill="#0072BC"/>
<path d="M51.9075 83.8125H53.4417C53.8637 83.8125 54.2089 83.9276 54.439 84.1577C54.6308 84.3495 54.7075 84.618 54.7075 84.8865C54.7075 85.4618 54.3623 85.807 53.902 85.9221L54.8226 87.2262H54.0938L53.25 86.0372H52.4828V87.2262H51.8691V83.8125H51.9075ZM53.4034 85.5002C53.8253 85.5002 54.0938 85.27 54.0938 84.9248C54.0938 84.5413 53.8253 84.3495 53.365 84.3495H52.4828V85.5002H53.365H53.4034Z" fill="#0072BC"/>
<path d="M56.0508 83.8125H58.5823V84.3495H56.6645V85.2317H58.3905V85.7687H56.6645V86.6892H58.6206V87.2262H56.0508V83.8125Z" fill="#0072BC"/>
<path d="M63.875 85.5371C63.875 84.5399 64.6038 83.7344 65.6394 83.7344C66.675 83.7344 66.675 83.9645 66.9818 84.2714L66.5983 84.7316C66.3298 84.4631 66.0229 84.3097 65.6394 84.3097C64.9873 84.3097 64.5271 84.8467 64.5271 85.4988C64.5271 86.1892 64.9873 86.7262 65.6777 86.7262C66.3681 86.7262 66.3681 86.5727 66.675 86.2659L67.0586 86.6494C66.7134 87.033 66.2914 87.2631 65.6777 87.2631C64.6805 87.2631 63.9134 86.496 63.9134 85.4988" fill="#0072BC"/>
<path d="M68.0176 85.5371C68.0176 84.5782 68.7463 83.7344 69.8203 83.7344C70.8943 83.7344 71.6231 84.5399 71.6231 85.4988C71.6231 86.4577 70.8943 87.3015 69.8203 87.3015C68.7463 87.3015 68.0176 86.496 68.0176 85.5371ZM70.971 85.5371C70.971 84.8467 70.4724 84.3097 69.8203 84.3097C69.1683 84.3097 68.6696 84.8467 68.6696 85.4988C68.6696 86.1892 69.1683 86.7262 69.8203 86.7262C70.4724 86.7262 70.971 86.1892 70.971 85.5371Z" fill="#0072BC"/>
<path d="M72.9277 83.8125H73.5031V86.6892H75.3058V87.2262H72.9277V83.8125Z" fill="#0072BC"/>
<path d="M76.5332 83.8125H77.1469V86.6892H78.9496V87.2262H76.5332V83.8125Z" fill="#0072BC"/>
<path d="M81.365 83.7734H81.9404L83.4363 87.2255H82.7842L82.439 86.3817H80.828L80.4828 87.2255H79.8691L81.365 83.7734ZM82.2089 85.883L81.6335 84.5022L81.0582 85.883H82.2472H82.2089Z" fill="#0072BC"/>
<path d="M84.625 83.8125H86.1592C86.5428 83.8125 86.8497 83.9276 87.0414 84.1193C87.1949 84.2728 87.2716 84.4646 87.2716 84.6947C87.2716 85.1166 87.0414 85.3467 86.7729 85.4618C87.1949 85.6152 87.4634 85.807 87.4634 86.3057C87.4634 86.9193 86.9647 87.2646 86.1976 87.2646H84.625V83.8509V83.8125ZM86.6579 84.7714C86.6579 84.5029 86.4661 84.3495 86.0442 84.3495H85.162V85.27H85.9675C86.351 85.27 86.6195 85.1166 86.6195 84.8098L86.6579 84.7714ZM86.8497 86.2289C86.8497 85.9221 86.6195 85.7687 86.1592 85.7687H85.2003V86.7276H86.1976C86.6195 86.7276 86.8497 86.5741 86.8497 86.2673V86.2289Z" fill="#0072BC"/>
<path d="M88.5762 85.5371C88.5762 84.5782 89.3049 83.7344 90.3789 83.7344C91.4529 83.7344 92.1816 84.5399 92.1816 85.4988C92.1816 86.4577 91.4529 87.3015 90.3789 87.3015C89.3049 87.3015 88.5762 86.496 88.5762 85.5371ZM91.5296 85.5371C91.5296 84.8467 91.031 84.3097 90.3789 84.3097C89.7269 84.3097 89.2282 84.8467 89.2282 85.4988C89.2282 86.1892 89.7269 86.7262 90.3789 86.7262C91.031 86.7262 91.5296 86.1892 91.5296 85.5371Z" fill="#0072BC"/>
<path d="M93.4856 83.8125H95.0199C95.4418 83.8125 95.787 83.9276 96.0171 84.1577C96.2089 84.3495 96.2856 84.618 96.2856 84.8865C96.2856 85.4618 95.9404 85.807 95.4801 85.9221L96.4007 87.2262H95.6719L94.8281 86.0372H94.061V87.2262H93.4473V83.8125H93.4856ZM94.9815 85.5002C95.4034 85.5002 95.6719 85.27 95.6719 84.9248C95.6719 84.5413 95.4034 84.3495 94.9432 84.3495H94.061V85.5002H94.9432H94.9815Z" fill="#0072BC"/>
<path d="M98.8182 83.7734H99.3935L100.889 87.2255H100.237L99.8921 86.3817H98.2812L97.936 87.2255H97.3223L98.8182 83.7734ZM99.7003 85.883L99.125 84.5022L98.5497 85.883H99.7387H99.7003Z" fill="#0072BC"/>
<path d="M102.499 84.3495H101.387V83.8125H104.187V84.3495H103.074V87.2262H102.499V84.3495Z" fill="#0072BC"/>
<path d="M105.377 83.8125H107.947V84.3495H105.991V85.2317H107.717V85.7687H105.991V86.6892H107.947V87.2262H105.377V83.8125Z" fill="#0072BC"/>
<path d="M114.045 83.8125H113.432V87.2262H114.045V83.8125Z" fill="#0072BC"/>
<path d="M115.541 83.8125H116.078L117.919 86.1906V83.8125H118.533V87.2262H117.996L116.116 84.8098V87.2262H115.541V83.8125Z" fill="#0072BC"/>
<path d="M119.99 83.8125H120.527L122.368 86.1906V83.8125H122.982V87.2262H122.483L120.566 84.8098V87.2262H119.99V83.8125Z" fill="#0072BC"/>
<path d="M124.285 85.5371C124.285 84.5782 125.014 83.7344 126.088 83.7344C127.162 83.7344 127.891 84.5399 127.891 85.4988C127.891 86.4577 127.162 87.3015 126.088 87.3015C125.014 87.3015 124.285 86.496 124.285 85.5371ZM127.239 85.5371C127.239 84.8467 126.74 84.3097 126.088 84.3097C125.436 84.3097 124.937 84.8467 124.937 85.4988C124.937 86.1892 125.436 86.7262 126.088 86.7262C126.74 86.7262 127.239 86.1892 127.239 85.5371Z" fill="#0072BC"/>
<path d="M128.697 83.8125H129.349L130.385 86.4591L131.421 83.8125H132.073L130.653 87.2646H130.116L128.697 83.8125Z" fill="#0072BC"/>
<path d="M133.99 83.7734H134.565L136.061 87.2255H135.409L135.064 86.3817H133.453L133.108 87.2255H132.494L133.99 83.7734ZM134.834 85.883L134.259 84.5022L133.683 85.883H134.872H134.834Z" fill="#0072BC"/>
<path d="M137.634 84.3495H136.521V83.8125H139.321V84.3495H138.209V87.2262H137.634V84.3495Z" fill="#0072BC"/>
<path d="M140.549 83.8125H143.08V84.3495H141.124V85.2317H142.85V85.7687H141.124V86.6892H143.119V87.2262H140.549V83.8125Z" fill="#0072BC"/>
<path d="M61.8416 85.576C61.8416 85.8829 61.6114 86.113 61.3046 86.113C60.9977 86.113 60.7676 85.8829 60.7676 85.576C60.7676 85.2692 60.9977 85.0391 61.3046 85.0391C61.6114 85.0391 61.8416 85.2692 61.8416 85.576Z" fill="#0072BC"/>
<path d="M111.207 85.576C111.207 85.8829 110.977 86.113 110.67 86.113C110.363 86.113 110.133 85.8829 110.133 85.576C110.133 85.2692 110.363 85.0391 110.67 85.0391C110.977 85.0391 111.207 85.2692 111.207 85.576Z" fill="#0072BC"/>
</g>
</g>
<defs>
<clipPath id="clip0_5754_4873">
<rect width="140" height="33.0247" fill="white" transform="translate(4 57)"/>
</clipPath>
</defs>
</svg>
