<svg width="148" height="148" viewBox="0 0 148 148" fill="none" xmlns="http://www.w3.org/2000/svg">
<rect width="148" height="148" fill="#F1FAFF"/>
<path d="M40.5413 80.7797C51.6681 62.078 62.7943 43.3763 73.9224 24.6758C71.8438 37.4799 69.7571 50.2823 67.6785 63.0864C67.6636 63.2205 67.5295 63.2956 67.4488 63.394C53.2438 77.9945 39.0358 92.5921 24.832 107.194C30.0577 98.3829 35.3076 89.5858 40.5413 80.7797Z" fill="#062F62"/>
<path d="M75.0312 24.668C91.4142 52.1781 107.781 79.6973 124.162 107.209C117.634 100.524 111.123 93.8233 104.6 87.1337C96.8484 79.1745 89.0959 71.216 81.344 63.2574C81.2646 63.1555 81.2782 63.0172 81.2515 62.8992C79.1804 50.1553 77.1024 37.4119 75.0312 24.668Z" fill="#062F62"/>
<path d="M51.2055 83.262C51.6301 82.8204 52.0244 82.3501 52.4658 81.9252C55.2354 81.912 58.0062 81.921 60.7765 81.9204C55.9841 90.351 51.167 98.7685 46.3753 107.199C40.5853 107.199 34.7959 107.201 29.0059 107.199C36.4082 99.2215 43.805 91.2403 51.2055 83.262Z" fill="#062F62"/>
<path d="M63.5222 81.9187C68.3567 81.9199 73.1906 81.9157 78.0246 81.9199C78.4523 84.7241 78.8857 87.5272 79.3122 90.3314C77.7129 90.3326 76.1142 90.3332 74.5149 90.3326C74.5143 95.9548 74.5149 101.577 74.5143 107.2C69.4494 107.201 64.3846 107.197 59.3203 107.202C60.0535 104.78 60.8234 102.368 61.5709 99.9499C62.5667 96.7606 63.5551 93.5695 64.5541 90.3815C62.9181 90.3827 61.2828 90.3815 59.6469 90.3827C60.9395 87.5617 62.2296 84.7396 63.5222 81.9187Z" fill="#062F62"/>
<path d="M82.8438 82.0475C83.3747 81.8372 83.9533 81.9355 84.5096 81.9194C88.524 81.9182 92.5384 81.9212 96.5534 81.9176C98.92 84.456 101.273 87.0082 103.638 89.5484C100.364 89.5496 97.0892 89.546 93.8148 89.5508C93.1667 89.5651 92.6799 90.3077 92.9885 90.8685C93.9818 92.6566 94.9944 94.4357 95.9927 96.2219C96.3826 97.051 97.2841 97.6184 98.2315 97.6321C102.101 97.6327 105.971 97.6321 109.84 97.6321C110.265 97.6386 110.691 97.619 111.115 97.6404C114.064 100.815 116.996 104.006 119.936 107.189C110.156 107.192 100.375 107.191 90.5945 107.19C90.1618 107.179 89.7247 107.24 89.2963 107.158C88.252 107.003 87.3127 106.326 86.8626 105.409C86.6409 104.994 86.577 104.527 86.4497 104.083C84.7629 97.5862 83.0673 91.0908 81.3848 84.5931C81.1297 83.5519 81.7915 82.3986 82.8438 82.0475Z" fill="#062F62"/>
<path d="M50.4819 114.399C51.379 113.656 52.5785 113.207 53.7724 113.328C54.5155 113.387 55.2307 113.67 55.8162 114.112C55.9987 114.24 56.2614 114.398 56.4793 114.25C56.7593 114.024 56.6742 113.601 56.9468 113.369C57.0293 113.417 57.1492 113.452 57.1312 113.571C57.1504 114.741 57.1461 115.914 57.1914 117.084C57.197 117.246 57.1858 117.412 57.1243 117.567C57.038 117.541 56.9195 117.534 56.8996 117.429C56.6941 116.875 56.5358 116.301 56.2645 115.771C56.0223 115.308 55.761 114.845 55.394 114.461C54.9768 114.013 54.4056 113.677 53.7749 113.617C52.9529 113.543 52.0228 113.775 51.5224 114.448C51.1599 114.925 51.0158 115.512 50.8935 116.081C50.7346 116.964 50.6893 117.862 50.6452 118.757C50.6328 119.869 50.6489 121.017 51.0717 122.069C51.3076 122.656 51.7062 123.214 52.301 123.508C52.9448 123.832 53.7091 123.792 54.3994 123.648C55.2065 123.482 55.9391 122.994 56.3563 122.307C56.7785 121.652 56.9021 120.873 56.9449 120.117C57.0883 120.082 57.2355 120.089 57.3801 120.117C57.4006 120.198 57.4484 120.277 57.4316 120.365C57.3807 120.912 57.2746 121.458 57.079 121.977C56.7233 122.948 55.7957 123.672 54.762 123.902C54.0325 124.061 53.2602 124.151 52.5245 123.975C51.6553 123.774 50.8532 123.347 50.1715 122.797C49.9393 122.605 49.7182 122.394 49.5661 122.137C49.2967 121.695 49.0018 121.264 48.81 120.783C48.294 119.518 48.2978 118.066 48.8211 116.804C49.1874 115.902 49.7443 115.063 50.4819 114.399Z" fill="#062F62"/>
<path d="M117.476 113.412C117.706 113.397 117.937 113.349 118.169 113.375C118.316 113.401 118.416 113.538 118.407 113.68C118.412 116.621 118.408 119.562 118.408 122.503C118.396 122.805 118.385 123.185 118.69 123.368C119.062 123.548 119.497 123.502 119.902 123.509C119.972 123.601 119.985 123.766 119.831 123.775C118.902 123.833 117.971 123.867 117.042 123.911C116.871 123.929 116.653 123.873 116.617 123.689C116.589 123.393 116.625 123.094 116.602 122.798C116.573 122.759 116.544 122.722 116.515 122.688C116.306 122.913 116.117 123.158 115.867 123.344C115.223 123.861 114.328 124.074 113.508 123.892C112.617 123.709 111.871 123.098 111.426 122.35C110.829 121.35 110.673 120.109 111.028 119.006C111.337 118.067 112.007 117.229 112.909 116.749C113.566 116.4 114.366 116.252 115.096 116.463C115.711 116.629 116.191 117.067 116.55 117.557C116.647 117.413 116.594 117.238 116.6 117.08C116.593 116.245 116.601 115.411 116.599 114.576C116.604 114.306 116.425 114.037 116.159 113.944C115.78 113.809 115.368 113.859 114.974 113.821C114.977 113.726 114.942 113.603 115.068 113.573C115.871 113.52 116.673 113.462 117.476 113.412ZM114.271 116.752C113.798 116.884 113.471 117.281 113.281 117.699C112.934 118.459 112.883 119.303 112.857 120.121C112.874 120.701 112.895 121.286 113.024 121.855C113.129 122.304 113.293 122.763 113.629 123.105C113.99 123.481 114.582 123.623 115.092 123.486C115.421 123.387 115.703 123.169 115.898 122.899C116.316 122.341 116.483 121.653 116.565 120.982C116.656 120.065 116.622 119.12 116.325 118.238C116.15 117.748 115.887 117.257 115.442 116.945C115.112 116.708 114.665 116.634 114.271 116.752Z" fill="#062F62"/>
<path d="M75.0218 113.519C75.6054 113.349 76.2747 113.764 76.3393 114.348C76.4473 114.927 75.9245 115.506 75.3155 115.497C74.7828 115.519 74.2905 115.093 74.2545 114.583C74.1961 114.11 74.5425 113.634 75.0218 113.519Z" fill="#062F62"/>
<path d="M95.3814 113.513C96.0277 113.328 96.7435 113.87 96.6933 114.518C96.6957 115.127 96.0383 115.617 95.4236 115.472C94.9009 115.374 94.5221 114.856 94.6078 114.35C94.6525 113.953 94.9797 113.608 95.3814 113.513Z" fill="#062F62"/>
<path d="M100.032 113.683C100.048 113.487 100.395 113.494 100.412 113.687C100.414 114.56 100.409 115.434 100.411 116.306C100.386 116.436 100.508 116.552 100.642 116.544C101.286 116.555 101.931 116.533 102.575 116.553C102.766 116.567 102.795 116.838 102.636 116.918C101.992 116.916 101.348 116.906 100.705 116.917C100.517 116.908 100.392 117.09 100.412 117.258C100.409 119.046 100.414 120.835 100.41 122.625C100.397 122.957 100.529 123.334 100.857 123.492C101.331 123.713 101.962 123.597 102.29 123.192C102.636 122.763 102.724 122.197 102.722 121.668C102.708 121.569 102.762 121.486 102.809 121.405C102.9 121.419 103.025 121.384 103.083 121.48C103.166 121.585 103.114 121.723 103.112 121.846C103.062 122.502 102.86 123.196 102.349 123.662C102 123.993 101.503 124.144 101.02 124.151C100.45 124.162 99.8554 124.089 99.3556 123.809C98.8794 123.547 98.5529 123.036 98.5616 122.505C98.5634 120.797 98.5622 119.088 98.5628 117.38C98.546 117.233 98.5678 117.044 98.4287 116.947C98.248 116.878 98.0438 116.924 97.8544 116.912C97.6408 116.895 97.4018 116.977 97.2156 116.847C97.2094 116.72 97.2404 116.537 97.4149 116.549C98.3107 116.624 99.1452 116.046 99.5406 115.303C99.7995 114.795 99.9423 114.239 100.032 113.683Z" fill="#062F62"/>
<path d="M37.0657 113.688C40.1656 113.688 43.2655 113.687 46.3654 113.688C46.3592 115.046 46.3747 116.404 46.3579 117.761C46.3709 117.95 46.1201 117.988 46.0059 117.867C45.8519 116.87 45.5291 115.891 44.9908 115.023C44.7443 114.639 44.4097 114.257 43.9347 114.144C43.5784 114.069 43.2115 114.029 42.8476 114.052C42.7135 114.142 42.7005 114.318 42.6999 114.463C42.7036 117.244 42.7005 120.025 42.7011 122.805C42.6893 123.043 42.8222 123.287 43.0594 123.378C43.5889 123.592 44.1831 123.516 44.7332 123.636C44.7592 123.768 44.7027 123.928 44.5308 123.899C42.626 123.903 40.7206 123.898 38.8159 123.902C38.719 123.895 38.5936 123.913 38.5359 123.819C38.5377 123.77 38.5421 123.673 38.5439 123.624C39.1604 123.526 39.8154 123.52 40.381 123.233C40.5486 123.148 40.7473 123.017 40.738 122.812C40.7399 119.989 40.7386 117.166 40.7386 114.343C40.7486 114.224 40.7026 114.06 40.5542 114.051C40.0923 114.023 39.5981 114.061 39.1927 114.295C38.6842 114.629 38.3682 115.16 38.1031 115.68C37.7548 116.359 37.5729 117.1 37.4109 117.837C37.3507 117.983 37.1675 117.946 37.0645 117.865C37.0657 116.472 37.0651 115.08 37.0657 113.688Z" fill="#062F62"/>
<path d="M29.0462 113.996C29.0313 113.89 29.027 113.726 29.1828 113.736C30.9237 113.734 32.6651 113.734 34.4066 113.736C34.5631 113.724 34.5531 113.889 34.5426 113.994C34.0614 114.102 33.538 114.061 33.0836 114.273C32.8948 114.359 32.7707 114.556 32.7881 114.759C32.7887 117.462 32.7868 120.164 32.7887 122.867C32.7713 123.102 32.9575 123.302 33.1798 123.377C33.5877 123.516 34.0273 123.533 34.4538 123.586C34.5556 123.615 34.5705 123.724 34.537 123.81C34.46 123.904 34.3265 123.881 34.2172 123.888C32.5608 123.884 30.9044 123.89 29.248 123.885C29.0971 123.907 28.9934 123.779 29.0444 123.644C29.1474 123.54 29.3107 123.578 29.4436 123.553C29.7813 123.508 30.1308 123.486 30.4493 123.36C30.6567 123.282 30.8094 123.083 30.8001 122.866C30.8026 120.162 30.8007 117.458 30.8007 114.754C30.8169 114.52 30.6468 114.311 30.4239 114.234C29.9831 114.072 29.5013 114.091 29.0462 113.996Z" fill="#062F62"/>
<path d="M63.3478 113.758C65.1843 113.732 67.0232 113.753 68.8603 113.747C69.0317 113.703 69.1291 113.959 68.9721 114.03C68.4506 114.107 67.898 114.072 67.397 114.255C67.1313 114.345 66.9891 114.616 67.009 114.876C67.0102 117.521 67.0046 120.167 67.0108 122.812C66.9897 123.092 67.1971 123.349 67.4758 123.421C67.9675 123.555 68.4884 123.611 68.9963 123.533C69.7009 123.45 70.4634 123.319 70.996 122.829C71.7597 122.125 72.0496 121.099 72.2129 120.127C72.2427 119.995 72.2315 119.789 72.3991 119.744C72.5711 119.789 72.5866 119.981 72.586 120.123C72.586 121.296 72.5854 122.47 72.5866 123.644C72.6096 123.754 72.5264 123.883 72.4029 123.884C69.5675 123.894 66.7314 123.906 63.8954 123.902C63.7116 123.892 63.521 123.927 63.3429 123.878C63.2075 123.819 63.2584 123.606 63.3994 123.602C63.8271 123.54 64.276 123.542 64.682 123.383C64.921 123.293 65.0682 123.052 65.0514 122.809C65.0514 120.146 65.0502 117.483 65.0514 114.82C65.0676 114.56 64.8826 114.319 64.6293 114.238C64.2344 114.112 63.8135 114.093 63.4037 114.044C63.2466 114.037 63.2187 113.825 63.3478 113.758Z" fill="#062F62"/>
<path d="M82.6779 116.878C83.0697 116.615 83.531 116.427 84.0146 116.414C84.5852 116.389 85.1905 116.474 85.6611 116.807C86.0448 117.077 86.3105 117.481 86.4589 117.911C86.4943 118.017 86.552 118.115 86.6178 118.209C86.8022 118.037 86.8643 117.786 87.0319 117.603C87.374 117.208 87.7819 116.856 88.2674 116.633C88.8498 116.347 89.5395 116.368 90.1635 116.498C91.0209 116.674 91.7541 117.421 91.7758 118.279C91.8038 118.754 91.769 119.23 91.7702 119.705C91.7131 120.738 91.7373 121.774 91.6814 122.807C91.6634 123.034 91.7342 123.292 91.967 123.396C92.3172 123.551 92.7127 123.57 93.0883 123.636C93.1075 123.718 93.1051 123.803 93.0864 123.887C92.234 123.918 91.3803 123.892 90.5279 123.901C89.799 123.892 89.0696 123.917 88.3419 123.887C88.3202 123.802 88.3196 123.718 88.3425 123.636C88.7119 123.576 89.0925 123.551 89.4452 123.422C89.6525 123.343 89.7904 123.138 89.7773 122.924C89.7935 121.495 89.7767 120.065 89.7854 118.636C89.8239 118.24 89.8139 117.823 89.637 117.458C89.4986 117.17 89.1857 116.97 88.8541 116.973C88.3668 116.952 87.9142 117.207 87.5969 117.545C87.0717 118.11 86.7575 118.833 86.6371 119.577C86.5197 120.069 86.5619 120.575 86.5551 121.076C86.557 121.694 86.5508 122.312 86.557 122.931C86.5458 123.146 86.6911 123.345 86.8972 123.424C87.2232 123.55 87.5801 123.562 87.9191 123.638C88.0172 123.69 88.0154 123.831 87.9148 123.882C87.795 123.909 87.6714 123.898 87.5503 123.901C86.1621 123.897 84.7739 123.904 83.3857 123.899C83.2392 123.936 83.1069 123.762 83.2181 123.653C83.6185 123.531 84.0823 123.579 84.4455 123.35C84.7075 123.173 84.6522 122.833 84.6553 122.567C84.6578 121.137 84.6466 119.707 84.6628 118.277C84.633 117.88 84.5697 117.433 84.2468 117.151C83.9979 116.932 83.626 116.942 83.3224 117.03C82.8723 117.153 82.5165 117.474 82.252 117.833C81.9267 118.287 81.6883 118.802 81.5939 119.348C81.3506 120.405 81.4667 121.492 81.4393 122.565C81.4387 122.842 81.3946 123.203 81.684 123.37C82.0322 123.554 82.4445 123.558 82.8263 123.634C82.8418 123.661 82.8716 123.716 82.8865 123.743C82.8729 123.779 82.8449 123.85 82.8313 123.886C82.1893 123.919 81.5455 123.892 80.9029 123.901C79.9499 123.897 78.9963 123.91 78.0439 123.895C77.8831 123.891 77.8875 123.711 77.9713 123.623C78.368 123.59 78.7734 123.561 79.1546 123.442C79.3837 123.375 79.5582 123.162 79.5377 122.928C79.5395 121.156 79.5414 119.384 79.5377 117.612C79.5451 117.377 79.3521 117.18 79.1267 117.118C78.7995 117.024 78.4568 116.994 78.1191 116.953C77.9073 116.923 77.9918 116.613 78.1687 116.609C79.1019 116.576 80.0344 116.526 80.9669 116.478C81.1798 116.455 81.4319 116.569 81.4511 116.797C81.4971 117.206 81.4009 117.618 81.4462 118.029C81.5207 118.178 81.638 118.032 81.6765 117.941C81.8895 117.5 82.2756 117.162 82.6779 116.878Z" fill="#062F62"/>
<path d="M106.502 116.44C107.525 116.305 108.642 116.572 109.398 117.268C110.1 117.922 110.354 118.907 110.306 119.821C110.312 119.932 110.208 120.028 110.091 120.005C108.539 119.998 106.988 120.014 105.436 120.017C105.281 120.017 105.23 120.183 105.228 120.306C105.174 121.076 105.209 121.88 105.536 122.597C105.754 123.082 106.196 123.482 106.739 123.603C107.577 123.784 108.532 123.569 109.132 122.958C109.511 122.577 109.749 122.079 109.849 121.564C109.865 121.454 109.955 121.328 110.089 121.358C110.301 121.387 110.237 121.641 110.229 121.787C110.06 122.65 109.41 123.406 108.565 123.741C107.521 124.16 106.27 124.146 105.271 123.615C104.154 123.043 103.381 121.917 103.24 120.713C102.96 118.774 104.484 116.759 106.502 116.44ZM106.7 116.759C106.371 116.827 106.074 117.02 105.883 117.286C105.455 117.867 105.379 118.598 105.287 119.284C105.254 119.456 105.335 119.707 105.559 119.692C106.345 119.7 107.132 119.695 107.918 119.694C108.136 119.701 108.412 119.653 108.488 119.424C108.588 119.091 108.582 118.739 108.56 118.397C108.534 117.922 108.433 117.407 108.066 117.062C107.709 116.728 107.169 116.684 106.7 116.759Z" fill="#062F62"/>
<path d="M75.0765 116.582C75.3875 116.579 75.6967 116.517 76.0071 116.541C76.1865 116.566 76.2691 116.74 76.2517 116.9C76.2536 118.929 76.248 120.959 76.253 122.989C76.2443 123.193 76.4125 123.362 76.6068 123.422C76.9936 123.542 77.4046 123.563 77.8026 123.635C77.9386 123.684 77.8914 123.909 77.7436 123.895C76.1704 123.904 74.5965 123.9 73.0239 123.896C72.8687 123.916 72.865 123.746 72.8967 123.647C73.2648 123.548 73.6373 123.461 74.0086 123.371C74.2681 123.307 74.4575 123.068 74.4389 122.809C74.4426 121.096 74.4401 119.384 74.4382 117.672C74.4506 117.442 74.2998 117.223 74.0763 117.141C73.7236 117.018 73.3443 117 72.9761 116.949C72.8662 116.919 72.8967 116.8 72.8811 116.72C73.045 116.659 73.222 116.659 73.3958 116.656C73.9565 116.645 74.5152 116.591 75.0765 116.582Z" fill="#062F62"/>
<path d="M94.1941 116.643C94.8553 116.596 95.519 116.59 96.1796 116.536C96.3522 116.509 96.5912 116.59 96.5856 116.791C96.5931 118.837 96.5856 120.884 96.5899 122.93C96.5788 123.136 96.7079 123.334 96.9109 123.408C97.3101 123.547 97.7404 123.56 98.1545 123.638C98.3078 123.712 98.2048 123.938 98.044 123.899C96.4894 123.901 94.9348 123.904 93.3808 123.898C93.2399 123.921 93.161 123.729 93.2759 123.656C93.6478 123.511 94.0538 123.473 94.4313 123.346C94.6622 123.269 94.7938 123.039 94.7882 122.813C94.7901 121.099 94.7901 119.386 94.7882 117.673C94.8 117.431 94.6324 117.206 94.3946 117.131C94.0507 117.024 93.6869 116.994 93.3293 116.955C93.2206 116.921 93.2448 116.799 93.2336 116.717C93.5447 116.627 93.8744 116.671 94.1941 116.643Z" fill="#062F62"/>
</svg>
