<svg width="148" height="148" viewBox="0 0 148 148" fill="none" xmlns="http://www.w3.org/2000/svg">
<rect width="148" height="148" fill="#F1FAFF"/>
<path d="M20.4273 73.8753C21.1878 73.8753 21.9322 74.1334 22.5633 74.7047C23.1943 75.2761 23.5665 75.8844 23.6636 76.64H26.7543C26.5601 74.8891 25.8966 73.5251 24.7316 72.5114C23.5665 71.4792 22.1102 71 20.314 71C18.081 71 16.3172 71.7926 14.9903 73.433C13.6634 75.0181 13 77.193 13 79.9577C13 82.6487 13.6311 84.8052 14.8932 86.3535C16.1554 87.9386 17.8544 88.6943 19.9904 88.6943C21.7542 88.6943 23.1458 87.9017 24.2138 86.3535L24.3756 86.0954L25.7025 88.2519H26.7381V79.202H20.5891V82.0774H24.052V82.1142C23.8901 82.9068 23.6151 83.5887 23.2591 84.1601C22.5956 85.1923 21.6571 85.7084 20.4597 85.7084C19.0681 85.7084 18.0001 85.2107 17.2719 84.2338C16.5437 83.257 16.1716 81.764 16.1716 79.884C16.1716 78.004 16.5437 76.5479 17.3043 75.4789C18.0324 74.4098 19.0681 73.8753 20.4273 73.8753Z" fill="#7D7D7D"/>
<path d="M34.7634 71.4609H30.006H28.4688V88.2521H30.006H34.5368C36.6404 88.2521 38.2586 87.4964 39.3589 86.0218C40.4592 84.5105 40.9932 82.354 40.9932 79.4602C40.9932 76.8429 40.4592 74.8708 39.3913 73.5068C38.3556 72.106 36.786 71.4609 34.7634 71.4609ZM36.964 83.8838C36.333 84.8238 35.3944 85.3214 34.1646 85.3214H31.5756V74.3363H34.4235C35.5886 74.3363 36.4462 74.797 37.0449 75.6265C37.6113 76.4927 37.9026 77.783 37.9026 79.5339C37.8864 81.5061 37.5951 82.9438 36.964 83.8838Z" fill="#7D7D7D"/>
<path d="M94.2165 75.4805C92.8572 75.4805 91.8216 76.015 91.1258 77.0287C90.9964 77.213 90.8669 77.4526 90.7536 77.6738V75.8122H89.3944H88.0352V88.2351H89.4591H90.8831V81.2311C90.8831 80.2542 91.0773 79.517 91.4818 79.0009C91.8864 78.4848 92.4851 78.2452 93.2132 78.2452C93.8119 78.2452 94.2488 78.4295 94.5401 78.8166C94.8476 79.2036 94.977 79.7566 94.977 80.5307V88.2904H96.401H97.825V79.8856C97.825 78.5217 97.4851 77.4158 96.8541 76.6601C96.2877 75.886 95.3816 75.4805 94.2165 75.4805Z" fill="#7D7D7D"/>
<path d="M115.816 75.4805C114.748 75.4805 113.891 76.0887 113.195 77.3421C113.066 77.5632 112.968 77.8028 112.855 78.0609V75.8307H111.496H110.137V88.2535H111.561H112.985V81.8025C112.985 80.8256 113.179 80.0515 113.616 79.5723C114.053 79.0746 114.716 78.8166 115.574 78.8166C115.914 78.8166 116.172 78.8166 116.431 78.8534V75.4805H115.816Z" fill="#7D7D7D"/>
<path d="M103.971 75.4805C102.337 75.4805 101.075 76.0518 100.152 77.1393C99.2461 78.2821 98.793 79.8303 98.793 81.8025C98.793 83.959 99.2299 85.6362 100.152 86.7606C101.058 87.9402 102.321 88.5116 103.971 88.5116C105.33 88.5116 106.431 88.1614 107.337 87.4425C108.243 86.7237 108.793 85.7284 109.068 84.4935H106.139C106.075 84.8805 105.832 85.2492 105.476 85.5257C105.104 85.8206 104.715 85.9496 104.278 85.9496C103.34 85.9496 102.677 85.6547 102.288 85.0464C101.981 84.5488 101.787 83.83 101.722 82.8531H109.149C109.181 82.595 109.214 82.3554 109.214 82.0974C109.214 79.9778 108.777 78.3374 107.855 77.213C106.9 76.0518 105.638 75.4805 103.971 75.4805ZM101.706 80.7519C101.803 80.1068 101.965 79.5354 102.24 79.1668C102.644 78.5217 103.211 78.1899 103.939 78.1899C104.699 78.1899 105.266 78.4479 105.638 79.0193C105.897 79.4432 106.107 79.9962 106.172 80.7703H101.706V80.7519Z" fill="#7D7D7D"/>
<path d="M70.5582 87.2565C70.4935 87.0353 70.4288 86.6483 70.4288 86.0769V79.1466C70.4288 78.0039 70.0242 77.1376 69.2637 76.4925C68.4708 75.8474 67.4028 75.5156 66.0436 75.5156C64.474 75.5156 63.2765 75.9027 62.4837 76.6215C61.6908 77.3403 61.2539 78.4462 61.1891 79.8839H63.9562C63.9885 79.3125 64.1503 78.907 64.4578 78.5937C64.7652 78.2804 65.186 78.1329 65.7523 78.1329C66.351 78.1329 66.8527 78.2435 67.1439 78.4831C67.4028 78.6674 67.5808 78.9439 67.6132 79.3125C67.6456 79.4968 67.6132 79.7364 67.5161 79.9208C67.4514 80.1051 67.3219 80.271 67.1763 80.3447C66.8365 80.529 66.4481 80.6396 65.9465 80.7317L64.0533 81.0267C62.9853 81.211 62.1924 81.6349 61.626 82.3169C61.0597 82.9988 60.8008 83.902 60.8008 85.0447C60.8008 86.1138 61.1082 86.98 61.7393 87.662C62.3704 88.3071 63.1633 88.6389 64.1665 88.6389C65.5905 88.6389 66.7556 88.0306 67.6941 86.8142V86.851C67.7265 87.3118 67.8235 87.791 67.9206 88.2887V88.3255H69.4902H71.0598V87.8648C70.8009 87.6436 70.6715 87.4961 70.5582 87.2565ZM67.6455 83.6624C67.6455 83.9204 67.6132 84.1969 67.5485 84.4918C67.4837 84.7867 67.3866 84.9894 67.2896 85.1369C66.7232 85.8557 65.995 86.2428 65.0889 86.2428C64.652 86.2428 64.3283 86.0953 64.0856 85.8189C63.8591 85.5239 63.7134 85.1369 63.7134 84.6392C63.7134 84.2153 63.8429 83.8467 64.118 83.5333C64.3931 83.22 64.7491 83.0357 65.2507 82.9251L66.3187 82.7039C66.8527 82.5933 67.3219 82.409 67.6455 82.1694V83.6624Z" fill="#7D7D7D"/>
<path d="M71.9336 71.4609V88.2521H73.3576H74.7977V71.4609H73.3576H71.9336Z" fill="#7D7D7D"/>
<path d="M83.747 71.4609V77.488L83.6176 77.3037C82.857 76.1241 81.8538 75.5159 80.624 75.5159C79.2324 75.5159 78.1321 76.0873 77.2583 77.2669C76.4006 78.4465 75.9961 79.9579 75.9961 81.8932C75.9961 83.9022 76.433 85.5242 77.2583 86.7775C78.1159 88.0309 79.2162 88.6391 80.624 88.6391C81.9185 88.6391 82.9541 88.0309 83.747 86.8144L83.7794 86.7407V88.3258H85.171H86.5626V71.4609H85.171H83.747ZM83.213 84.8422C82.7761 85.5242 82.1774 85.8744 81.3845 85.8744C80.624 85.8744 80.0253 85.5242 79.5884 84.8975C79.1515 84.2524 78.9573 83.3124 78.9573 82.1328C78.9573 80.9163 79.1838 80.0132 79.6207 79.3312C80.0576 78.6492 80.6564 78.299 81.4169 78.299C82.1774 78.299 82.7761 78.5939 83.213 79.239C83.6499 79.8841 83.8765 80.7504 83.8765 81.8932C83.8765 83.165 83.6499 84.1603 83.213 84.8422Z" fill="#7D7D7D"/>
<path d="M60.3142 71.4609H58.7608L56.3174 83.6257L54.1976 71.4609H52.5309H50.8966L48.7768 83.7363L46.3496 71.4609H44.7153H43.1133L47.2396 88.2521H48.7121H50.1684L52.4662 75.0182L54.8287 88.2521H56.285H57.7575L61.8838 71.4609H60.3142Z" fill="#7D7D7D"/>
<path fill-rule="evenodd" clip-rule="evenodd" d="M119.247 60.3438V69.5595H86.6094V60.3438H119.247Z" fill="#009991"/>
<path fill-rule="evenodd" clip-rule="evenodd" d="M127.32 69.5606H135.411V51H127.32V69.5606Z" fill="#005EA8"/>
<path fill-rule="evenodd" clip-rule="evenodd" d="M119.246 69.5625H127.321V78.7783H119.246V69.5625Z" fill="#F09015"/>
</svg>
