<svg width="148" height="148" viewBox="0 0 148 148" fill="none" xmlns="http://www.w3.org/2000/svg">
<rect width="148" height="148" fill="#F1FAFF"/>
<path d="M16.5248 101.238H13.9824V110.5H16.5248C19.4757 110.5 21.3824 108.684 21.3824 105.869C21.3824 103.054 19.4757 101.238 16.5248 101.238ZM15.7303 102.918H16.4567C18.4769 102.918 19.5892 103.962 19.5892 105.869C19.5892 107.776 18.4769 108.82 16.4567 108.82H15.7303V102.918Z" fill="#AB1F24"/>
<path d="M25.0831 101.238H23.3125V110.5H25.0831V101.238Z" fill="#AB1F24"/>
<path d="M26.7402 102.918H29.328V110.5H31.0758V102.918H33.6408V101.238H26.7402V102.918Z" fill="#AB1F24"/>
<path d="M40.4733 101.238L38.3395 104.938L36.1831 101.238H34.1855L37.4543 106.822V110.5H39.2021V106.822L42.4254 101.238H40.4733Z" fill="#AB1F24"/>
<path d="M60.8573 105.597C61.2886 105.165 61.5156 104.575 61.5156 103.849C61.5156 102.26 60.4033 101.238 58.6554 101.238H55.3867V110.5H58.837C60.7211 110.5 61.9241 109.41 61.9241 107.73C61.9241 106.8 61.561 106.051 60.8573 105.597ZM58.5873 102.895C59.3818 102.895 59.7677 103.213 59.7677 103.894C59.7677 104.575 59.4499 104.893 58.7235 104.893H57.1346V102.895H58.5873ZM57.1573 106.527H58.7462C59.6769 106.527 60.1763 106.913 60.1763 107.685C60.1763 108.457 59.7223 108.843 58.7689 108.843H57.1573V106.527Z" fill="#AB1F24"/>
<path d="M65.6006 101.238H63.8301V110.5H65.6006V101.238Z" fill="#AB1F24"/>
<path d="M74.2497 104.189C74.2497 102.419 72.9558 101.238 71.0037 101.238H68.0527V110.5H69.8006V107.117H70.9129L73.0012 110.5H75.0214L72.6834 106.754C73.6822 106.278 74.2497 105.37 74.2497 104.189ZM69.7779 102.918H70.9356C71.957 102.918 72.4564 103.349 72.4564 104.212C72.4564 104.757 72.2975 105.46 70.9356 105.46H69.7779V102.918Z" fill="#AB1F24"/>
<path d="M78.085 101.238H76.3145V110.5H81.9212V108.843H78.085V101.238Z" fill="#AB1F24"/>
<path d="M100.399 107.117H102.895V108.297C102.373 108.683 101.692 108.865 100.853 108.865C99.1047 108.865 97.8335 107.594 97.8335 105.823C97.8335 104.052 99.0366 102.781 100.716 102.781C101.942 102.781 102.532 103.258 102.941 103.712L103.259 104.075L104.507 102.895L104.189 102.554C103.304 101.578 102.169 101.102 100.716 101.102C98.0832 101.102 96.0176 103.167 96.0176 105.823C96.0176 108.524 98.0832 110.545 100.83 110.545C102.305 110.545 103.44 110.136 104.439 109.273L104.598 109.137V105.46H100.376V107.117" fill="#AB1F24"/>
<path d="M112.84 104.146C112.84 102.376 111.546 101.195 109.593 101.195H106.643V110.457H108.39V107.074H109.503L111.591 110.457H113.611L111.273 106.711C112.272 106.235 112.84 105.304 112.84 104.146ZM108.39 102.852H109.548C110.57 102.852 111.046 103.284 111.046 104.146C111.046 104.691 110.887 105.395 109.548 105.395H108.39V102.852Z" fill="#AB1F24"/>
<path d="M119.104 101.102C116.448 101.102 114.383 103.167 114.383 105.823C114.383 108.479 116.448 110.545 119.104 110.545C121.76 110.545 123.848 108.479 123.848 105.823C123.848 103.167 121.76 101.102 119.104 101.102ZM119.104 108.865C117.402 108.865 116.153 107.594 116.153 105.823C116.153 104.052 117.402 102.781 119.104 102.781C120.807 102.781 122.055 104.052 122.055 105.823C122.055 107.594 120.807 108.865 119.104 108.865Z" fill="#AB1F24"/>
<path d="M130.681 107.097C130.681 108.278 130.114 108.868 129.024 108.868C127.934 108.868 127.367 108.255 127.367 107.097V101.195H125.619V107.143C125.619 109.208 126.958 110.525 129.024 110.525C131.09 110.525 132.429 109.185 132.429 107.143V101.195H130.681V107.097Z" fill="#AB1F24"/>
<path d="M137.672 101.195H134.744V110.457H136.492V107.143H137.65C139.625 107.143 140.896 105.985 140.896 104.169C140.918 102.376 139.647 101.195 137.672 101.195ZM136.515 102.852H137.627C138.648 102.852 139.125 103.284 139.125 104.169C139.125 105.054 138.626 105.463 137.627 105.463H136.515V102.852Z" fill="#AB1F24"/>
<path d="M4.7207 110.478H6.44586L7.21764 108.571H10.1232L10.8949 110.478H12.6428L8.6931 100.898L4.7207 110.478ZM7.85322 107.005L8.6704 104.984L9.48757 107.005H7.85322Z" fill="#AB1F24"/>
<path d="M41.7891 110.501H43.5142L44.2633 108.594H47.1688L47.9406 110.501H49.6884L45.7388 100.922L41.7891 110.501ZM44.8989 107.051L45.7161 105.03L46.5332 107.051H44.8989Z" fill="#AB1F24"/>
<path d="M83.0352 110.478H84.7603L85.5321 108.571H88.4376L89.2094 110.478H90.9572L87.0075 100.898L83.0352 110.478ZM86.145 107.005L86.9622 104.984L87.7793 107.005H86.145Z" fill="#AB1F24"/>
<path d="M120.058 72.5486L107.3 78.4277L93.2949 60.9719L108.935 35.4805H120.058V72.5486Z" fill="#AB1F24"/>
<path d="M120.058 94.3156V72.5469L107.301 78.426L120.058 94.3156Z" fill="#EF7032"/>
<path d="M93.2952 60.9719L72.8203 35.4805H108.935L93.2952 60.9719Z" fill="#EF7032"/>
<path d="M87.6657 70.1393L93.2725 60.9914L72.8203 35.5V66.0307H72.9565C78.359 66.008 83.3982 67.5288 87.6657 70.1393Z" fill="#FFD35D"/>
<path d="M72.9565 66.0117H72.8203V94.3179L87.6657 70.143C83.3755 67.5326 78.359 66.0117 72.9565 66.0117Z" fill="#AB1F24"/>
<path d="M98.6506 82.4197L107.299 78.4246L93.2935 60.9688L87.6641 70.1393C92.4309 73.0448 96.2671 77.3123 98.6506 82.4197Z" fill="#EF7032"/>
<path d="M87.6657 70.1406L72.8203 94.3382L98.6522 82.421C96.2688 77.3136 92.4326 73.0461 87.6657 70.1406Z" fill="#D31F26"/>
<path d="M107.301 78.4258L98.6523 82.4209C100.332 86.0301 101.285 90.0706 101.285 94.3381H120.058L107.301 78.4258Z" fill="#FFD35D"/>
<path d="M72.8203 94.3156H101.263C101.263 90.0708 100.332 86.0303 98.6522 82.3984L72.8203 94.3156Z" fill="#AB1F24"/>
<path d="M25.6055 72.5486L38.3625 78.4277L52.368 60.9719L36.7282 35.4805H25.6055V72.5486Z" fill="#AB1F24"/>
<path d="M25.6055 94.3156V72.5469L38.3625 78.426L25.6055 94.3156Z" fill="#EF7032"/>
<path d="M52.3684 60.9719L72.8205 35.4805H36.7285L52.3684 60.9719Z" fill="#EF7032"/>
<path d="M57.9739 70.1393L52.3672 60.9914L72.8193 35.5V66.0307H72.6831C67.3034 66.008 62.2641 67.5288 57.9739 70.1393Z" fill="#D31F26"/>
<path d="M72.6826 66.0117H72.8188V94.3179L57.9961 70.143C62.2636 67.5326 67.3028 66.0117 72.6826 66.0117Z" fill="#EF7032"/>
<path d="M47.0098 82.4197L38.3613 78.4246L52.3668 60.9688L57.9736 70.1166C53.2067 73.0448 49.3705 77.3123 47.0098 82.4197Z" fill="#EF7032"/>
<path d="M57.9736 70.1406L72.819 94.3382L47.0098 82.421C49.3705 77.3136 53.2067 73.0461 57.9736 70.1406Z" fill="#D31F26"/>
<path d="M38.3625 78.4258L47.011 82.4209C45.3312 86.0301 44.3779 90.0706 44.3779 94.3381H25.6055L38.3625 78.4258Z" fill="#FFD35D"/>
<path d="M72.8193 94.3156H44.377C44.377 90.0708 45.3076 86.0303 47.0101 82.3984L72.8193 94.3156Z" fill="#AB1F24"/>
</svg>
