<svg width="148" height="148" viewBox="0 0 148 148" fill="none" xmlns="http://www.w3.org/2000/svg">
<rect width="148" height="148" fill="white"/>
<g clip-path="url(#clip0_5583_4603)">
<path d="M55.7152 69.6667V76.7045C56.0212 76.8665 51.5753 79.0984 49.3074 78.9904C47.0034 78.8824 42.6476 77.3345 42.7556 73.1406C42.8636 68.9467 46.0495 67.1827 49.2714 67.1287C52.1693 67.0747 56.2012 69.7927 55.7152 69.6667ZM91.5702 53.9531H14.6944V58.129H25.5841L25.5301 61.7649C20.8862 61.9089 11.8504 60.8109 11.4545 67.1107C11.4185 70.3507 15.0364 72.7266 18.9422 73.5006C23.7841 74.4725 27.798 75.9125 27.6 79.0084C27.402 83.8863 20.0402 84.9482 18.4563 84.9302C16.8723 84.9122 14.0104 84.6602 11.9404 83.0763C9.8705 81.4923 8.48454 78.4684 8.48454 78.4684L4.72265 79.8184C4.61465 79.8364 6.73859 85.3622 12.6424 89.1241C17.7543 92.652 25.4041 94.02 31.5779 93.822C37.7517 93.624 43.7635 92.292 43.7635 92.292L43.9435 87.4862C43.9795 87.5942 35.6278 90.1681 31.0559 89.9881C27.942 90.1861 22.1461 88.4761 22.6321 88.3321C22.7221 88.6561 34.0078 86.6042 34.2418 78.9184C34.1338 72.1326 25.5481 71.4126 25.764 71.3406C25.3141 71.1246 18.0243 70.7646 18.0243 67.7047C18.0603 64.8608 23.1901 65.3108 23.1901 65.3108L28.968 65.3648V58.129H56.2192V65.7788C56.2192 65.7788 52.0073 63.0789 48.1914 63.0429C43.6015 62.8629 37.1037 66.3908 37.3197 73.3386C37.3737 79.2424 42.4496 83.3283 47.8674 83.5623C52.3133 83.4723 56.0932 81.0604 56.0932 81.0604V89.8441H59.3691V70.8006C62.357 67.7227 65.4349 66.6428 67.8828 66.6068C71.6267 66.7868 74.2727 69.3247 74.1107 73.3746C74.0207 75.5345 73.0487 77.5864 71.1048 79.0804C68.9988 80.7004 64.6069 81.5823 64.5889 81.5103V85.4342C64.5889 85.4342 69.9168 85.2722 73.5167 83.2923C77.1166 81.3123 79.2225 77.1905 79.2225 73.7706C79.2765 70.6746 78.1066 68.1547 75.8026 65.9408C73.4987 63.7268 70.6908 63.0609 67.8648 62.9709C65.2189 62.8809 63.293 63.6368 59.5131 65.9588L59.5491 58.147H83.7404V90.7441H86.6203V58.129H91.5522L91.5702 53.9531Z" fill="white"/>
<path d="M30.4421 94.2374C24.8803 94.2374 17.5545 92.9955 12.4246 89.4496C9.34671 87.4876 7.31277 85.0757 6.1608 83.3837C5.04483 81.7638 4.25285 80.0898 4.32485 79.7478L4.37885 79.4779L4.61284 79.4239L8.66273 77.9839L8.82472 78.3259C8.84272 78.3619 10.1747 81.2598 12.1546 82.7898C14.0086 84.2117 16.6005 84.5537 18.4364 84.5717C19.7684 84.5897 26.9682 83.6357 27.1662 79.0279C27.3102 76.6699 24.7543 75.104 18.8504 73.934C14.9265 73.16 10.9847 70.7481 11.0387 67.1482V67.1302C11.3986 61.3344 18.5624 61.3884 23.2963 61.4064C23.9443 61.4064 24.5563 61.4064 25.1143 61.4064L25.1503 58.5625H14.2786V53.5586H91.9643V58.5445H87.0325V91.1415H83.3066V58.5445H59.9253L59.9073 65.2223C63.5072 63.0803 65.3611 62.4683 67.863 62.5403C71.3909 62.6483 74.0009 63.6203 76.0708 65.6362C78.5187 67.9942 79.6707 70.6581 79.6167 73.772C79.6167 77.6779 77.1868 81.7458 73.6949 83.6537C70.041 85.6517 64.8031 85.8317 64.5871 85.8317L64.1731 85.8497V81.4938L64.9831 81.4218C64.9471 81.2058 64.7491 81.0798 64.6051 81.0978C64.9831 81.0798 68.943 80.2158 70.8509 78.7579C72.6329 77.3899 73.6049 75.518 73.6949 73.358C73.8389 69.6861 71.5529 67.2022 67.863 67.0222C66.2611 67.0402 63.0932 67.5982 59.7633 70.9821V90.2595H55.6774V81.7818C54.4174 82.4658 51.3575 83.9057 47.8656 83.9957H47.8476H47.8296C42.5018 83.7617 36.9399 79.7298 36.8859 73.358C36.7959 70.5141 37.8039 67.9762 39.7838 66.0142C41.9438 63.8723 45.2377 62.5403 48.1716 62.6663C51.2135 62.6843 54.4534 64.3403 55.7854 65.0963V58.5445H29.3801V65.7442L23.1703 65.6902C23.1343 65.6902 20.1824 65.4383 18.9404 66.5542C18.6164 66.8602 18.4364 67.2202 18.4364 67.6882C18.4364 69.8481 23.2063 70.5321 24.9883 70.7841C25.6002 70.8741 25.7982 70.9101 25.9242 70.9641C25.9602 70.9641 26.0142 70.9821 26.0682 71.0001C31.5221 72.0081 34.564 74.816 34.636 78.9199V78.9379V78.9559C34.456 85.1477 27.5262 87.8296 24.2683 88.5676C26.0322 89.0716 29.0201 89.7196 31.0361 89.5936H31.0541H31.0721C35.428 89.7736 43.2757 87.3976 43.7257 87.1636C43.6357 87.2176 43.5277 87.3436 43.5277 87.5056V87.4876L44.3017 87.3616L44.3737 87.5596L44.3197 87.6316L44.1397 92.6175L43.8337 92.6895C43.7797 92.7075 37.7139 94.0394 31.5761 94.2374C31.2161 94.2194 30.8381 94.2374 30.4421 94.2374ZM5.22483 80.0718C5.72881 81.3318 8.01475 85.6877 12.8746 88.7836C18.2205 92.4735 26.0322 93.5895 31.5761 93.4095C36.8499 93.2475 42.0878 92.2215 43.3837 91.9515L43.5277 88.0816C43.3117 88.1536 43.0237 88.2436 42.6458 88.3516C42.0518 88.5316 40.8278 88.8736 39.2619 89.2516C36.8679 89.8276 33.502 90.4755 31.0721 90.3855C29.3081 90.4935 26.9142 90.0256 25.6362 89.7196C22.2883 88.9636 22.2343 88.6216 22.1983 88.4236C22.1623 88.2076 22.2883 88.0096 22.5043 87.9376L22.9003 87.8296L22.9363 87.9556C23.9443 87.8656 28.0662 86.9656 30.9821 84.4457C32.8 82.8798 33.754 81.0258 33.808 78.9199C33.736 75.266 30.9281 72.728 25.9062 71.7921C25.7802 71.7741 25.6722 71.7561 25.5822 71.7021C25.4922 71.6841 25.1683 71.6301 24.8623 71.5941C22.6843 71.2881 17.6085 70.5681 17.6085 67.6882C17.6085 67.0042 17.8785 66.4102 18.3825 65.9602C19.8404 64.6463 22.9183 64.8623 23.2063 64.8803L28.5522 64.9343V57.7345H56.6134V65.7802L55.9834 66.1222C55.9474 66.1042 51.8255 63.4763 48.1716 63.4403C45.4537 63.3323 42.3938 64.5563 40.3778 66.5542C38.5599 68.3542 37.6419 70.6941 37.7139 73.322C37.7679 79.2079 42.9157 82.9338 47.8656 83.1677C52.1495 83.0778 55.8394 80.7378 55.8754 80.7198L56.5054 81.0618V89.4316H58.9713V70.6401L59.0793 70.5141C61.7432 67.7782 64.8751 66.2482 67.881 66.1942H67.899H67.917C72.0389 66.3922 74.6848 69.2901 74.5228 73.376C74.4328 75.752 73.2989 77.8939 71.3549 79.3879C69.699 80.6658 66.3511 81.6378 65.0011 81.8538V85.0037C66.3151 84.9137 70.437 84.5177 73.3349 82.9338C76.9348 80.9718 78.8247 76.8319 78.8247 73.754C78.8787 70.8741 77.7988 68.4082 75.5308 66.2122C73.6049 64.3583 71.1749 63.4583 67.863 63.3503C65.3971 63.2783 63.5792 63.9263 59.7273 66.2842L59.1153 65.9422L59.1513 57.7345H84.1346V90.3315H86.2405V57.7345H91.1724V54.3686H15.0885V57.7345H25.9782L25.9242 62.1803L25.5462 62.1983C24.8803 62.2163 24.1063 62.2163 23.3143 62.2163C18.5984 62.1803 12.1726 62.1263 11.8486 67.1482C11.8126 70.2621 15.5385 72.4401 19.0124 73.124C23.3143 73.988 28.2282 75.428 27.9942 79.0639C27.7782 84.3737 19.9664 85.3817 18.4364 85.3637C16.4745 85.3457 13.7026 84.9857 11.6686 83.4197C9.92269 82.0878 8.68073 79.8378 8.26674 78.9919L5.22483 80.0718ZM25.9422 70.9641L25.9242 71.3241H26.1762C26.1582 71.1261 26.0322 71.0001 25.9422 70.9641ZM49.4676 79.3879C49.4136 79.3879 49.3416 79.3879 49.2876 79.3879C46.5336 79.2619 42.2318 77.4439 42.3578 73.124C42.4838 68.4802 46.1737 66.7702 49.2696 66.7342C52.0055 66.6802 55.8754 68.9842 56.1094 69.4881L56.2174 69.7221L56.1094 69.8661V76.6159C56.1274 76.6879 56.1274 76.7779 56.1094 76.8499C55.9834 77.3179 54.3814 78.0199 53.4454 78.3979C52.5095 78.7759 50.7815 79.3879 49.4676 79.3879ZM49.3596 67.5262C49.3416 67.5262 49.3056 67.5262 49.2876 67.5262C46.4076 67.5622 43.2937 69.0742 43.1677 73.142C43.0417 77.3359 47.6856 78.4879 49.3236 78.5779C51.1595 78.6679 54.6154 77.0839 55.2994 76.5799V69.7941C54.6154 69.2901 51.6455 67.5262 49.3596 67.5262Z" fill="#5168BE"/>
<path d="M30.4404 94.5423C24.8426 94.5423 17.4448 93.2823 12.243 89.7184C9.11105 87.7205 7.05911 85.2725 5.88914 83.5626C5.06117 82.3566 3.8912 80.2867 4.0172 79.6927C4.0712 79.4407 4.25119 79.2247 4.48518 79.1527L8.22908 77.8387C8.58907 77.7127 8.96706 77.8747 9.12905 78.2167C9.14705 78.2527 10.461 81.0966 12.369 82.5546C14.1509 83.9226 16.6708 84.2466 18.4528 84.2646H18.4708C19.6228 84.2646 26.6785 83.3466 26.8585 79.0267C27.0025 76.8488 24.5186 75.3908 18.7948 74.2388C14.7449 73.4289 10.677 70.9269 10.731 67.129C10.731 67.111 10.731 67.111 10.731 67.093C11.109 61.0092 18.2728 61.0452 23.0067 61.0812C23.7986 61.0812 24.5366 61.0812 25.1846 61.0632C25.5806 61.0452 25.9226 61.3692 25.9226 61.7652C25.9406 62.1612 25.6166 62.5032 25.2206 62.5032C24.5366 62.5212 23.7806 62.5212 22.9887 62.5212C17.2288 62.4852 12.441 62.8092 12.153 67.165C12.135 70.099 15.7169 72.1509 19.0648 72.8169C23.4926 73.6989 28.5505 75.2108 28.2985 79.0807C28.0645 84.6245 20.0007 85.7045 18.4348 85.6865C16.4188 85.6685 13.5929 85.2905 11.487 83.6706C9.84903 82.4106 8.64306 80.3767 8.12108 79.3867L5.67315 80.2507C6.32113 81.6726 8.44507 85.5965 13.0529 88.5124L13.0709 88.5304C18.3448 92.1663 26.0846 93.2823 31.5744 93.1023C36.5423 92.9403 41.4741 92.0223 43.0761 91.6983L43.1841 88.5124C43.0401 88.5484 42.8961 88.6024 42.7161 88.6564C42.1221 88.8364 40.8801 89.1964 39.3142 89.5564C36.9023 90.1324 33.5184 90.7804 31.0524 90.6904C29.2525 90.7984 26.8405 90.3124 25.5446 90.0244C21.9987 89.2144 21.9267 88.8544 21.8727 88.4764C21.8007 88.0984 22.0347 87.7385 22.4127 87.6305C22.5567 87.5945 22.7007 87.5945 22.8267 87.6305C23.6366 87.5945 28.1185 86.6405 31.0344 83.9586C32.6184 82.5006 33.4464 80.8087 33.5004 78.9007C33.4104 74.4188 29.3065 72.7269 25.8506 72.0969C25.7426 72.0789 25.5806 72.0429 25.4366 71.9889C25.4546 71.9889 25.4726 72.0069 25.4906 72.0069C25.4006 71.9889 25.0766 71.9349 24.8066 71.8989C22.5567 71.5749 17.2828 70.8369 17.2828 67.687C17.3008 66.913 17.5888 66.2291 18.1648 65.7251C19.6947 64.3391 22.7547 64.5191 23.2226 64.5731L28.6585 64.6271C29.0545 64.6271 29.3785 64.9511 29.3785 65.3471C29.3785 65.7431 29.0365 66.0671 28.6585 66.0671L23.1866 66.0131C23.1686 66.0131 23.1507 66.0131 23.1327 66.0131C22.3407 65.9411 20.0727 65.9591 19.1368 66.8051C18.8668 67.039 18.7408 67.327 18.7408 67.705C18.7408 69.595 23.4746 70.261 25.0226 70.4769C25.6346 70.5669 25.8506 70.6029 26.0126 70.6569C26.0486 70.6569 26.0846 70.6749 26.1206 70.6749C31.7364 71.7189 34.8683 74.6348 34.9403 78.9007C34.9403 78.9187 34.9403 78.9187 34.9403 78.9367C34.7783 84.6605 29.0725 87.4685 25.4726 88.5484C27.2005 88.9624 29.4685 89.3584 30.9984 89.2684C31.0164 89.2684 31.0524 89.2684 31.0704 89.2684C35.2283 89.4304 42.7341 87.1985 43.5261 86.8925C43.5981 86.8385 43.7061 86.8025 43.7961 86.7845C44.1381 86.7305 44.462 86.9105 44.588 87.2345C44.624 87.3245 44.642 87.4325 44.642 87.5225L44.462 92.3283C44.444 92.6523 44.21 92.9403 43.9041 93.0123C43.8501 93.0303 37.7662 94.3623 31.5924 94.5603C31.2324 94.5423 30.8364 94.5423 30.4404 94.5423ZM43.2741 87.1985C43.2381 87.2885 43.2201 87.3785 43.2201 87.4865V87.4505C43.2201 87.3605 43.2381 87.2705 43.2741 87.1985ZM64.5855 86.1365C64.4055 86.1365 64.2255 86.0645 64.0815 85.9385C63.9375 85.7945 63.8655 85.6145 63.8655 85.4165V81.4926C63.8655 81.1146 64.1535 80.8087 64.5135 80.7727C64.5495 80.7727 64.5855 80.7727 64.6215 80.7727C65.2154 80.7007 68.8873 79.8547 70.6513 78.5047C72.3432 77.1908 73.2972 75.4088 73.3872 73.3389C73.5312 69.865 71.3713 67.507 67.8794 67.327C65.1614 67.363 62.6595 68.605 60.2116 71.1249C59.9416 71.4129 59.4736 71.4129 59.1856 71.1429C58.8976 70.8729 58.8976 70.4049 59.1676 70.117C61.8855 67.309 64.7475 65.9231 67.8614 65.8871C67.8794 65.8871 67.8974 65.8871 67.8974 65.8871C72.1992 66.1031 74.9712 69.109 74.8092 73.3929C74.7012 75.8588 73.5312 78.0727 71.5153 79.6387C70.3453 80.5387 68.5814 81.2046 67.3034 81.5826C66.7454 81.7626 65.9354 81.9786 65.2874 82.1046V84.6425C66.8354 84.5165 70.5253 84.0846 73.1532 82.6446C76.6451 80.7367 78.4811 76.7228 78.4811 73.7529C78.5351 70.9089 77.5091 68.587 75.2772 66.4451C73.4052 64.6451 71.0473 63.7631 67.8074 63.6731C65.3594 63.6011 63.9375 64.1051 60.1576 66.4271C59.8156 66.6431 59.3836 66.5351 59.1676 66.1931C58.9516 65.8511 59.0596 65.4191 59.4016 65.2031C63.1635 62.8992 64.9095 62.1612 67.8434 62.2512C71.4613 62.3592 74.1252 63.3672 76.2671 65.4191C78.7871 67.831 79.975 70.5669 79.903 73.7889C79.903 77.8027 77.4011 81.9786 73.8192 83.9406C70.1113 85.9745 64.7835 86.1545 64.5675 86.1545C64.6035 86.1365 64.5855 86.1365 64.5855 86.1365ZM65.1614 81.0606C65.2154 81.1506 65.2694 81.2406 65.2874 81.3486C65.2694 81.2406 65.2334 81.1506 65.1614 81.0606ZM47.8639 84.2826C47.8459 84.2826 47.8459 84.2826 47.8279 84.2826C42.3561 84.0486 36.6503 79.8907 36.5783 73.3389C36.4883 70.4229 37.5322 67.795 39.5662 65.7611C41.7981 63.5471 45.164 62.1972 48.1699 62.3232C52.1478 62.3592 56.1077 64.9691 56.2697 65.0771C56.5937 65.2931 56.6837 65.7431 56.4677 66.0671C56.2517 66.3911 55.8017 66.4811 55.4777 66.2651C55.4417 66.2471 51.7158 63.7811 48.1519 63.7631H48.1339C45.506 63.6551 42.5361 64.8431 40.5742 66.7871C38.8102 68.533 37.9282 70.7829 38.0002 73.3209C38.0542 79.0087 43.0401 82.6266 47.8459 82.8606C52.0398 82.7526 55.3337 80.6107 55.3697 80.5747C55.6937 80.3587 56.1437 80.4487 56.3597 80.7727C56.5757 81.0966 56.4857 81.5466 56.1617 81.7626C56.0357 81.8706 52.4898 84.1926 47.8639 84.2826C47.8819 84.2826 47.8819 84.2826 47.8639 84.2826Z" fill="#5168BE"/>
<path d="M55.7116 69.7356V76.7014C54.5956 77.5294 52.3637 78.8614 49.3038 78.9873C46.9998 78.8794 42.644 77.3314 42.752 73.1375C42.86 68.9436 46.0639 67.2337 49.3038 67.1797C52.2737 67.2517 55.0096 69.0336 55.7116 69.7356Z" fill="white"/>
<path d="M49.3043 79.8709C49.2863 79.8709 49.2683 79.8709 49.2683 79.8709C46.3344 79.7269 41.7265 77.7649 41.8705 73.1031C42.0145 68.1532 45.9564 66.3352 49.3043 66.2812C49.3223 66.2812 49.3223 66.2812 49.3403 66.2812C52.5622 66.3712 55.5141 68.2612 56.3601 69.1072C56.5221 69.2692 56.6301 69.5032 56.6301 69.7372V76.703C56.6301 76.9909 56.4861 77.2609 56.2701 77.4229C54.8481 78.4849 52.4722 79.7629 49.3583 79.8709C49.3223 79.8709 49.3223 79.8709 49.3043 79.8709ZM49.3043 68.0812C47.9903 68.0992 43.7964 68.5492 43.6704 73.1571C43.5624 76.9189 47.7743 77.9809 49.3223 78.0709C51.7162 77.9809 53.5881 77.0629 54.8301 76.217V70.1331C53.9481 69.4492 51.6982 68.1532 49.3043 68.0812Z" fill="#5168BE"/>
<path d="M96.2665 91.8971L96.2305 54.2422H119.828V58.7421H100.73L100.766 87.3792L119.828 87.3432V91.8431L96.2665 91.8971Z" fill="#5168BE"/>
<mask id="mask0_5583_4603" style="mask-type:luminance" maskUnits="userSpaceOnUse" x="107" y="52" width="37" height="42">
<path d="M143.999 52.7109H107.766V93.9298H143.999V52.7109Z" fill="white"/>
</mask>
<g mask="url(#mask0_5583_4603)">
<path d="M139.731 93.6426C136.293 93.6426 132.801 92.7426 129.633 90.9787C125.404 88.6208 122.182 84.8949 120.616 80.629H108.25V76.6691H123.586L123.982 78.145C125.008 81.9969 127.761 85.4168 131.559 87.5228C135.483 89.7007 140.019 90.2767 143.997 89.0707L145.149 92.8686C143.403 93.3906 141.585 93.6426 139.731 93.6426ZM141.189 83.9229C139.479 83.9229 137.643 83.5449 135.933 82.6629C132.567 80.917 130.623 77.5691 130.443 73.2672V73.1952V73.1232C130.533 69.0913 132.351 65.8694 135.555 64.0334C138.759 62.1975 142.791 62.1255 145.851 63.8175L143.925 67.2734C142.107 66.2654 139.479 66.3374 137.517 67.4714C136.149 68.2633 134.493 69.8833 134.385 73.1592C134.529 76.0391 135.663 78.055 137.751 79.153C140.055 80.341 142.845 80.035 143.889 79.369L146.031 82.6989C144.897 83.4369 143.133 83.9229 141.189 83.9229ZM123.514 69.5413H108.25V65.5814H120.688C122.56 60.9015 125.853 57.3016 130.281 55.1237C134.763 52.9098 140.001 52.4058 145.041 53.6657L144.069 57.4996C136.437 55.5737 127.077 58.6156 123.964 68.1553L123.514 69.5413Z" fill="#5168BE"/>
</g>
</g>
<defs>
<clipPath id="clip0_5583_4603">
<rect width="140" height="41.5428" fill="white" transform="translate(4 53)"/>
</clipPath>
</defs>
</svg>
