<svg width="148" height="148" viewBox="0 0 148 148" fill="none" xmlns="http://www.w3.org/2000/svg">
<rect width="148" height="148" fill="white"/>
<g clip-path="url(#clip0_5591_4642)">
<path d="M132.508 77.5502C132.276 79.2655 131.21 80.749 129.402 81.4444C126.527 82.557 123.653 80.9344 122.494 78.0138C122.077 77.0403 121.938 76.0204 122.03 75.0468L111.414 79.2191C110.904 80.1463 110.023 80.9344 108.818 81.398C106.546 82.2789 104.275 81.4907 102.884 79.6827L125.136 70.9209C125.832 70.6427 126.481 70.5963 126.991 70.55C128.984 70.55 130.746 71.7553 131.766 73.656L136.726 71.709C135.011 68.1857 131.441 65.775 127.269 65.775C122.216 65.775 117.997 69.3446 117.024 74.0733C116.004 69.3446 111.785 65.775 106.778 65.775C103.348 65.775 100.334 67.3976 98.3872 69.9473V66.3313H93.7977V61L87.9101 63.4107V74.166C87.0292 69.5764 82.7642 65.8677 77.6647 65.8677C72.3334 65.8677 67.9293 69.8546 67.2802 75.0005V73.7951C67.2802 69.0665 64.5914 65.7286 59.9555 65.7286C56.4322 65.7286 55.1805 67.4903 54.5315 68.6029V66.424H49.0147V74.1196C47.9948 69.391 43.7761 65.8677 38.7694 65.8677C33.5771 65.8677 29.3121 69.6228 28.4313 74.5369C28.4313 72.7752 28.014 71.1063 27.365 69.5764L16.007 74.0269L17.3978 77.5966L22.9145 75.4177C22.8218 77.9674 21.431 80.1927 18.7886 81.2126C15.0798 82.6497 11.4175 80.6099 9.98033 76.9939C8.5432 73.3779 9.79489 69.4837 13.55 68.0466C16.007 67.1194 18.4641 67.6757 20.2257 69.2056L25.8815 66.9803C23.6563 64.1524 20.1793 62.3444 16.2852 62.3444C9.47038 62.3444 4 67.8612 4 74.5832C4 81.3517 9.47038 86.8221 16.2388 86.8221C22.3119 86.8221 27.365 82.3716 28.3386 76.5303C28.4313 82.2325 33.0672 86.8221 38.8157 86.8221C43.8225 86.8221 48.0412 83.2988 49.0611 78.5701V86.0803H54.9951C54.9951 86.0803 54.9951 74.9077 54.9951 74.6296L43.498 79.1728C42.988 80.1463 42.1072 80.9808 40.8555 81.4444C38.5376 82.3252 36.266 81.4907 34.8752 79.6827C34.8752 79.6827 56.7104 71.1063 56.7567 71.0599C57.313 70.8281 57.8693 70.7354 58.3329 70.7354C61.439 70.7354 61.439 73.9342 61.439 75.325V86.0803H67.3266V77.6893C67.9756 82.8352 72.3798 86.8221 77.7111 86.8221C82.7178 86.8221 86.9365 83.2988 87.9564 78.5701V86.0803H93.844V74.7223L82.347 79.2191C81.837 80.1927 80.9562 80.9808 79.7509 81.398C77.4793 82.2789 75.2077 81.4907 73.8169 79.6827L98.3872 70.04C97.0892 71.8017 96.3011 73.9806 96.3011 76.2985C96.3011 82.0934 100.983 86.7757 106.778 86.7757C111.831 86.7757 116.05 83.206 117.024 78.4774C118.044 83.206 122.262 86.7757 127.269 86.7757C132.368 86.7757 136.587 83.1597 137.561 78.3383L132.508 77.5502ZM33.5308 76.1131C33.4381 73.9806 34.5507 72.0798 36.7296 71.2454C38.8621 70.4109 40.9946 71.0599 42.3854 72.6361L33.5308 76.1131ZM72.4725 76.1594C72.3797 74.0269 73.4924 72.0798 75.6712 71.2454C77.8501 70.4109 79.9827 71.1063 81.3734 72.6825L72.4725 76.1594ZM104.738 71.2454C106.917 70.4109 109.05 71.1063 110.441 72.6825L101.54 76.2058C101.447 74.0269 102.56 72.0798 104.738 71.2454Z" fill="#04589D"/>
<path d="M138.35 63.6409H137.516V63.3164H139.509V63.6409H138.675V65.8662H138.35V63.6409Z" fill="#04589D"/>
<path d="M139.879 63.3164H140.389L141.223 65.2635L142.011 63.3164H142.521V65.8662H142.197V63.78L141.316 65.8662H141.084L140.203 63.78V65.8662H139.879V63.3164Z" fill="#04589D"/>
</g>
<defs>
<clipPath id="clip0_5591_4642">
<rect width="140" height="26.3366" fill="white" transform="translate(4 61)"/>
</clipPath>
</defs>
</svg>
