<svg width="148" height="148" viewBox="0 0 148 148" fill="none" xmlns="http://www.w3.org/2000/svg">
<rect width="148" height="148" fill="white"/>
<g clip-path="url(#clip0_5585_4664)">
<mask id="mask0_5585_4664" style="mask-type:luminance" maskUnits="userSpaceOnUse" x="4" y="55" width="140" height="38">
<path d="M144.002 55.4961H4.41797V92.836H144.002V55.4961Z" fill="white"/>
</mask>
<g mask="url(#mask0_5585_4664)">
<path d="M7.09815 82.0742V89.7143H4.41797V69.8068C6.4549 69.6992 7.74139 69.6992 8.17022 69.6992C13.9594 69.6992 16.854 71.6362 16.854 75.5101C16.854 80.0296 14.281 82.2894 9.2423 82.2894C8.81347 82.1818 8.17022 82.1818 7.09815 82.0742ZM7.09815 72.1742V79.5992C8.27743 79.7068 8.81347 79.7068 8.92067 79.7068C12.2441 79.7068 13.9594 78.3079 13.9594 75.7253C13.9594 73.2503 12.1369 72.0666 8.59905 72.0666C8.27743 72.0666 7.74139 72.1742 7.09815 72.1742Z" fill="black"/>
<path d="M30.5771 82.7225H20.0708C20.0708 84.4442 20.4996 85.7356 21.4645 86.704C22.3222 87.5649 23.3942 87.8877 24.6807 87.8877C26.1816 87.8877 27.3609 87.4573 28.433 86.5964L29.505 88.4258C29.0762 88.8561 28.5401 89.179 27.6825 89.5018C26.6104 89.9322 25.5384 90.0399 24.2519 90.0399C22.4293 90.0399 20.8212 89.3942 19.5347 88.2106C18.1411 86.8116 17.3906 84.9823 17.3906 82.6149C17.3906 80.2476 18.1411 78.3106 19.5347 76.8041C20.8212 75.5128 22.4293 74.8672 24.1447 74.8672C26.1816 74.8672 27.8969 75.4052 29.0762 76.5889C30.2555 77.665 30.7915 79.1715 30.7915 81.1084C30.7915 81.6464 30.6843 82.1845 30.5771 82.7225ZM24.2519 77.0193C23.0726 77.0193 22.1077 77.3422 21.3573 78.0954C20.6068 78.8486 20.178 79.7095 20.0708 80.7856H28.2185C28.2185 79.7095 27.8969 78.8486 27.2537 78.203C26.5033 77.4498 25.5384 77.0193 24.2519 77.0193Z" fill="black"/>
<path d="M34.3286 77.233H32.6133V75.1885H34.3286V72.1755L36.9016 71.207V75.2961H40.8682V77.3406H36.9016V84.5503C36.9016 85.734 37.116 86.5949 37.5448 87.1329C37.9736 87.671 38.6169 87.8862 39.5817 87.8862C40.225 87.8862 40.9754 87.671 41.6187 87.3481L42.0475 89.608C40.9754 89.9307 39.7962 90.0383 38.5097 90.0383C37.3304 90.0383 36.3655 89.608 35.6151 88.7471C34.8646 87.8862 34.4358 86.8101 34.4358 85.5188V77.233H34.3286Z" fill="black"/>
<path d="M52.1252 77.665C51.5892 77.2345 51.0531 77.0193 50.4098 77.0193C49.445 77.0193 48.6946 77.4498 48.0513 78.3106C47.4081 79.1715 46.9792 80.14 46.9792 81.3236V89.717H44.4062V75.19H46.9792V77.4498C47.9441 75.728 49.3378 74.8672 51.1603 74.8672C51.5892 74.8672 52.2324 74.9748 53.1973 75.0824L52.1252 77.665Z" fill="black"/>
<path d="M53.9492 82.3997C53.9492 80.14 54.5925 78.3106 55.7717 76.9117C56.951 75.5128 58.5592 74.8672 60.596 74.8672C62.633 74.8672 64.3483 75.5128 65.4204 76.9117C66.5997 78.203 67.1357 80.14 67.1357 82.3997C67.1357 84.7671 66.4925 86.5964 65.3132 87.9953C64.1339 89.3942 62.5258 90.0399 60.4889 90.0399C58.4519 90.0399 56.8438 89.3942 55.6646 87.9953C54.5925 86.5964 53.9492 84.7671 53.9492 82.3997ZM56.7366 82.3997C56.7366 86.0583 58.0231 87.8877 60.596 87.8877C61.7754 87.8877 62.7402 87.3497 63.3835 86.3812C64.0267 85.4127 64.4555 84.1214 64.4555 82.3997C64.4555 78.741 63.169 77.0193 60.596 77.0193C59.4168 77.0193 58.4519 77.4498 57.8087 78.4182C57.0582 79.3867 56.7366 80.7856 56.7366 82.3997Z" fill="black"/>
<path d="M77.6387 71.5314C77.1026 71.3162 76.5666 71.2086 76.1377 71.2086C75.3873 71.2086 74.7441 71.5314 74.208 72.0695C73.672 72.7151 73.4576 73.3607 73.4576 74.3292C73.4576 74.5445 73.4576 74.8673 73.5647 75.0825H76.4593V77.2346H73.5647V89.6095H70.9918V77.3423H68.8477V75.1901H70.9918C70.9918 73.3607 71.4206 71.8543 72.3855 70.7781C73.3504 69.7021 74.5296 69.1641 76.0306 69.1641C76.781 69.1641 77.6387 69.2717 78.4963 69.5945L77.6387 71.5314Z" fill="black"/>
<path d="M88.1464 88.1029C87.0741 89.3942 85.466 90.0399 83.4288 90.0399C82.2498 90.0399 81.2849 89.6094 80.4275 88.8561C79.5695 87.9953 79.1406 87.0268 79.1406 85.7356C79.1406 84.229 79.7843 83.0454 81.0707 81.9693C82.3572 81.0008 84.072 80.4628 86.0018 80.4628C86.5383 80.4628 87.1815 80.5704 87.8248 80.7856C87.8248 78.4182 86.7525 77.2345 84.6086 77.2345C83.0005 77.2345 81.714 77.665 80.8558 78.5258L79.7842 76.3737C80.2126 75.9432 80.9633 75.6204 81.8207 75.2976C82.6788 74.9748 83.5363 74.8672 84.287 74.8672C86.4308 74.8672 87.9315 75.2976 88.8964 76.2661C89.8612 77.2345 90.2903 78.741 90.2903 80.8932V86.1659C90.2903 87.4573 90.6119 88.3182 91.4693 88.7485V90.0399C90.3978 90.0399 89.6471 89.9322 89.1113 89.6094C88.7897 89.2866 88.3606 88.7485 88.1464 88.1029ZM87.9315 82.6149C87.0741 82.3997 86.5383 82.2921 86.2167 82.2921C84.9302 82.2921 83.8579 82.6149 83.0005 83.2605C82.1423 83.9062 81.714 84.6595 81.714 85.628C81.714 87.1344 82.5714 87.8877 84.3937 87.8877C85.6801 87.8877 86.8599 87.2421 87.9315 86.0583V82.6149Z" fill="black"/>
<path d="M105.513 76.3719L104.227 78.0937C103.905 77.8785 103.476 77.5556 102.833 77.3404C102.19 77.1252 101.546 77.0176 100.903 77.0176C99.5092 77.0176 98.3301 77.5556 97.5794 78.524C96.722 79.4925 96.293 80.8915 96.293 82.6132C96.293 84.3349 96.722 85.6262 97.5794 86.487C98.4376 87.3479 99.6166 87.886 101.117 87.886C102.297 87.886 103.476 87.4555 104.655 86.487L105.62 88.6392C104.227 89.5 102.511 89.9305 100.474 89.9305C98.4376 89.9305 96.8295 89.2848 95.543 87.886C94.2565 86.5946 93.6133 84.7653 93.6133 82.5056C93.6133 80.1382 94.2565 78.3088 95.6497 76.91C97.0437 75.5111 98.8659 74.7578 101.225 74.7578C101.975 74.7578 102.833 74.8654 103.69 75.1883C104.441 75.7262 105.084 75.9415 105.513 76.3719Z" fill="black"/>
<path d="M131.028 56.3585C131.028 63.9986 143.786 70.8855 143.786 80.7854C143.786 87.2419 138.64 92.1918 131.349 92.6223C131.349 92.6223 130.706 92.6223 130.17 92.6223C129.634 92.6223 128.991 92.6223 128.991 92.6223C121.916 92.0842 116.555 87.2419 116.555 80.7854C116.555 70.8855 129.42 63.9986 129.42 56.3585C129.527 55.4976 131.028 55.39 131.028 56.3585Z" fill="#8E744A"/>
<path d="M129.314 56.357C129.314 59.908 126.527 63.2439 123.525 66.7949C120.095 70.9916 116.449 75.4035 116.449 80.7839C116.449 87.1327 121.703 92.1903 128.992 92.7283L130.172 92.8359L131.351 92.7283C138.749 92.2979 143.895 87.3479 143.895 80.7839C143.895 75.4035 140.249 71.0992 136.819 66.7949C133.817 63.2439 131.03 59.8004 131.03 56.357C131.03 56.0341 130.922 55.8189 130.708 55.7113C130.494 55.6037 130.279 55.4961 130.065 55.4961C129.851 55.4961 129.314 55.8189 129.314 56.357ZM129.1 92.5131C122.024 91.9751 116.771 87.1327 116.771 80.8915C116.771 75.6187 120.309 71.3145 123.74 67.1177C126.741 63.4591 129.529 60.0156 129.529 56.4646C129.529 56.0341 129.851 55.9265 130.172 55.9265C130.279 55.9265 130.494 55.9265 130.601 56.0341C130.708 56.1417 130.815 56.2493 130.815 56.4646C130.815 60.1232 133.603 63.5666 136.605 67.1177C140.035 71.3145 143.573 75.6187 143.573 80.8915C143.573 87.3479 138.534 92.1903 131.351 92.5131H130.172H129.1Z" fill="#020203"/>
<path d="M127.492 69.8086C128.243 69.8086 129.851 69.8086 132.102 69.8086C133.067 69.8086 134.139 69.8086 135.104 69.9162C137.141 70.1314 138.963 71.5303 139.821 73.3596C140.679 75.189 140.357 77.9868 139.285 79.4933C137.892 81.5378 136.39 82.1835 134.568 82.5063C133.281 82.7215 132.209 82.6139 130.923 82.6139C130.173 86.3801 129.422 89.8236 129.422 89.8236H123.74L127.063 74.8661H132.317L131.566 79.1704C133.067 79.1704 134.139 77.9868 134.246 76.4802C134.246 75.727 134.246 74.6509 133.496 74.2205C132.96 73.8977 130.601 74.0053 130.065 74.0053H127.492C126.206 74.0053 125.455 73.4672 124.812 72.3912C124.384 71.6379 123.847 70.777 123.633 69.8086C124.812 69.9162 126.956 69.8086 127.492 69.8086Z" fill="white"/>
<path d="M127.494 69.6992H124.492H123.312L123.42 69.9144C123.634 70.8829 124.171 71.8514 124.599 72.497C125.242 73.4655 125.993 74.1112 127.387 74.1112H129.96H130.281C131.031 74.1112 132.961 74.1112 133.283 74.3264C133.712 74.5416 133.926 75.1872 133.926 76.0481C133.926 76.1557 133.926 76.2633 133.926 76.4785C133.819 77.985 132.961 78.9535 131.675 79.0611C131.675 78.7383 132.425 74.8644 132.425 74.8644H126.744L123.42 90.1447H129.423C129.423 90.1447 130.817 83.2578 130.925 82.935H131.568C132.64 82.935 133.498 82.935 134.463 82.8274C136.606 82.5045 138 81.6437 139.287 79.7068C140.466 77.985 140.68 75.1872 139.823 73.3579C138.858 71.421 136.928 70.0221 134.891 69.8068C133.926 69.6992 132.854 69.6992 131.89 69.6992H128.03H127.494ZM124.492 70.0221H128.137H131.996C132.961 70.0221 134.033 70.0221 134.998 70.1297C136.928 70.3449 138.75 71.6362 139.608 73.4655C140.466 75.1872 140.252 77.8774 139.072 79.4916C137.785 81.3209 136.499 82.1818 134.463 82.5045C133.498 82.6121 132.64 82.6121 131.568 82.6121H130.603V82.7197C130.603 82.7197 129.209 89.4991 129.102 89.8219C128.888 89.8219 124.171 89.8219 123.742 89.8219C123.849 89.3915 126.958 75.5101 126.958 75.2948C127.172 75.2948 131.568 75.2948 131.996 75.2948C131.89 75.6177 131.246 79.5992 131.246 79.5992H131.46C132.961 79.5992 134.141 78.4155 134.248 76.6938C134.355 75.4024 134.033 74.6492 133.498 74.2188C133.069 74.0036 131.675 74.0036 130.281 74.0036H129.96H127.387C126.1 74.0036 125.457 73.3579 124.814 72.497C124.385 71.8514 123.956 71.0982 123.742 70.2373H124.492V70.0221Z" fill="#020203"/>
</g>
</g>
<defs>
<clipPath id="clip0_5585_4664">
<rect width="140" height="37.8378" fill="white" transform="translate(4 55)"/>
</clipPath>
</defs>
</svg>
