<svg width="148" height="148" viewBox="0 0 148 148" fill="none" xmlns="http://www.w3.org/2000/svg">
<rect width="148" height="148" fill="white"/>
<g clip-path="url(#clip0_5857_5035)">
<path d="M25.5805 82.727C26.8379 81.4611 27.8163 79.9414 28.451 78.2691C29.0855 76.5959 29.3628 74.8073 29.2634 73.0195L22.6005 79.7276L15.9375 86.4358C17.7132 86.535 19.4898 86.2567 21.1517 85.6178C22.8136 84.9789 24.3222 83.9938 25.5796 82.7279L25.5805 82.727Z" fill="#101010"/>
<path d="M19.0629 76.165L20.3498 72.4045C20.6625 71.4907 21.1774 70.6609 21.8566 69.9779L26.2947 65.5098C27.4973 66.9411 28.3704 68.6229 28.8525 70.4344L25.5808 73.7282C24.9024 74.4112 24.0782 74.9305 23.1705 75.2453L19.4354 76.5409L18.1485 80.3014C17.8358 81.2152 17.3209 82.045 16.6416 82.728L13.37 86.0219C11.5715 85.5365 9.90109 84.6575 8.47852 83.4467L12.9165 78.9786C13.595 78.2956 14.42 77.7763 15.3269 77.4615L19.062 76.1659L19.0629 76.165Z" fill="#101010"/>
<path d="M14.2213 71.2896L17.9564 69.994C18.8641 69.6792 19.6883 69.1607 20.3667 68.4769L24.8048 64.0087C23.383 62.798 21.7126 61.9189 19.9133 61.4336L16.6417 64.7274C15.9633 65.4104 15.4475 66.2403 15.1348 67.1541L13.8479 70.9145L10.1128 72.2102C9.20508 72.525 8.38086 73.0434 7.70243 73.7273L4.43164 77.0211C4.9137 78.8318 5.78681 80.5135 6.98944 81.9457L11.4275 77.4776C12.1059 76.7945 12.6217 75.9639 12.9343 75.0509L14.2213 71.2905V71.2896Z" fill="#101010"/>
<path d="M7.70239 64.7275C8.95982 63.4616 10.4692 62.4765 12.1303 61.8376C13.7922 61.1986 15.5688 60.9203 17.3454 61.0196L10.6824 67.7277L4.01948 74.4359C3.92088 72.6481 4.19731 70.8595 4.83191 69.1863C5.46652 67.5131 6.44497 65.9943 7.70239 64.7283V64.7275Z" fill="#101010"/>
<path d="M128.283 82.213H131.822V74.4519L139.065 82.1961H144L135.377 73.1639L143.369 65.2188H138.219L131.822 72.0932V65.2349H128.283V82.213Z" fill="#101010"/>
<path d="M125.359 65.2363H121.82V82.2145H125.359V65.2363Z" fill="#101010"/>
<path d="M103.979 65.2363L109.544 82.2137H114.977L120.542 65.2363H116.788L112.269 79.3203L107.733 65.2363H103.979Z" fill="#101010"/>
<path d="M96.7171 65.2363H89.2734V82.2145H96.6834C101.751 82.2145 104.043 79.1532 104.043 73.7839C104.043 68.4148 101.784 65.2363 96.7162 65.2363H96.7171ZM96.7171 79.3373H92.8125V68.0966H96.7171C99.4416 68.0966 100.472 69.987 100.472 73.7839C100.472 77.5809 99.4248 79.3373 96.7171 79.3373Z" fill="#101010"/>
<path d="M71.498 82.2145H74.9535V67.9294L81.4821 82.2137H86.4335V65.2363H82.978V78.0824L77.1799 65.2363H71.498V82.2145Z" fill="#101010"/>
<path d="M37.6703 76.1076C37.5371 80.8243 40.5441 82.4975 45.5123 82.4975C49.7159 82.4975 52.9219 80.9583 52.9219 76.8441C52.9219 73.1642 50.1805 72.4786 47.1405 72.1774L44.05 71.8932C42.1892 71.726 41.5251 71.1575 41.5251 69.7524C41.5251 68.0801 42.6881 67.2935 45.1305 67.2935C47.5728 67.2935 49.035 68.1463 49.0679 70.5721H52.7728C52.7728 66.641 50.9455 64.7676 45.0639 64.7676C40.3452 64.7676 37.7209 66.557 37.7209 70.0197C37.7209 73.2482 39.8969 74.3852 42.8879 74.6863L46.2935 75.0207C48.719 75.2718 49.2179 75.9404 49.2179 77.1783C49.2179 79.2359 48.0549 79.8545 45.5131 79.8545C42.0738 79.8545 41.5259 78.1321 41.5588 76.1076H37.6711H37.6703Z" fill="#101010"/>
<path d="M64.5855 65.2363H58.8709L53.1055 82.2137H56.7437L58.0727 78.2996H65.4159L66.7282 82.2137H70.3832L64.5855 65.2363ZM59.0868 75.3392L61.7614 67.5111L64.4027 75.3392H59.0868Z" fill="#101010"/>
</g>
<defs>
<clipPath id="clip0_5857_5035">
<rect width="140" height="25.4545" fill="white" transform="translate(4 61)"/>
</clipPath>
</defs>
</svg>
