<svg width="495" height="93" viewBox="0 0 495 93" fill="none" xmlns="http://www.w3.org/2000/svg">
<path d="M458.956 59.1079C458.128 65.2339 454.32 70.5321 447.863 73.0157C437.597 76.9893 427.332 71.1944 423.193 60.7636C421.703 57.2867 421.206 53.6442 421.537 50.1672L383.622 65.0684C381.801 68.3797 378.655 71.1944 374.35 72.8501C366.237 75.9959 358.124 73.1812 353.157 66.7241L432.63 35.4316C435.114 34.4382 437.432 34.2727 439.253 34.1071C446.372 34.1071 452.664 38.4119 456.307 45.2002L474.022 38.2463C467.896 25.6631 455.148 17.0535 440.246 17.0535C422.199 17.0535 407.133 29.8023 403.656 46.6903C400.013 29.8023 384.947 17.0535 367.065 17.0535C354.813 17.0535 344.051 22.8484 337.097 31.9547V19.0404H320.706V0L299.679 8.60956V47.0214C296.533 30.6302 281.301 17.3847 263.088 17.3847C244.048 17.3847 228.319 31.6236 226.001 50.0017V45.6969C226.001 28.8089 216.398 16.888 199.841 16.888C187.258 16.888 182.788 23.1796 180.47 27.1532V19.3715H160.767V46.8559C157.124 29.9679 142.058 17.3847 124.176 17.3847C105.633 17.3847 90.4003 30.7957 87.2545 48.346C87.2545 42.0544 85.7644 36.0939 83.4465 30.6302L42.8822 46.5247L47.8493 59.2735L67.5519 51.4918C67.2208 60.598 62.2537 68.5453 52.8163 72.1878C39.5709 77.3204 26.4909 70.0354 21.3583 57.1211C16.2257 44.2068 20.6961 30.299 34.1071 25.1664C42.8822 21.855 51.6573 23.8418 57.9489 29.3056L78.1483 21.3583C70.201 11.2587 57.7834 4.80148 43.8756 4.80148C19.5371 4.80148 0 24.5041 0 48.5115C0 72.6845 19.5371 92.2216 43.7101 92.2216C65.3995 92.2216 83.4465 76.327 86.9234 55.4654C87.2545 75.8303 103.811 92.2216 124.342 92.2216C142.223 92.2216 157.29 79.6384 160.932 62.7504V89.5725H182.125C182.125 89.5725 182.125 49.6705 182.125 48.6771L141.064 64.9028C139.243 68.3798 136.097 71.36 131.627 73.0157C123.348 76.1615 115.236 73.1812 110.269 66.7241C110.269 66.7241 188.251 36.0939 188.417 35.9283C190.404 35.1005 192.39 34.7694 194.046 34.7694C205.139 34.7694 205.139 46.1936 205.139 51.1606V89.5725H226.166V59.6046C228.484 77.9827 244.213 92.2216 263.254 92.2216C281.135 92.2216 296.202 79.6384 299.844 62.7504V89.5725H320.872V49.0082L279.811 65.0684C277.989 68.5453 274.844 71.36 270.539 72.8501C262.426 75.9959 254.313 73.1812 249.346 66.7241L337.097 32.2858C332.461 38.5774 329.647 46.3591 329.647 54.6376C329.647 75.3336 346.369 92.056 367.065 92.056C385.112 92.056 400.179 79.3073 403.656 62.4193C407.298 79.3073 422.365 92.056 440.246 92.056C458.459 92.056 473.526 79.1417 477.003 61.9226L458.956 59.1079ZM105.467 53.9753C105.136 46.3592 109.11 39.5708 116.891 36.5906C124.507 33.6104 132.124 35.9283 137.091 41.5577L105.467 53.9753ZM244.545 54.1409C244.213 46.5247 248.187 39.5708 255.969 36.5906C263.75 33.6104 271.367 36.0939 276.334 41.7232L244.545 54.1409ZM359.78 36.5906C367.562 33.6104 375.178 36.0939 380.145 41.7232L348.356 54.3064C348.025 46.5247 351.998 39.5708 359.78 36.5906Z" fill="white"/>
<path d="M479.816 9.44023H476.836V8.28125H483.955V9.44023H480.975V17.3875H479.816V9.44023Z" fill="white"/>
<path d="M485.281 8.28125H487.103L490.083 15.2351L492.897 8.28125H494.719V17.3875H493.56V9.93693L490.414 17.3875H489.586L486.44 9.93693V17.3875H485.281V8.28125Z" fill="white"/>
</svg>
