<svg width="425" height="33" viewBox="0 0 425 33" fill="none" xmlns="http://www.w3.org/2000/svg">
<path d="M15.613 32.294C12.897 32.294 10.391 31.664 8.09502 30.404C5.82702 29.116 4.02102 27.338 2.67702 25.07C1.36102 22.774 0.703017 20.198 0.703017 17.342C0.703017 14.486 1.36102 11.924 2.67702 9.656C4.02102 7.388 5.82702 5.624 8.09502 4.364C10.391 3.076 12.897 2.432 15.613 2.432C18.357 2.432 20.863 3.076 23.131 4.364C25.427 5.624 27.233 7.388 28.549 9.656C29.865 11.924 30.523 14.486 30.523 17.342C30.523 20.198 29.865 22.774 28.549 25.07C27.233 27.338 25.427 29.116 23.131 30.404C20.863 31.664 18.357 32.294 15.613 32.294ZM15.613 28.136C17.545 28.136 19.267 27.702 20.779 26.834C22.291 25.938 23.467 24.678 24.307 23.054C25.175 21.402 25.609 19.498 25.609 17.342C25.609 15.186 25.175 13.296 24.307 11.672C23.467 10.048 22.291 8.802 20.779 7.934C19.267 7.066 17.545 6.632 15.613 6.632C13.681 6.632 11.959 7.066 10.447 7.934C8.93502 8.802 7.74502 10.048 6.87702 11.672C6.03702 13.296 5.61702 15.186 5.61702 17.342C5.61702 19.498 6.03702 21.402 6.87702 23.054C7.74502 24.678 8.93502 25.938 10.447 26.834C11.959 27.702 13.681 28.136 15.613 28.136ZM58.2926 8.858V32H53.5046V29.27C52.7486 30.222 51.7546 30.978 50.5226 31.538C49.3186 32.07 48.0306 32.336 46.6586 32.336C44.8386 32.336 43.2006 31.958 41.7446 31.202C40.3166 30.446 39.1826 29.326 38.3426 27.842C37.5306 26.358 37.1246 24.566 37.1246 22.466V8.858H41.8706V21.752C41.8706 23.824 42.3886 25.42 43.4246 26.54C44.4606 27.632 45.8746 28.178 47.6666 28.178C49.4586 28.178 50.8726 27.632 51.9086 26.54C52.9726 25.42 53.5046 23.824 53.5046 21.752V8.858H58.2926ZM71.498 12.218C72.198 11.042 73.122 10.132 74.27 9.488C75.446 8.816 76.832 8.48 78.428 8.48V13.436H77.21C75.334 13.436 73.906 13.912 72.926 14.864C71.974 15.816 71.498 17.468 71.498 19.82V32H66.71V8.858H71.498V12.218ZM119.065 11.21C118.309 9.754 117.259 8.662 115.915 7.934C114.571 7.178 113.017 6.8 111.253 6.8C109.321 6.8 107.599 7.234 106.087 8.102C104.575 8.97 103.385 10.202 102.517 11.798C101.677 13.394 101.257 15.242 101.257 17.342C101.257 19.442 101.677 21.304 102.517 22.928C103.385 24.524 104.575 25.756 106.087 26.624C107.599 27.492 109.321 27.926 111.253 27.926C113.857 27.926 115.971 27.198 117.595 25.742C119.219 24.286 120.213 22.312 120.577 19.82H109.615V15.998H125.701V19.736C125.393 22.004 124.581 24.09 123.265 25.994C121.977 27.898 120.283 29.424 118.183 30.572C116.111 31.692 113.801 32.252 111.253 32.252C108.509 32.252 106.003 31.622 103.735 30.362C101.467 29.074 99.6613 27.296 98.3173 25.028C97.0013 22.76 96.3433 20.198 96.3433 17.342C96.3433 14.486 97.0013 11.924 98.3173 9.656C99.6613 7.388 101.467 5.624 103.735 4.364C106.031 3.076 108.537 2.432 111.253 2.432C114.361 2.432 117.119 3.202 119.527 4.742C121.963 6.254 123.727 8.41 124.819 11.21H119.065ZM137.312 0.92V32H132.524V0.92H137.312ZM155.736 32.378C153.552 32.378 151.578 31.888 149.814 30.908C148.05 29.9 146.664 28.5 145.656 26.708C144.648 24.888 144.144 22.788 144.144 20.408C144.144 18.056 144.662 15.97 145.698 14.15C146.734 12.33 148.148 10.93 149.94 9.95C151.732 8.97 153.734 8.48 155.946 8.48C158.158 8.48 160.16 8.97 161.952 9.95C163.744 10.93 165.158 12.33 166.194 14.15C167.23 15.97 167.748 18.056 167.748 20.408C167.748 22.76 167.216 24.846 166.152 26.666C165.088 28.486 163.632 29.9 161.784 30.908C159.964 31.888 157.948 32.378 155.736 32.378ZM155.736 28.22C156.968 28.22 158.116 27.926 159.18 27.338C160.272 26.75 161.154 25.868 161.826 24.692C162.498 23.516 162.834 22.088 162.834 20.408C162.834 18.728 162.512 17.314 161.868 16.166C161.224 14.99 160.37 14.108 159.306 13.52C158.242 12.932 157.094 12.638 155.862 12.638C154.63 12.638 153.482 12.932 152.418 13.52C151.382 14.108 150.556 14.99 149.94 16.166C149.324 17.314 149.016 18.728 149.016 20.408C149.016 22.9 149.646 24.832 150.906 26.204C152.194 27.548 153.804 28.22 155.736 28.22ZM179.369 12.302C180.181 11.182 181.287 10.272 182.687 9.572C184.115 8.844 185.697 8.48 187.433 8.48C189.477 8.48 191.325 8.97 192.977 9.95C194.629 10.93 195.931 12.33 196.883 14.15C197.835 15.942 198.311 18 198.311 20.324C198.311 22.648 197.835 24.734 196.883 26.582C195.931 28.402 194.615 29.83 192.935 30.866C191.283 31.874 189.449 32.378 187.433 32.378C185.641 32.378 184.045 32.028 182.645 31.328C181.273 30.628 180.181 29.732 179.369 28.64V32H174.581V0.92H179.369V12.302ZM193.439 20.324C193.439 18.728 193.103 17.356 192.431 16.208C191.787 15.032 190.919 14.15 189.827 13.562C188.763 12.946 187.615 12.638 186.383 12.638C185.179 12.638 184.031 12.946 182.939 13.562C181.875 14.178 181.007 15.074 180.335 16.25C179.691 17.426 179.369 18.812 179.369 20.408C179.369 22.004 179.691 23.404 180.335 24.608C181.007 25.784 181.875 26.68 182.939 27.296C184.031 27.912 185.179 28.22 186.383 28.22C187.615 28.22 188.763 27.912 189.827 27.296C190.919 26.652 191.787 25.728 192.431 24.524C193.103 23.32 193.439 21.92 193.439 20.324ZM203.55 20.324C203.55 18 204.026 15.942 204.978 14.15C205.958 12.358 207.274 10.972 208.926 9.992C210.606 8.984 212.454 8.48 214.47 8.48C216.29 8.48 217.872 8.844 219.216 9.572C220.588 10.272 221.68 11.154 222.492 12.218V8.858H227.322V32H222.492V28.556C221.68 29.648 220.574 30.558 219.174 31.286C217.774 32.014 216.178 32.378 214.386 32.378C212.398 32.378 210.578 31.874 208.926 30.866C207.274 29.83 205.958 28.402 204.978 26.582C204.026 24.734 203.55 22.648 203.55 20.324ZM222.492 20.408C222.492 18.812 222.156 17.426 221.484 16.25C220.84 15.074 219.986 14.178 218.922 13.562C217.858 12.946 216.71 12.638 215.478 12.638C214.246 12.638 213.098 12.946 212.034 13.562C210.97 14.15 210.102 15.032 209.43 16.208C208.786 17.356 208.464 18.728 208.464 20.324C208.464 21.92 208.786 23.32 209.43 24.524C210.102 25.728 210.97 26.652 212.034 27.296C213.126 27.912 214.274 28.22 215.478 28.22C216.71 28.22 217.858 27.912 218.922 27.296C219.986 26.68 220.84 25.784 221.484 24.608C222.156 23.404 222.492 22.004 222.492 20.408ZM240.499 0.92V32H235.711V0.92H240.499ZM282.307 11.504C282.307 12.988 281.957 14.388 281.257 15.704C280.557 17.02 279.437 18.098 277.897 18.938C276.357 19.75 274.383 20.156 271.975 20.156H266.683V32H261.895V2.81H271.975C274.215 2.81 276.105 3.202 277.645 3.986C279.213 4.742 280.375 5.778 281.131 7.094C281.915 8.41 282.307 9.88 282.307 11.504ZM271.975 16.25C273.795 16.25 275.153 15.844 276.049 15.032C276.945 14.192 277.393 13.016 277.393 11.504C277.393 8.312 275.587 6.716 271.975 6.716H266.683V16.25H271.975ZM287.378 20.324C287.378 18 287.854 15.942 288.806 14.15C289.786 12.358 291.102 10.972 292.754 9.992C294.434 8.984 296.282 8.48 298.298 8.48C300.118 8.48 301.7 8.844 303.044 9.572C304.416 10.272 305.508 11.154 306.32 12.218V8.858H311.15V32H306.32V28.556C305.508 29.648 304.402 30.558 303.002 31.286C301.602 32.014 300.006 32.378 298.214 32.378C296.226 32.378 294.406 31.874 292.754 30.866C291.102 29.83 289.786 28.402 288.806 26.582C287.854 24.734 287.378 22.648 287.378 20.324ZM306.32 20.408C306.32 18.812 305.984 17.426 305.312 16.25C304.668 15.074 303.814 14.178 302.75 13.562C301.686 12.946 300.538 12.638 299.306 12.638C298.074 12.638 296.926 12.946 295.862 13.562C294.798 14.15 293.93 15.032 293.258 16.208C292.614 17.356 292.292 18.728 292.292 20.324C292.292 21.92 292.614 23.32 293.258 24.524C293.93 25.728 294.798 26.652 295.862 27.296C296.954 27.912 298.102 28.22 299.306 28.22C300.538 28.22 301.686 27.912 302.75 27.296C303.814 26.68 304.668 25.784 305.312 24.608C305.984 23.404 306.32 22.004 306.32 20.408ZM324.326 12.218C325.026 11.042 325.95 10.132 327.098 9.488C328.274 8.816 329.66 8.48 331.256 8.48V13.436H330.038C328.162 13.436 326.734 13.912 325.754 14.864C324.802 15.816 324.326 17.468 324.326 19.82V32H319.538V8.858H324.326V12.218ZM343.344 12.764V25.574C343.344 26.442 343.54 27.072 343.932 27.464C344.352 27.828 345.052 28.01 346.032 28.01H348.972V32H345.192C343.036 32 341.384 31.496 340.236 30.488C339.088 29.48 338.514 27.842 338.514 25.574V12.764H335.784V8.858H338.514V3.104H343.344V8.858H348.972V12.764H343.344ZM367.161 8.48C368.981 8.48 370.605 8.858 372.033 9.614C373.489 10.37 374.623 11.49 375.435 12.974C376.247 14.458 376.653 16.25 376.653 18.35V32H371.907V19.064C371.907 16.992 371.389 15.41 370.353 14.318C369.317 13.198 367.903 12.638 366.111 12.638C364.319 12.638 362.891 13.198 361.827 14.318C360.791 15.41 360.273 16.992 360.273 19.064V32H355.485V8.858H360.273V11.504C361.057 10.552 362.051 9.81 363.255 9.278C364.487 8.746 365.789 8.48 367.161 8.48ZM406.07 19.862C406.07 20.73 406.014 21.514 405.902 22.214H388.22C388.36 24.062 389.046 25.546 390.278 26.666C391.51 27.786 393.022 28.346 394.814 28.346C397.39 28.346 399.21 27.268 400.274 25.112H405.44C404.74 27.24 403.466 28.99 401.618 30.362C399.798 31.706 397.53 32.378 394.814 32.378C392.602 32.378 390.614 31.888 388.85 30.908C387.114 29.9 385.742 28.5 384.734 26.708C383.754 24.888 383.264 22.788 383.264 20.408C383.264 18.028 383.74 15.942 384.692 14.15C385.672 12.33 387.03 10.93 388.766 9.95C390.53 8.97 392.546 8.48 394.814 8.48C396.998 8.48 398.944 8.956 400.652 9.908C402.36 10.86 403.69 12.204 404.642 13.94C405.594 15.648 406.07 17.622 406.07 19.862ZM401.072 18.35C401.044 16.586 400.414 15.172 399.182 14.108C397.95 13.044 396.424 12.512 394.604 12.512C392.952 12.512 391.538 13.044 390.362 14.108C389.186 15.144 388.486 16.558 388.262 18.35H401.072ZM417.67 12.218C418.37 11.042 419.294 10.132 420.442 9.488C421.618 8.816 423.004 8.48 424.6 8.48V13.436H423.382C421.506 13.436 420.078 13.912 419.098 14.864C418.146 15.816 417.67 17.468 417.67 19.82V32H412.882V8.858H417.67V12.218Z" fill="white"/>
</svg>
