<svg width="60" height="60" viewBox="0 0 60 60" fill="none" xmlns="http://www.w3.org/2000/svg">
<path d="M14.5769 49.1537C11.6506 49.1537 9.15625 48.1225 7.09375 46.06C5.03125 43.9975 4 41.5031 4 38.5769C4 35.6506 5.03125 33.1562 7.09375 31.0937C9.15625 29.0312 11.6506 28 14.5769 28C17.5031 28 19.9975 29.0312 22.06 31.0937C24.1225 33.1562 25.1537 35.6506 25.1537 38.5769C25.1537 41.5031 24.1225 43.9975 22.06 46.06C19.9975 48.1225 17.5031 49.1537 14.5769 49.1537ZM14.5656 41.3656C13.7877 41.3656 13.1304 41.0933 12.5938 40.5487C12.0571 40.0042 11.7887 39.3431 11.7887 38.5656C11.7887 37.7877 12.0608 37.1304 12.605 36.5937C13.1496 36.0567 13.8106 35.7881 14.5881 35.7881C15.366 35.7881 16.0233 36.0604 16.56 36.605C17.0971 37.1496 17.3656 37.8106 17.3656 38.5881C17.3656 39.366 17.0933 40.0233 16.5487 40.56C16.0046 41.0971 15.3435 41.3656 14.5656 41.3656ZM49 49.1537C46.9038 49.1537 45.1298 48.4277 43.6781 46.9756C42.226 45.524 41.5 43.75 41.5 41.6537C41.5 39.5575 42.226 37.7835 43.6781 36.3319C45.1298 34.8798 46.9038 34.1537 49 34.1537C51.0962 34.1537 52.8702 34.8798 54.3219 36.3319C55.774 37.7835 56.5 39.5575 56.5 41.6537C56.5 43.75 55.774 45.524 54.3219 46.9756C52.8702 48.4277 51.0962 49.1537 49 49.1537ZM9.48063 24.25C9.12646 24.25 8.82958 24.13 8.59 23.89C8.35042 23.65 8.23063 23.3527 8.23063 22.9981C8.23063 22.6435 8.35042 22.3469 8.59 22.1081C8.82958 21.8694 9.12646 21.75 9.48063 21.75H17.2694C18.0673 21.75 18.7796 21.9831 19.4062 22.4494C20.0329 22.9156 20.4744 23.5158 20.7306 24.25H9.48063ZM14.5769 46.6537C16.8206 46.6537 18.7277 45.8685 20.2981 44.2981C21.8685 42.7277 22.6537 40.8206 22.6537 38.5769C22.6537 36.3331 21.8685 34.426 20.2981 32.8556C18.7277 31.2852 16.8206 30.5 14.5769 30.5C12.3331 30.5 10.426 31.2852 8.85563 32.8556C7.28521 34.426 6.5 36.3331 6.5 38.5769C6.5 40.8206 7.28521 42.7277 8.85563 44.2981C10.426 45.8685 12.3331 46.6537 14.5769 46.6537ZM49 46.6537C50.3621 46.6537 51.536 46.161 52.5219 45.1756C53.5073 44.1898 54 43.0158 54 41.6537C54 40.2917 53.5073 39.1177 52.5219 38.1319C51.536 37.1465 50.3621 36.6537 49 36.6537C47.6379 36.6537 46.464 37.1465 45.4781 38.1319C44.4927 39.1177 44 40.2917 44 41.6537C44 43.0158 44.4927 44.1898 45.4781 45.1756C46.464 46.161 47.6379 46.6537 49 46.6537ZM26.9713 39.8269H39.75C40.295 37.5319 41.4594 35.7129 43.2431 34.37C45.0273 33.0271 47.0408 32.3556 49.2837 32.3556C49.8487 32.3556 50.4083 32.4054 50.9625 32.505C51.5163 32.6042 52.08 32.7692 52.6538 33V22.0381C52.6538 20.9277 52.2583 19.9771 51.4675 19.1862C50.6767 18.3954 49.726 18 48.6156 18H35.75L33.125 15.25L36.625 11.75L34.875 10L26 18.875L27.875 20.625L31.375 17.125L34 19.75V23.5769C34 25.4806 33.3221 27.1104 31.9662 28.4662C30.6104 29.8221 28.9806 30.5 27.0769 30.5H24.1156C25.0769 31.6504 25.8165 32.9196 26.3344 34.3075C26.8519 35.6954 27.0946 37.1346 27.0625 38.625C27.0625 38.8279 27.0521 39.0308 27.0312 39.2337C27.0104 39.4367 26.9904 39.6344 26.9713 39.8269Z" fill="#F1FAFF"/>
</svg>
