<svg width="60" height="60" viewBox="0 0 60 60" fill="none" xmlns="http://www.w3.org/2000/svg">
<path d="M14.3269 48.0756C11.4006 48.0756 8.90625 47.0444 6.84375 44.9819C4.78125 42.9194 3.75 40.425 3.75 37.4987C3.75 34.5725 4.78125 32.0781 6.84375 30.0156C8.90625 27.9531 11.4006 26.9219 14.3269 26.9219C17.2531 26.9219 19.7475 27.9531 21.81 30.0156C23.8725 32.0781 24.9037 34.5725 24.9037 37.4987C24.9037 40.425 23.8725 42.9194 21.81 44.9819C19.7475 47.0444 17.2531 48.0756 14.3269 48.0756ZM14.3156 40.2875C13.5377 40.2875 12.8804 40.0152 12.3438 39.4706C11.8071 38.926 11.5387 38.265 11.5387 37.4875C11.5387 36.7096 11.8108 36.0523 12.355 35.5156C12.8996 34.9785 13.5606 34.71 14.3381 34.71C15.116 34.71 15.7733 34.9823 16.31 35.5269C16.8471 36.0715 17.1156 36.7325 17.1156 37.51C17.1156 38.2879 16.8433 38.9452 16.2987 39.4819C15.7546 40.019 15.0935 40.2875 14.3156 40.2875ZM48.75 48.0756C46.6538 48.0756 44.8798 47.3496 43.4281 45.8975C41.976 44.4458 41.25 42.6719 41.25 40.5756C41.25 38.4794 41.976 36.7054 43.4281 35.2537C44.8798 33.8017 46.6538 33.0756 48.75 33.0756C50.8462 33.0756 52.6202 33.8017 54.0719 35.2537C55.524 36.7054 56.25 38.4794 56.25 40.5756C56.25 42.6719 55.524 44.4458 54.0719 45.8975C52.6202 47.3496 50.8462 48.0756 48.75 48.0756ZM9.23063 23.1719C8.87646 23.1719 8.57958 23.0519 8.34 22.8119C8.10042 22.5719 7.98063 22.2746 7.98063 21.92C7.98063 21.5654 8.10042 21.2687 8.34 21.03C8.57958 20.7912 8.87646 20.6719 9.23063 20.6719H17.0194C17.8173 20.6719 18.5296 20.905 19.1562 21.3713C19.7829 21.8375 20.2244 22.4377 20.4806 23.1719H9.23063ZM14.3269 45.5756C16.5706 45.5756 18.4777 44.7904 20.0481 43.22C21.6185 41.6496 22.4037 39.7425 22.4037 37.4987C22.4037 35.255 21.6185 33.3479 20.0481 31.7775C18.4777 30.2071 16.5706 29.4219 14.3269 29.4219C12.0831 29.4219 10.176 30.2071 8.60563 31.7775C7.03521 33.3479 6.25 35.255 6.25 37.4987C6.25 39.7425 7.03521 41.6496 8.60563 43.22C10.176 44.7904 12.0831 45.5756 14.3269 45.5756ZM48.75 45.5756C50.1121 45.5756 51.286 45.0829 52.2719 44.0975C53.2573 43.1117 53.75 41.9377 53.75 40.5756C53.75 39.2135 53.2573 38.0396 52.2719 37.0537C51.286 36.0683 50.1121 35.5756 48.75 35.5756C47.3879 35.5756 46.214 36.0683 45.2281 37.0537C44.2427 38.0396 43.75 39.2135 43.75 40.5756C43.75 41.9377 44.2427 43.1117 45.2281 44.0975C46.214 45.0829 47.3879 45.5756 48.75 45.5756ZM26.7213 38.7487H39.5C40.045 36.4537 41.2094 34.6348 42.9931 33.2919C44.7773 31.949 46.7908 31.2775 49.0337 31.2775C49.5987 31.2775 50.1583 31.3273 50.7125 31.4269C51.2663 31.526 51.83 31.691 52.4038 31.9219V20.96C52.4038 19.8496 52.0083 18.899 51.2175 18.1081C50.4267 17.3173 49.476 16.9219 48.3656 16.9219H35.5L32.875 14.1719L36.375 10.6719L34.625 8.92188L25.75 17.7969L27.625 19.5469L31.125 16.0469L33.75 18.6719V22.4987C33.75 24.4025 33.0721 26.0323 31.7162 27.3881C30.3604 28.744 28.7306 29.4219 26.8269 29.4219H23.8656C24.8269 30.5723 25.5665 31.8415 26.0844 33.2294C26.6019 34.6173 26.8446 36.0565 26.8125 37.5469C26.8125 37.7498 26.8021 37.9527 26.7812 38.1556C26.7604 38.3585 26.7404 38.5562 26.7213 38.7487Z" fill="#0E1513"/>
</svg>
