<svg width="60" height="60" viewBox="0 0 60 60" fill="none" xmlns="http://www.w3.org/2000/svg">
<path d="M18.6169 41.3844L12.0588 37.8269L13.53 36.3556L19.3475 37.2306L29.7225 26.8556L11.3281 16.9038L13.1938 14.9906L35.8188 20.7306L43.1794 13.3506C43.6631 12.8669 44.236 12.625 44.8981 12.625C45.5598 12.625 46.1327 12.8669 46.6169 13.3506C47.1006 13.8348 47.3425 14.4158 47.3425 15.0938C47.3425 15.7717 47.1006 16.3525 46.6169 16.8363L39.3188 24.2306L45.0106 46.8075L43.1456 48.7212L33.1456 30.3269L22.8669 40.6056L23.6937 46.4712L22.1744 47.9906L18.6169 41.3844Z" fill="#0E1513"/>
</svg>
