<svg width="60" height="60" viewBox="0 0 60 60" fill="none" xmlns="http://www.w3.org/2000/svg">
<path d="M7.5 45V32.5C7.5 31.7596 7.71312 30.971 8.13937 30.1344C8.56562 29.2981 9.18583 28.67 10 28.25V22.5C10 21.0896 10.4808 19.9038 11.4425 18.9425C12.4037 17.9808 13.5896 17.5 15 17.5H26.25C27.1121 17.5 27.8477 17.6771 28.4569 18.0312C29.0656 18.3854 29.58 18.875 30 19.5C30.42 18.875 30.9344 18.3854 31.5431 18.0312C32.1523 17.6771 32.8879 17.5 33.75 17.5H45C46.4104 17.5 47.5962 17.9808 48.5575 18.9425C49.5192 19.9038 50 21.0896 50 22.5V28.25C50.8142 28.67 51.4344 29.2981 51.8606 30.1344C52.2869 30.971 52.5 31.7596 52.5 32.5V45H50V40H10V45H7.5ZM31.25 27.5H47.5V22.5C47.5 21.7917 47.2604 21.1979 46.7812 20.7188C46.3021 20.2396 45.7083 20 45 20H33.75C33.0417 20 32.4479 20.2396 31.9688 20.7188C31.4896 21.1979 31.25 21.7917 31.25 22.5V27.5ZM12.5 27.5H28.75V22.5C28.75 21.7917 28.5104 21.1979 28.0312 20.7188C27.5521 20.2396 26.9583 20 26.25 20H15C14.2917 20 13.6979 20.2396 13.2188 20.7188C12.7396 21.1979 12.5 21.7917 12.5 22.5V27.5Z" fill="white"/>
</svg>
