<svg width="42" height="41" viewBox="0 0 42 41" fill="none" xmlns="http://www.w3.org/2000/svg">
<path d="M2.91016 40.6534V36.6153H10.4677L3.99641 15.4516C2.90349 14.9228 2.03266 14.1664 1.38391 13.1822C0.73474 12.1984 0.410156 11.0672 0.410156 9.78844C0.410156 8.0576 1.01912 6.58323 2.23703 5.36531C3.45495 4.1474 4.92932 3.53844 6.66016 3.53844C8.18891 3.53844 9.50057 4.00719 10.5952 4.94469C11.6897 5.88219 12.4229 7.0801 12.7945 8.53844H21.9483V4.78844C21.9483 4.4326 22.0677 4.13531 22.3064 3.89656C22.5456 3.65781 22.8429 3.53844 23.1983 3.53844C23.4775 3.53844 23.7218 3.62177 23.9314 3.78844C24.1414 3.9551 24.2754 4.17302 24.3333 4.44219V5.11531L28.8714 0.922815C29.2143 0.579898 29.5983 0.372397 30.0233 0.300313C30.4479 0.22823 30.862 0.301147 31.2658 0.519063L40.7277 4.92281C41.0352 5.07656 41.2666 5.29698 41.422 5.58406C41.5775 5.87073 41.5831 6.16302 41.4389 6.46094C41.2852 6.76886 41.0647 6.96365 40.7777 7.04531C40.491 7.12698 40.1985 7.09573 39.9002 6.95156L30.4195 2.53844L24.4483 8.03844V11.5384L30.4195 16.9134L39.9002 12.4997C40.1985 12.3555 40.4935 12.3268 40.7852 12.4134C41.0768 12.4997 41.2947 12.692 41.4389 12.9903C41.5927 13.2978 41.5895 13.5926 41.4295 13.8747C41.2691 14.1568 41.0352 14.3747 40.7277 14.5284L31.2658 18.9609C30.862 19.1793 30.4479 19.2522 30.0233 19.1797C29.5983 19.1076 29.2143 18.9001 28.8714 18.5572L24.3333 14.4609V15.1341C24.2754 15.3841 24.1414 15.5972 23.9314 15.7734C23.7218 15.9501 23.4775 16.0384 23.1983 16.0384C22.8429 16.0384 22.5456 15.9189 22.3064 15.6797C22.0677 15.4409 21.9483 15.1439 21.9483 14.7884V11.0384H12.7945C12.6695 11.5959 12.462 12.1486 12.172 12.6966C11.882 13.2449 11.5639 13.7018 11.2177 14.0672L23.3333 36.6153H32.9102V40.6534H2.91016ZM6.66016 13.5384C7.68891 13.5384 8.57099 13.1705 9.30641 12.4347C10.0422 11.6993 10.4102 10.8172 10.4102 9.78844C10.4102 8.75927 10.0422 7.87698 9.30641 7.14156C8.57099 6.40615 7.68891 6.03844 6.66016 6.03844C5.63141 6.03844 4.74912 6.40615 4.01328 7.14156C3.27787 7.87698 2.91016 8.75927 2.91016 9.78844C2.91016 10.8172 3.27787 11.6993 4.01328 12.4347C4.74912 13.1705 5.63141 13.5384 6.66016 13.5384Z" fill="white"/>
</svg>
