<svg width="60" height="60" viewBox="0 0 60 60" fill="none" xmlns="http://www.w3.org/2000/svg">
<path d="M11.9102 48.6534V44.6153H19.4677L12.9964 23.4516C11.9035 22.9228 11.0327 22.1664 10.3839 21.1822C9.73474 20.1984 9.41016 19.0672 9.41016 17.7884C9.41016 16.0576 10.0191 14.5832 11.237 13.3653C12.4549 12.1474 13.9293 11.5384 15.6602 11.5384C17.1889 11.5384 18.5006 12.0072 19.5952 12.9447C20.6897 13.8822 21.4229 15.0801 21.7945 16.5384H30.9483V12.7884C30.9483 12.4326 31.0677 12.1353 31.3064 11.8966C31.5456 11.6578 31.8429 11.5384 32.1983 11.5384C32.4775 11.5384 32.7218 11.6218 32.9314 11.7884C33.1414 11.9551 33.2754 12.173 33.3333 12.4422V13.1153L37.8714 8.92281C38.2143 8.5799 38.5983 8.3724 39.0233 8.30031C39.4479 8.22823 39.862 8.30115 40.2658 8.51906L49.7277 12.9228C50.0352 13.0766 50.2666 13.297 50.422 13.5841C50.5775 13.8707 50.5831 14.163 50.4389 14.4609C50.2852 14.7689 50.0647 14.9636 49.7777 15.0453C49.491 15.127 49.1985 15.0957 48.9002 14.9516L39.4195 10.5384L33.4483 16.0384V19.5384L39.4195 24.9134L48.9002 20.4997C49.1985 20.3555 49.4935 20.3268 49.7852 20.4134C50.0768 20.4997 50.2947 20.692 50.4389 20.9903C50.5927 21.2978 50.5895 21.5926 50.4295 21.8747C50.2691 22.1568 50.0352 22.3747 49.7277 22.5284L40.2658 26.9609C39.862 27.1793 39.4479 27.2522 39.0233 27.1797C38.5983 27.1076 38.2143 26.9001 37.8714 26.5572L33.3333 22.4609V23.1341C33.2754 23.3841 33.1414 23.5972 32.9314 23.7734C32.7218 23.9501 32.4775 24.0384 32.1983 24.0384C31.8429 24.0384 31.5456 23.9189 31.3064 23.6797C31.0677 23.4409 30.9483 23.1439 30.9483 22.7884V19.0384H21.7945C21.6695 19.5959 21.462 20.1486 21.172 20.6966C20.882 21.2449 20.5639 21.7018 20.2177 22.0672L32.3333 44.6153H41.9102V48.6534H11.9102ZM15.6602 21.5384C16.6889 21.5384 17.571 21.1705 18.3064 20.4347C19.0422 19.6993 19.4102 18.8172 19.4102 17.7884C19.4102 16.7593 19.0422 15.877 18.3064 15.1416C17.571 14.4061 16.6889 14.0384 15.6602 14.0384C14.6314 14.0384 13.7491 14.4061 13.0133 15.1416C12.2779 15.877 11.9102 16.7593 11.9102 17.7884C11.9102 18.8172 12.2779 19.6993 13.0133 20.4347C13.7491 21.1705 14.6314 21.5384 15.6602 21.5384Z" fill="white"/>
</svg>
