<svg width="34" height="31" viewBox="0 0 34 31" fill="none" xmlns="http://www.w3.org/2000/svg">
<path d="M29.8722 30.2313L23.385 23.7633C22.6478 24.0903 21.7327 24.3782 20.6398 24.6271C19.5468 24.8761 18.3337 25.0005 17.0004 25.0005C13.3615 25.0005 10.0527 24.0064 7.07408 22.0181C4.09544 20.0299 1.89139 17.4129 0.461914 14.1672C1.10933 12.695 1.96296 11.3162 3.02279 10.031C4.08262 8.74572 5.21404 7.66719 6.41704 6.79539L1.76958 2.12872L2.94908 0.949219L31.0517 29.0518L29.8722 30.2313ZM17.0004 20.2569C17.3914 20.2569 17.8204 20.211 18.2872 20.1191C18.7541 20.0272 19.119 19.9076 19.3818 19.7601L11.4074 11.7858C11.26 12.0913 11.1403 12.4722 11.0485 12.9284C10.9566 13.3846 10.9106 13.7975 10.9106 14.1672C10.9106 15.8659 11.5009 17.3055 12.6815 18.4861C13.862 19.6666 15.3017 20.2569 17.0004 20.2569ZM28.0132 21.1992L22.8497 16.0774C22.916 15.8403 22.9726 15.5587 23.0196 15.2329C23.0666 14.907 23.0901 14.5518 23.0901 14.1672C23.0901 12.4685 22.4998 11.0288 21.3193 9.84826C20.1387 8.66771 18.6991 8.07743 17.0004 8.07743C16.6158 8.07743 16.2712 8.10627 15.9667 8.16397C15.6622 8.22166 15.3807 8.3082 15.1222 8.42359L11.0324 4.36589C12.0004 4.0005 12.9854 3.73714 13.9875 3.5758C14.9897 3.4145 15.994 3.33384 17.0004 3.33384C20.6179 3.33384 23.9267 4.32797 26.9267 6.31622C29.9267 8.30447 32.1307 10.9215 33.5388 14.1672C32.9427 15.5069 32.1879 16.766 31.2744 17.9444C30.361 19.1228 29.2739 20.2078 28.0132 21.1992ZM21.4907 14.7505L16.4587 9.75051C17.151 9.61162 17.8236 9.65809 18.4763 9.88993C19.1291 10.1218 19.6916 10.477 20.1638 10.9556C20.6574 11.4343 21.0244 12.0053 21.2648 12.6688C21.5052 13.3322 21.5805 14.0261 21.4907 14.7505Z" fill="#0E1513"/>
</svg>
