<svg width="34" height="22" viewBox="0 0 34 22" fill="none" xmlns="http://www.w3.org/2000/svg">
<path d="M17.0069 17.2571C18.7006 17.2571 20.1378 16.6643 21.3183 15.4787C22.4989 14.2931 23.0891 12.8535 23.0891 11.1598C23.0891 9.46608 22.4964 8.02896 21.3108 6.8484C20.1252 5.66785 18.6855 5.07757 16.9919 5.07757C15.2982 5.07757 13.861 5.67036 12.6805 6.85594C11.4999 8.04152 10.9096 9.48116 10.9096 11.1749C10.9096 12.8686 11.5024 14.3057 12.688 15.4862C13.8736 16.6668 15.3132 17.2571 17.0069 17.2571ZM16.9994 15.6673C15.7494 15.6673 14.6869 15.2298 13.8119 14.3548C12.9369 13.4798 12.4994 12.4173 12.4994 11.1673C12.4994 9.91732 12.9369 8.85482 13.8119 7.97982C14.6869 7.10482 15.7494 6.66732 16.9994 6.66732C18.2494 6.66732 19.3119 7.10482 20.1869 7.97982C21.0619 8.85482 21.4994 9.91732 21.4994 11.1673C21.4994 12.4173 21.0619 13.4798 20.1869 14.3548C19.3119 15.2298 18.2494 15.6673 16.9994 15.6673ZM17.004 22.0007C13.3941 22.0007 10.1041 21.0183 7.13402 19.0535C4.16391 17.0888 1.93955 14.4601 0.460938 11.1673C1.93955 7.87457 4.16238 5.24583 7.12944 3.28111C10.0965 1.31636 13.3849 0.333984 16.9948 0.333984C20.6047 0.333984 23.8947 1.31636 26.8648 3.28111C29.8349 5.24583 32.0592 7.87457 33.5379 11.1673C32.0592 14.4601 29.8364 17.0888 26.8694 19.0535C23.9023 21.0183 20.6139 22.0007 17.004 22.0007Z" fill="black"/>
</svg>
