<svg width="24" height="24" viewBox="0 0 24 24" fill="none" xmlns="http://www.w3.org/2000/svg">
<path d="M11.9997 10.9747C10.6247 10.9747 9.44759 10.4851 8.46842 9.5059C7.48926 8.52674 6.99967 7.34965 6.99967 5.97465C6.99967 4.59962 7.48926 3.42253 8.46842 2.44336C9.44759 1.46419 10.6247 0.974609 11.9997 0.974609C13.3747 0.974609 14.5518 1.46419 15.5309 2.44336C16.5101 3.42253 16.9997 4.59962 16.9997 5.97465C16.9997 7.34965 16.5101 8.52674 15.5309 9.5059C14.5518 10.4851 13.3747 10.9747 11.9997 10.9747ZM0.333008 23.0259V20.2823C0.333008 19.5943 0.533327 18.9506 0.933966 18.3512C1.33461 17.7519 1.87361 17.2866 2.55097 16.9554C4.1236 16.2011 5.69731 15.6354 7.27209 15.2583C8.8469 14.8811 10.4228 14.6926 11.9997 14.6926C13.5766 14.6926 15.1525 14.8811 16.7273 15.2583C18.302 15.6354 19.8757 16.2011 21.4484 16.9554C22.1257 17.2866 22.6647 17.7519 23.0654 18.3512C23.466 18.9506 23.6663 19.5943 23.6663 20.2823V23.0259H0.333008Z" fill="#0E1513"/>
</svg>
