<svg width="34" height="32" viewBox="0 0 34 32" fill="none" xmlns="http://www.w3.org/2000/svg">
<path d="M16.8585 2.86525C21.2099 2.86525 21.7252 2.88389 23.4366 2.95848C25.027 3.02684 25.8858 3.28789 26.4584 3.50542C27.2155 3.79132 27.7626 4.13938 28.3288 4.69254C28.9013 5.25192 29.2512 5.78022 29.5439 6.51983C29.7665 7.07921 30.0337 7.92449 30.1037 9.4721C30.1801 11.1502 30.1991 11.6537 30.1991 15.8987C30.1991 20.15 30.1801 20.6534 30.1037 22.3253C30.0337 23.8791 29.7665 24.7182 29.5439 25.2776C29.2512 26.0172 28.895 26.5517 28.3288 27.1049C27.7562 27.6642 27.2155 28.0061 26.4584 28.292C25.8858 28.5095 25.0206 28.7706 23.4366 28.8389C21.7189 28.9135 21.2036 28.9322 16.8585 28.9322C12.507 28.9322 11.9917 28.9135 10.2804 28.8389C8.68992 28.7706 7.83107 28.5095 7.25851 28.292C6.50146 28.0061 5.95434 27.658 5.38814 27.1049C4.81558 26.5455 4.46568 26.0172 4.17304 25.2776C3.95038 24.7182 3.68318 23.8729 3.6132 22.3253C3.53686 20.6472 3.51778 20.1437 3.51778 15.8987C3.51778 11.6474 3.53686 11.144 3.6132 9.4721C3.68318 7.91827 3.95038 7.07921 4.17304 6.51983C4.46568 5.78022 4.82194 5.2457 5.38814 4.69254C5.96071 4.13316 6.50146 3.79132 7.25851 3.50542C7.83107 3.28789 8.69628 3.02684 10.2804 2.95848C11.9917 2.88389 12.507 2.86525 16.8585 2.86525ZM16.8585 0C12.437 0 11.8835 0.0186459 10.1468 0.0932293C8.41636 0.167813 7.2267 0.441285 6.19609 0.832848C5.12095 1.24306 4.21121 1.78379 3.30784 2.67257C2.3981 3.55514 1.84462 4.44393 1.42475 5.4881C1.02395 6.50119 0.744034 7.65723 0.667693 9.34779C0.591351 11.0508 0.572266 11.5915 0.572266 15.9111C0.572266 20.2308 0.591351 20.7715 0.667693 22.4683C0.744034 24.1588 1.02395 25.3211 1.42475 26.328C1.84462 27.3783 2.3981 28.2671 3.30784 29.1497C4.21121 30.0323 5.12095 30.5792 6.18973 30.9832C7.2267 31.3748 8.41 31.6482 10.1404 31.7228C11.8772 31.7974 12.4307 31.816 16.8521 31.816C21.2735 31.816 21.827 31.7974 23.5638 31.7228C25.2942 31.6482 26.4839 31.3748 27.5145 30.9832C28.5833 30.5792 29.493 30.0323 30.3964 29.1497C31.2997 28.2671 31.8596 27.3783 32.2731 26.3342C32.6739 25.3211 32.9538 24.165 33.0301 22.4745C33.1065 20.7777 33.1256 20.237 33.1256 15.9173C33.1256 11.5977 33.1065 11.057 33.0301 9.36022C32.9538 7.66966 32.6739 6.5074 32.2731 5.50053C31.8723 4.44393 31.3188 3.55514 30.4091 2.67257C29.5057 1.79 28.596 1.24306 27.5272 0.839064C26.4902 0.447501 25.3069 0.174028 23.5765 0.0994446C21.8334 0.0186459 21.2799 0 16.8585 0Z" fill="white"/>
<path d="M16.8585 7.73803C12.2398 7.73803 8.4927 11.3988 8.4927 15.9111C8.4927 20.4234 12.2398 24.0842 16.8585 24.0842C21.4771 24.0842 25.2242 20.4234 25.2242 15.9111C25.2242 11.3988 21.4771 7.73803 16.8585 7.73803ZM16.8585 21.2128C13.8621 21.2128 11.4318 18.8385 11.4318 15.9111C11.4318 12.9837 13.8621 10.6095 16.8585 10.6095C19.8549 10.6095 22.2851 12.9837 22.2851 15.9111C22.2851 18.8385 19.8549 21.2128 16.8585 21.2128Z" fill="white"/>
<path d="M27.5081 7.41478C27.5081 8.47138 26.6302 9.32287 25.555 9.32287C24.4735 9.32287 23.602 8.46516 23.602 7.41478C23.602 6.35818 24.4799 5.50668 25.555 5.50668C26.6302 5.50668 27.5081 6.36439 27.5081 7.41478Z" fill="white"/>
</svg>
