<svg width="351" height="42" viewBox="0 0 351 42" fill="none" xmlns="http://www.w3.org/2000/svg">
<path d="M9.53641 1.48585C8.55677 3.87706 7.71575 6.29223 8.19325 8.80327C8.98497 12.8667 12.5739 16.0807 16.5695 18.1205L15.1771 18.1524C16.7482 17.1592 18.1684 16.0248 19.3174 14.72C21.6957 12.0865 22.7739 8.74469 22.6907 5.41617C22.6353 3.69066 22.2903 1.97315 21.9853 0.117165L22.2625 0C23.7813 1.44058 24.5638 3.29657 25.0074 5.1845C26.5662 11.0667 22.8972 17.5932 16.6342 20.2534L16.0181 20.6075C9.63191 18.2802 4.31472 12.3315 5.80575 6.11116C6.28325 4.17796 7.53091 2.4418 9.28996 1.32874L9.53641 1.48851V1.48585Z" fill="#F1FAFF"/>
<path d="M5.40293 0.559262C1.87559 4.03424 1.94028 7.8181 4.39556 11.6818C5.14723 12.8135 6.19157 13.6949 7.27904 14.7015L11.9431 18.8555C15.9295 22.4503 20.1284 26.2474 22.2294 30.9819C23.5387 33.9696 22.5559 37.623 20.381 40.0009L20.1068 39.8811C20.7106 38.0624 20.9941 36.209 20.5967 34.3664C20.2763 32.5796 19.1087 31.1843 17.8549 29.749C15.8679 27.4883 13.6282 25.4566 11.29 23.4488C8.97647 21.3958 6.49347 19.1857 4.34011 16.9888C3.20335 15.8119 1.93104 14.4885 1.21017 12.984C0.070337 10.4942 -0.508824 7.60507 0.578642 5.00883C1.41966 2.93716 3.17562 1.28887 5.21809 0.351562L5.40909 0.559262H5.40293Z" fill="#F1FAFF"/>
<path d="M50.2532 31.196C48.9465 31.196 47.7705 30.972 46.7252 30.524C45.6799 30.0573 44.8585 29.404 44.2612 28.564C43.6639 27.724 43.3652 26.744 43.3652 25.624H46.7812C46.8559 26.464 47.1825 27.1547 47.7612 27.696C48.3585 28.2373 49.1892 28.508 50.2532 28.508C51.3545 28.508 52.2132 28.2467 52.8292 27.724C53.4452 27.1827 53.7532 26.492 53.7532 25.652C53.7532 24.9987 53.5572 24.4667 53.1652 24.056C52.7919 23.6453 52.3159 23.328 51.7372 23.104C51.1772 22.88 50.3932 22.6373 49.3852 22.376C48.1159 22.04 47.0799 21.704 46.2772 21.368C45.4932 21.0133 44.8212 20.472 44.2612 19.744C43.7012 19.016 43.4212 18.0453 43.4212 16.832C43.4212 15.712 43.7012 14.732 44.2612 13.892C44.8212 13.052 45.6052 12.408 46.6132 11.96C47.6212 11.512 48.7879 11.288 50.1132 11.288C51.9985 11.288 53.5385 11.764 54.7332 12.716C55.9465 13.6493 56.6185 14.9373 56.7492 16.58H53.2212C53.1652 15.8707 52.8292 15.264 52.2132 14.76C51.5972 14.256 50.7852 14.004 49.7772 14.004C48.8625 14.004 48.1159 14.2373 47.5372 14.704C46.9585 15.1707 46.6692 15.8427 46.6692 16.72C46.6692 17.3173 46.8465 17.812 47.2012 18.204C47.5745 18.5773 48.0412 18.876 48.6012 19.1C49.1612 19.324 49.9265 19.5667 50.8972 19.828C52.1852 20.1827 53.2305 20.5373 54.0332 20.892C54.8545 21.2467 55.5452 21.7973 56.1052 22.544C56.6839 23.272 56.9732 24.252 56.9732 25.484C56.9732 26.4733 56.7025 27.4067 56.1612 28.284C55.6385 29.1613 54.8639 29.8707 53.8372 30.412C52.8292 30.9347 51.6345 31.196 50.2532 31.196ZM77.5116 11.54L70.2036 31H66.5076L59.1716 11.54H62.5876L68.3556 27.724L74.1516 11.54H77.5116ZM96.1691 31H92.9771L83.3731 16.468V31H80.1811V11.512H83.3731L92.9771 26.016V11.512H96.1691V31ZM112.933 11.54V14.144H107.753V31H104.561V14.144H99.3527V11.54H112.933ZM126.631 11.54V31H123.439V11.54H126.631ZM138.606 15.32C139.819 15.32 140.902 15.572 141.854 16.076C142.824 16.58 143.58 17.3267 144.122 18.316C144.663 19.3053 144.934 20.5 144.934 21.9V31H141.77V22.376C141.77 20.9947 141.424 19.94 140.734 19.212C140.043 18.4653 139.1 18.092 137.906 18.092C136.711 18.092 135.759 18.4653 135.05 19.212C134.359 19.94 134.014 20.9947 134.014 22.376V31H130.822V15.572H134.014V17.336C134.536 16.7013 135.199 16.2067 136.002 15.852C136.823 15.4973 137.691 15.32 138.606 15.32ZM155.473 18.176H152.617V31H149.397V18.176H147.577V15.572H149.397V14.48C149.397 12.7067 149.864 11.4187 150.797 10.616C151.749 9.79467 153.233 9.384 155.249 9.384V12.044C154.279 12.044 153.597 12.2307 153.205 12.604C152.813 12.9587 152.617 13.584 152.617 14.48V15.572H155.473V18.176ZM164.994 31.252C163.538 31.252 162.222 30.9253 161.046 30.272C159.87 29.6 158.946 28.6667 158.274 27.472C157.602 26.2587 157.266 24.8587 157.266 23.272C157.266 21.704 157.611 20.3133 158.302 19.1C158.993 17.8867 159.935 16.9533 161.13 16.3C162.325 15.6467 163.659 15.32 165.134 15.32C166.609 15.32 167.943 15.6467 169.138 16.3C170.333 16.9533 171.275 17.8867 171.966 19.1C172.657 20.3133 173.002 21.704 173.002 23.272C173.002 24.84 172.647 26.2307 171.938 27.444C171.229 28.6573 170.258 29.6 169.026 30.272C167.813 30.9253 166.469 31.252 164.994 31.252ZM164.994 28.48C165.815 28.48 166.581 28.284 167.29 27.892C168.018 27.5 168.606 26.912 169.054 26.128C169.502 25.344 169.726 24.392 169.726 23.272C169.726 22.152 169.511 21.2093 169.082 20.444C168.653 19.66 168.083 19.072 167.374 18.68C166.665 18.288 165.899 18.092 165.078 18.092C164.257 18.092 163.491 18.288 162.782 18.68C162.091 19.072 161.541 19.66 161.13 20.444C160.719 21.2093 160.514 22.152 160.514 23.272C160.514 24.9333 160.934 26.2213 161.774 27.136C162.633 28.032 163.706 28.48 164.994 28.48ZM179.882 18.176V26.716C179.882 27.2947 180.012 27.7147 180.274 27.976C180.554 28.2187 181.02 28.34 181.674 28.34H183.634V31H181.114C179.676 31 178.575 30.664 177.81 29.992C177.044 29.32 176.662 28.228 176.662 26.716V18.176H174.842V15.572H176.662V11.736H179.882V15.572H183.634V18.176H179.882ZM200.716 22.908C200.716 23.4867 200.678 24.0093 200.604 24.476H188.816C188.909 25.708 189.366 26.6973 190.188 27.444C191.009 28.1907 192.017 28.564 193.212 28.564C194.929 28.564 196.142 27.8453 196.852 26.408H200.296C199.829 27.8267 198.98 28.9933 197.748 29.908C196.534 30.804 195.022 31.252 193.212 31.252C191.737 31.252 190.412 30.9253 189.236 30.272C188.078 29.6 187.164 28.6667 186.492 27.472C185.838 26.2587 185.512 24.8587 185.512 23.272C185.512 21.6853 185.829 20.2947 186.464 19.1C187.117 17.8867 188.022 16.9533 189.18 16.3C190.356 15.6467 191.7 15.32 193.212 15.32C194.668 15.32 195.965 15.6373 197.104 16.272C198.242 16.9067 199.129 17.8027 199.764 18.96C200.398 20.0987 200.716 21.4147 200.716 22.908ZM197.384 21.9C197.365 20.724 196.945 19.7813 196.124 19.072C195.302 18.3627 194.285 18.008 193.072 18.008C191.97 18.008 191.028 18.3627 190.244 19.072C189.46 19.7627 188.993 20.7053 188.844 21.9H197.384ZM202.793 23.272C202.793 21.6853 203.11 20.2947 203.745 19.1C204.398 17.8867 205.294 16.9533 206.433 16.3C207.572 15.6467 208.878 15.32 210.353 15.32C212.22 15.32 213.76 15.768 214.973 16.664C216.205 17.5413 217.036 18.8013 217.465 20.444H214.021C213.741 19.6787 213.293 19.0813 212.677 18.652C212.061 18.2227 211.286 18.008 210.353 18.008C209.046 18.008 208.001 18.4747 207.217 19.408C206.452 20.3227 206.069 21.6107 206.069 23.272C206.069 24.9333 206.452 26.2307 207.217 27.164C208.001 28.0973 209.046 28.564 210.353 28.564C212.201 28.564 213.424 27.752 214.021 26.128H217.465C217.017 27.696 216.177 28.9467 214.945 29.88C213.713 30.7947 212.182 31.252 210.353 31.252C208.878 31.252 207.572 30.9253 206.433 30.272C205.294 29.6 204.398 28.6667 203.745 27.472C203.11 26.2587 202.793 24.8587 202.793 23.272ZM228.626 15.32C229.802 15.32 230.847 15.572 231.762 16.076C232.695 16.58 233.423 17.3267 233.946 18.316C234.487 19.3053 234.758 20.5 234.758 21.9V31H231.594V22.376C231.594 20.9947 231.249 19.94 230.558 19.212C229.867 18.4653 228.925 18.092 227.73 18.092C226.535 18.092 225.583 18.4653 224.874 19.212C224.183 19.94 223.838 20.9947 223.838 22.376V31H220.646V10.28H223.838V17.364C224.379 16.7107 225.061 16.2067 225.882 15.852C226.722 15.4973 227.637 15.32 228.626 15.32ZM259.711 17.336C259.711 18.3253 259.478 19.2587 259.011 20.136C258.544 21.0133 257.798 21.732 256.771 22.292C255.744 22.8333 254.428 23.104 252.823 23.104H249.295V31H246.103V11.54H252.823C254.316 11.54 255.576 11.8013 256.603 12.324C257.648 12.828 258.423 13.5187 258.927 14.396C259.45 15.2733 259.711 16.2533 259.711 17.336ZM252.823 20.5C254.036 20.5 254.942 20.2293 255.539 19.688C256.136 19.128 256.435 18.344 256.435 17.336C256.435 15.208 255.231 14.144 252.823 14.144H249.295V20.5H252.823ZM268.719 28.144L273.087 15.572H276.475L270.595 31H266.787L260.935 15.572H264.351L268.719 28.144ZM282.612 18.176V26.716C282.612 27.2947 282.743 27.7147 283.004 27.976C283.284 28.2187 283.751 28.34 284.404 28.34H286.364V31H283.844C282.407 31 281.305 30.664 280.54 29.992C279.775 29.32 279.392 28.228 279.392 26.716V18.176H277.572V15.572H279.392V11.736H282.612V15.572H286.364V18.176H282.612ZM290.594 31.196C290.015 31.196 289.53 31 289.138 30.608C288.746 30.216 288.55 29.7307 288.55 29.152C288.55 28.5733 288.746 28.088 289.138 27.696C289.53 27.304 290.015 27.108 290.594 27.108C291.154 27.108 291.63 27.304 292.022 27.696C292.414 28.088 292.61 28.5733 292.61 29.152C292.61 29.7307 292.414 30.216 292.022 30.608C291.63 31 291.154 31.196 290.594 31.196ZM306.525 28.424H313.105V31H303.333V11.54H306.525V28.424ZM319.499 18.176V26.716C319.499 27.2947 319.629 27.7147 319.891 27.976C320.171 28.2187 320.637 28.34 321.291 28.34H323.251V31H320.731C319.293 31 318.192 30.664 317.427 29.992C316.661 29.32 316.279 28.228 316.279 26.716V18.176H314.459V15.572H316.279V11.736H319.499V15.572H323.251V18.176H319.499ZM325.129 23.216C325.129 21.6667 325.446 20.2947 326.081 19.1C326.734 17.9053 327.611 16.9813 328.713 16.328C329.833 15.656 331.074 15.32 332.437 15.32C333.445 15.32 334.434 15.544 335.405 15.992C336.394 16.4213 337.178 17 337.757 17.728V10.28H340.977V31H337.757V28.676C337.234 29.4227 336.506 30.0387 335.573 30.524C334.658 31.0093 333.603 31.252 332.409 31.252C331.065 31.252 329.833 30.916 328.713 30.244C327.611 29.5533 326.734 28.6013 326.081 27.388C325.446 26.156 325.129 24.7653 325.129 23.216ZM337.757 23.272C337.757 22.208 337.533 21.284 337.085 20.5C336.655 19.716 336.086 19.1187 335.377 18.708C334.667 18.2973 333.902 18.092 333.081 18.092C332.259 18.092 331.494 18.2973 330.785 18.708C330.075 19.1 329.497 19.688 329.049 20.472C328.619 21.2373 328.405 22.152 328.405 23.216C328.405 24.28 328.619 25.2133 329.049 26.016C329.497 26.8187 330.075 27.4347 330.785 27.864C331.513 28.2747 332.278 28.48 333.081 28.48C333.902 28.48 334.667 28.2747 335.377 27.864C336.086 27.4533 336.655 26.856 337.085 26.072C337.533 25.2693 337.757 24.336 337.757 23.272ZM346.457 31.196C345.879 31.196 345.393 31 345.001 30.608C344.609 30.216 344.413 29.7307 344.413 29.152C344.413 28.5733 344.609 28.088 345.001 27.696C345.393 27.304 345.879 27.108 346.457 27.108C347.017 27.108 347.493 27.304 347.885 27.696C348.277 28.088 348.473 28.5733 348.473 29.152C348.473 29.7307 348.277 30.216 347.885 30.608C347.493 31 347.017 31.196 346.457 31.196Z" fill="#F1FAFF"/>
</svg>
