<svg width="41" height="67" viewBox="0 0 41 67" fill="none" xmlns="http://www.w3.org/2000/svg">
<g id="Group 427318369">
<g id="Layer 3">
<path id="Vector" d="M15.4186 2.47142C13.8354 6.44871 12.4762 10.4659 13.2479 14.6425C14.5274 21.4012 20.3277 26.7471 26.7851 30.1398L24.5347 30.1929C27.0739 28.5409 29.3691 26.6541 31.2262 24.4839C35.0697 20.1035 36.8123 14.545 36.6779 9.00871C36.5883 6.13868 36.0306 3.28194 35.5378 0.19488L35.9858 0C38.4404 2.39612 39.705 5.48318 40.4219 8.62338C42.9411 18.4072 37.0115 29.2628 26.8897 33.6874L25.8939 34.2765C15.573 30.4055 6.97967 20.511 9.38938 10.1647C10.1611 6.9492 12.1775 4.06145 15.0203 2.2101L15.4186 2.47584V2.47142Z" fill="#44345D"/>
</g>
<g id="Layer 2">
<path id="Vector_2" d="M8.73188 0.931404C3.03122 6.71133 3.13577 13.005 7.10383 19.4316C8.31865 21.3139 10.0064 22.78 11.7639 24.4541L19.3018 31.3635C25.7443 37.3427 32.5303 43.6586 35.9258 51.5334C38.0418 56.5028 36.4535 62.5795 32.9385 66.5347L32.4954 66.3354C33.4713 63.3103 33.9293 60.2277 33.2871 57.1628C32.7693 54.1909 30.8823 51.87 28.856 49.4828C25.6447 45.7225 22.0251 42.3431 18.2463 39.0036C14.5072 35.5888 10.4944 31.9127 7.01422 28.2587C5.17706 26.3011 3.12084 24.0998 1.95581 21.5974C0.113674 17.4562 -0.822331 12.6507 0.935166 8.33237C2.29436 4.88656 5.13225 2.14497 8.43316 0.585938L8.74185 0.931404H8.73188Z" fill="#DC0D0C"/>
</g>
</g>
</svg>
