<svg width="148" height="148" viewBox="0 0 148 148" fill="none" xmlns="http://www.w3.org/2000/svg">
<path d="M16.5267 101.238H13.9844V110.5H16.5267C19.4776 110.5 21.3844 108.684 21.3844 105.869C21.3844 103.054 19.4776 101.238 16.5267 101.238ZM15.7322 102.918H16.4586C18.4789 102.918 19.5911 103.962 19.5911 105.869C19.5911 107.776 18.4789 108.82 16.4586 108.82H15.7322V102.918Z" fill="#AB1F24"/>
<path d="M25.0831 101.238H23.3125V110.5H25.0831V101.238Z" fill="#AB1F24"/>
<path d="M26.7383 102.918H29.326V110.5H31.0739V102.918H33.6389V101.238H26.7383V102.918Z" fill="#AB1F24"/>
<path d="M40.4713 101.238L38.3376 104.938L36.1811 101.238H34.1836L37.4523 106.822V110.5H39.2002V106.822L42.4235 101.238H40.4713Z" fill="#AB1F24"/>
<path d="M60.8573 105.597C61.2886 105.165 61.5156 104.575 61.5156 103.849C61.5156 102.26 60.4033 101.238 58.6554 101.238H55.3867V110.5H58.837C60.7211 110.5 61.9241 109.41 61.9241 107.73C61.9241 106.8 61.561 106.051 60.8573 105.597ZM58.5873 102.895C59.3818 102.895 59.7677 103.213 59.7677 103.894C59.7677 104.575 59.4499 104.893 58.7235 104.893H57.1346V102.895H58.5873ZM57.1573 106.527H58.7462C59.6769 106.527 60.1763 106.913 60.1763 107.685C60.1763 108.457 59.7223 108.843 58.7689 108.843H57.1573V106.527Z" fill="#AB1F24"/>
<path d="M65.6026 101.238H63.832V110.5H65.6026V101.238Z" fill="#AB1F24"/>
<path d="M74.2516 104.189C74.2516 102.419 72.9578 101.238 71.0056 101.238H68.0547V110.5H69.8025V107.117H70.9148L73.0032 110.5H75.0234L72.6854 106.754C73.6841 106.278 74.2516 105.37 74.2516 104.189ZM69.7798 102.918H70.9375C71.959 102.918 72.4584 103.349 72.4584 104.212C72.4584 104.757 72.2995 105.46 70.9375 105.46H69.7798V102.918Z" fill="#AB1F24"/>
<path d="M78.087 101.238H76.3164V110.5H81.9232V108.843H78.087V101.238Z" fill="#AB1F24"/>
<path d="M100.401 107.117H102.897V108.297C102.375 108.683 101.694 108.865 100.854 108.865C99.1066 108.865 97.8355 107.594 97.8355 105.823C97.8355 104.052 99.0386 102.781 100.718 102.781C101.944 102.781 102.534 103.258 102.943 103.712L103.261 104.075L104.509 102.895L104.191 102.554C103.306 101.578 102.171 101.102 100.718 101.102C98.0852 101.102 96.0195 103.167 96.0195 105.823C96.0195 108.524 98.0852 110.545 100.832 110.545C102.307 110.545 103.442 110.136 104.441 109.273L104.6 109.137V105.46H100.378V107.117" fill="#AB1F24"/>
<path d="M112.838 104.146C112.838 102.376 111.544 101.195 109.592 101.195H106.641V110.457H108.388V107.074H109.501L111.589 110.457H113.609L111.271 106.711C112.27 106.235 112.838 105.304 112.838 104.146ZM108.388 102.852H109.546C110.568 102.852 111.044 103.284 111.044 104.146C111.044 104.691 110.885 105.395 109.546 105.395H108.388V102.852Z" fill="#AB1F24"/>
<path d="M119.104 101.102C116.448 101.102 114.383 103.167 114.383 105.823C114.383 108.479 116.448 110.545 119.104 110.545C121.76 110.545 123.848 108.479 123.848 105.823C123.848 103.167 121.76 101.102 119.104 101.102ZM119.104 108.865C117.402 108.865 116.153 107.594 116.153 105.823C116.153 104.052 117.402 102.781 119.104 102.781C120.807 102.781 122.055 104.052 122.055 105.823C122.055 107.594 120.807 108.865 119.104 108.865Z" fill="#AB1F24"/>
<path d="M130.679 107.097C130.679 108.278 130.112 108.868 129.022 108.868C127.933 108.868 127.365 108.255 127.365 107.097V101.195H125.617V107.143C125.617 109.208 126.956 110.525 129.022 110.525C131.088 110.525 132.427 109.185 132.427 107.143V101.195H130.679V107.097Z" fill="#AB1F24"/>
<path d="M137.67 101.195H134.742V110.457H136.49V107.143H137.648C139.623 107.143 140.894 105.985 140.894 104.169C140.916 102.376 139.645 101.195 137.67 101.195ZM136.513 102.852H137.625C138.646 102.852 139.123 103.284 139.123 104.169C139.123 105.054 138.624 105.463 137.625 105.463H136.513V102.852Z" fill="#AB1F24"/>
<path d="M4.72266 110.478H6.44781L7.21959 108.571H10.1251L10.8969 110.478H12.6447L8.69505 100.898L4.72266 110.478ZM7.85517 107.005L8.67235 104.984L9.48953 107.005H7.85517Z" fill="#AB1F24"/>
<path d="M41.7891 110.501H43.5142L44.2633 108.594H47.1688L47.9406 110.501H49.6884L45.7388 100.922L41.7891 110.501ZM44.8989 107.051L45.7161 105.03L46.5332 107.051H44.8989Z" fill="#AB1F24"/>
<path d="M83.0352 110.478H84.7603L85.5321 108.571H88.4376L89.2094 110.478H90.9572L87.0075 100.898L83.0352 110.478ZM86.145 107.005L86.9622 104.984L87.7793 107.005H86.145Z" fill="#AB1F24"/>
<path d="M120.056 72.5486L107.298 78.4277L93.293 60.9719L108.933 35.4805H120.056V72.5486Z" fill="#AB1F24"/>
<path d="M120.058 94.3156V72.5469L107.301 78.426L120.058 94.3156Z" fill="#EF7032"/>
<path d="M93.2952 60.9719L72.8203 35.4805H108.935L93.2952 60.9719Z" fill="#EF7032"/>
<path d="M87.6657 70.1393L93.2725 60.9914L72.8203 35.5V66.0307H72.9565C78.359 66.008 83.3982 67.5288 87.6657 70.1393Z" fill="#FFD35D"/>
<path d="M72.9565 66.0117H72.8203V94.3179L87.6657 70.143C83.3755 67.5326 78.359 66.0117 72.9565 66.0117Z" fill="#AB1F24"/>
<path d="M98.6506 82.4197L107.299 78.4246L93.2935 60.9688L87.6641 70.1393C92.4309 73.0448 96.2671 77.3123 98.6506 82.4197Z" fill="#EF7032"/>
<path d="M87.6657 70.1406L72.8203 94.3382L98.6522 82.421C96.2688 77.3136 92.4326 73.0461 87.6657 70.1406Z" fill="#D31F26"/>
<path d="M107.301 78.4258L98.6523 82.4209C100.332 86.0301 101.285 90.0706 101.285 94.3381H120.058L107.301 78.4258Z" fill="#FFD35D"/>
<path d="M72.8203 94.3156H101.263C101.263 90.0708 100.332 86.0303 98.6522 82.3984L72.8203 94.3156Z" fill="#AB1F24"/>
<path d="M25.6055 72.5486L38.3625 78.4277L52.368 60.9719L36.7282 35.4805H25.6055V72.5486Z" fill="#AB1F24"/>
<path d="M25.6055 94.3156V72.5469L38.3625 78.426L25.6055 94.3156Z" fill="#EF7032"/>
<path d="M52.3664 60.9719L72.8186 35.4805H36.7266L52.3664 60.9719Z" fill="#EF7032"/>
<path d="M57.9739 70.1393L52.3672 60.9914L72.8193 35.5V66.0307H72.6831C67.3034 66.008 62.2641 67.5288 57.9739 70.1393Z" fill="#D31F26"/>
<path d="M72.6826 66.0117H72.8188V94.3179L57.9961 70.143C62.2636 67.5326 67.3028 66.0117 72.6826 66.0117Z" fill="#EF7032"/>
<path d="M47.0117 82.4197L38.3633 78.4246L52.3688 60.9688L57.9755 70.1166C53.2087 73.0448 49.3725 77.3123 47.0117 82.4197Z" fill="#EF7032"/>
<path d="M57.9755 70.1406L72.8209 94.3382L47.0117 82.421C49.3725 77.3136 53.2086 73.0461 57.9755 70.1406Z" fill="#D31F26"/>
<path d="M38.3625 78.4258L47.011 82.4209C45.3312 86.0301 44.3779 90.0706 44.3779 94.3381H25.6055L38.3625 78.4258Z" fill="#FFD35D"/>
<path d="M72.8212 94.3156H44.3789C44.3789 90.0708 45.3096 86.0303 47.012 82.3984L72.8212 94.3156Z" fill="#AB1F24"/>
</svg>
