<svg width="60" height="60" viewBox="0 0 60 60" fill="none" xmlns="http://www.w3.org/2000/svg">
<path d="M12.7406 47.5C11.59 47.5 10.6292 47.1146 9.8584 46.3438C9.08757 45.5729 8.70215 44.6122 8.70215 43.4616V16.5384C8.70215 15.3878 9.08757 14.4271 9.8584 13.6562C10.6292 12.8854 11.59 12.5 12.7406 12.5H39.6637C40.8144 12.5 41.7751 12.8854 42.546 13.6562C43.3168 14.4271 43.7022 15.3878 43.7022 16.5384V28.1731L51.2984 20.5769V39.4231L43.7022 31.8269V43.4616C43.7022 44.6122 43.3168 45.5729 42.546 46.3438C41.7751 47.1146 40.8144 47.5 39.6637 47.5H12.7406Z" fill="#251741"/>
<path d="M25.5235 26.3326H36.4172C35.8386 24.7765 34.9159 23.4017 33.6492 22.208C32.3825 21.0143 30.9381 20.2138 29.3159 19.8065L25.5235 26.3326ZM22.7848 28.9796L28.2826 19.5418C28.0399 19.4977 27.7379 19.4646 27.3765 19.4426C27.015 19.4205 26.713 19.4095 26.4704 19.4095C25.0145 19.4095 23.6579 19.6852 22.4005 20.2367C21.1432 20.7881 20.0292 21.5271 19.0586 22.4536L22.7848 28.9796ZM16.213 32.6448H23.7317L18.3357 23.2579C17.562 24.2132 16.9596 25.2538 16.5286 26.3796C16.0976 27.5055 15.8821 28.7115 15.8821 29.9977C15.8821 30.4609 15.9097 30.9076 15.9648 31.3378C16.02 31.7679 16.1027 32.2036 16.213 32.6448ZM23.6757 40.1889L27.4528 33.6629H16.5235C17.1021 35.2189 18.0333 36.5937 19.3169 37.7874C20.6006 38.9811 22.0535 39.7816 23.6757 40.1889ZM26.4704 40.5859C27.9262 40.5859 29.2829 40.3102 30.5402 39.7587C31.7976 39.2073 32.9115 38.4683 33.8821 37.5418L30.1559 31.0158L24.709 40.4027C24.9517 40.4638 25.2397 40.5096 25.5732 40.5401C25.9066 40.5707 26.2057 40.5859 26.4704 40.5859ZM34.605 36.7375C35.3109 35.8331 35.8963 34.7925 36.3612 33.6158C36.8261 32.439 37.0586 31.233 37.0586 29.9977C37.0586 29.5345 37.031 29.0878 36.9759 28.6576C36.9207 28.2275 36.838 27.7918 36.7277 27.3506H29.209L34.605 36.7375ZM26.4704 41.9095C24.8312 41.9095 23.2871 41.596 21.838 40.969C20.3889 40.342 19.1269 39.4911 18.052 38.4161C16.977 37.3412 16.126 36.0791 15.4991 34.6301C14.8721 33.181 14.5586 31.6369 14.5586 29.9977C14.5586 28.3535 14.8721 26.8081 15.4991 25.3615C16.126 23.915 16.977 22.6542 18.052 21.5793C19.1269 20.5043 20.3889 19.6534 21.838 19.0264C23.2871 18.3994 24.8312 18.0859 26.4704 18.0859C28.1146 18.0859 29.66 18.3994 31.1065 19.0264C32.5531 19.6534 33.8138 20.5043 34.8888 21.5793C35.9637 22.6542 36.8147 23.915 37.4417 25.3615C38.0686 26.8081 38.3821 28.3535 38.3821 29.9977C38.3821 31.6369 38.0686 33.181 37.4417 34.6301C36.8147 36.0791 35.9637 37.3412 34.8888 38.4161C33.8138 39.4911 32.5531 40.342 31.1065 40.969C29.66 41.596 28.1146 41.9095 26.4704 41.9095Z" fill="#F1FAFF"/>
</svg>
