<svg width="104" height="166" viewBox="0 0 104 166" fill="none" xmlns="http://www.w3.org/2000/svg">
<path d="M41.5911 5.85821C37.7286 15.2859 34.4128 24.8082 36.2954 34.7083C39.4169 50.7292 53.5669 63.401 69.3202 71.4429L63.8303 71.5689C70.0247 67.6529 75.624 63.1805 80.1544 58.0362C89.531 47.6531 93.7821 34.4774 93.4542 21.3541C93.2355 14.551 91.8752 7.77945 90.6728 0.46194L91.7659 0C97.7538 5.67973 100.839 12.9973 102.588 20.4407C108.734 43.6321 94.268 69.3642 69.5753 79.8522L67.1461 81.2485C41.9676 72.0728 21.0037 48.6189 26.8823 24.0943C28.765 16.4723 33.6841 9.6272 40.6194 5.23879L41.5911 5.86871V5.85821Z" fill="#44345D"/>
<g filter="url(#filter0_d_3608_4220)">
<path d="M25.3019 2.19389C11.3948 15.8945 11.6499 30.813 21.3302 46.0465C24.2938 50.5084 28.4113 53.9834 32.6988 57.9519L51.0877 74.3297C66.8046 88.5028 83.3595 103.474 91.643 122.14C96.805 133.92 92.9305 148.324 84.3554 157.699L83.2744 157.227C85.655 150.056 86.7725 142.749 85.2057 135.484C83.9425 128.439 79.3392 122.938 74.3958 117.279C66.5616 108.366 57.7316 100.356 48.5128 92.4397C39.3912 84.3453 29.6016 75.6315 21.1116 66.9702C16.6297 62.3298 11.6135 57.112 8.77131 51.1803C4.27732 41.3641 1.99388 29.9731 6.28139 19.737C9.59723 11.5691 16.5204 5.0705 24.5732 1.375L25.3262 2.19389H25.3019Z" fill="#DC0D0C"/>
</g>
<defs>
<filter id="filter0_d_3608_4220" x="0" y="1.375" width="97.9668" height="164.324" filterUnits="userSpaceOnUse" color-interpolation-filters="sRGB">
<feFlood flood-opacity="0" result="BackgroundImageFix"/>
<feColorMatrix in="SourceAlpha" type="matrix" values="0 0 0 0 0 0 0 0 0 0 0 0 0 0 0 0 0 0 127 0" result="hardAlpha"/>
<feOffset dy="4"/>
<feGaussianBlur stdDeviation="2"/>
<feComposite in2="hardAlpha" operator="out"/>
<feColorMatrix type="matrix" values="0 0 0 0 0 0 0 0 0 0 0 0 0 0 0 0 0 0 0.25 0"/>
<feBlend mode="normal" in2="BackgroundImageFix" result="effect1_dropShadow_3608_4220"/>
<feBlend mode="normal" in="SourceGraphic" in2="effect1_dropShadow_3608_4220" result="shape"/>
</filter>
</defs>
</svg>
