<svg width="74" height="119" viewBox="0 0 74 119" fill="none" xmlns="http://www.w3.org/2000/svg">
<path d="M30.3147 4.10076C27.611 10.7002 25.29 17.3657 26.6078 24.2959C28.7928 35.5105 38.6979 44.3807 49.7252 50.0101L45.8822 50.0983C50.2183 47.3571 54.1378 44.2264 57.3091 40.6254C63.8728 33.3572 66.8485 24.1342 66.619 14.9479C66.466 10.1857 65.5137 5.44563 64.672 0.323359L65.4372 0C69.6288 3.97582 71.7883 9.09809 73.0126 14.3085C77.3147 30.5425 67.1886 48.555 49.9037 55.8967L48.2033 56.8741C30.5783 50.451 15.9036 34.0333 20.0186 16.866C21.3364 11.5306 24.7798 6.73905 29.6346 3.66716L30.3147 4.1081V4.10076Z" fill="#44345D"/>
<g filter="url(#filter0_d_3411_3115)">
<path d="M18.9114 1.53416C9.17639 11.1246 9.35493 21.5676 16.1312 32.231C18.2057 35.3544 21.0879 37.7869 24.0892 40.5648L36.9615 52.0293C47.9633 61.9505 59.5517 72.4302 65.3502 85.4968C68.9636 93.7424 66.2514 103.825 60.2489 110.388L59.4922 110.057C61.1586 105.038 61.9408 99.9229 60.8441 94.8374C59.9598 89.9062 56.7375 86.0553 53.2771 82.0942C47.7932 75.8548 41.6122 70.2475 35.159 64.7064C28.7739 59.0403 21.9211 52.9406 15.9781 46.8776C12.8408 43.6294 9.32943 39.9769 7.33992 35.8247C4.19412 28.9534 2.59571 20.9797 5.59698 13.8144C7.91807 8.09684 12.7643 3.54779 18.4012 0.960938L18.9284 1.53416H18.9114Z" fill="#DC0D0C"/>
</g>
<defs>
<filter id="filter0_d_3411_3115" x="0" y="0.960938" width="70.9775" height="117.426" filterUnits="userSpaceOnUse" color-interpolation-filters="sRGB">
<feFlood flood-opacity="0" result="BackgroundImageFix"/>
<feColorMatrix in="SourceAlpha" type="matrix" values="0 0 0 0 0 0 0 0 0 0 0 0 0 0 0 0 0 0 127 0" result="hardAlpha"/>
<feOffset dy="4"/>
<feGaussianBlur stdDeviation="2"/>
<feComposite in2="hardAlpha" operator="out"/>
<feColorMatrix type="matrix" values="0 0 0 0 0 0 0 0 0 0 0 0 0 0 0 0 0 0 0.25 0"/>
<feBlend mode="normal" in2="BackgroundImageFix" result="effect1_dropShadow_3411_3115"/>
<feBlend mode="normal" in="SourceGraphic" in2="effect1_dropShadow_3411_3115" result="shape"/>
</filter>
</defs>
</svg>
