<svg width="60" height="60" viewBox="0 0 60 60" fill="none" xmlns="http://www.w3.org/2000/svg">
<g clip-path="url(#clip0_5217_4832)">
<path d="M27.4001 52.5C26.8201 52.5 26.3161 52.3094 25.8882 51.9281C25.4603 51.5465 25.1951 51.0704 25.0926 50.5L24.4338 45.2694C23.6359 45.029 22.773 44.6506 21.8451 44.1344C20.9171 43.6185 20.128 43.0658 19.4776 42.4762L14.6888 44.5337C14.1601 44.7675 13.6232 44.7931 13.0782 44.6106C12.5332 44.4277 12.1134 44.0815 11.8188 43.5719L9.12131 38.9281C8.82673 38.4185 8.74027 37.8865 8.86194 37.3319C8.9836 36.7773 9.2736 36.3221 9.73194 35.9662L13.9101 32.8412C13.8363 32.3896 13.7755 31.9242 13.7276 31.445C13.6792 30.9658 13.6551 30.5002 13.6551 30.0481C13.6551 29.6281 13.6792 29.1867 13.7276 28.7237C13.7755 28.2604 13.8363 27.7387 13.9101 27.1587L9.73194 24.0337C9.2736 23.6779 8.99152 23.2148 8.88569 22.6444C8.78027 22.074 8.87485 21.5338 9.16944 21.0238L11.8188 16.5238C12.1134 16.0463 12.5332 15.7081 13.0782 15.5094C13.6232 15.3106 14.1601 15.3283 14.6888 15.5625L19.4294 17.5719C20.1761 16.9502 20.9838 16.3894 21.8526 15.8894C22.7209 15.3894 23.5653 15.0031 24.3857 14.7306L25.0926 9.5C25.1951 8.92958 25.4603 8.45354 25.8882 8.07188C26.3161 7.69063 26.8201 7.5 27.4001 7.5H32.6026C33.1826 7.5 33.6865 7.69063 34.1144 8.07188C34.5424 8.45354 34.8076 8.92958 34.9101 9.5L35.5688 14.7788C36.5271 15.1154 37.374 15.5017 38.1094 15.9375C38.8449 16.3733 39.6021 16.9181 40.3813 17.5719L45.3619 15.5625C45.8907 15.3283 46.4276 15.3106 46.9726 15.5094C47.5176 15.7081 47.9374 16.0463 48.2319 16.5238L50.8813 21.0719C51.1759 21.5815 51.2624 22.1135 51.1407 22.6681C51.019 23.2227 50.729 23.6779 50.2707 24.0337L45.9001 27.3031C46.038 27.819 46.1151 28.2925 46.1313 28.7237C46.1472 29.1546 46.1551 29.58 46.1551 30C46.1551 30.3879 46.139 30.7973 46.1069 31.2281C46.0749 31.6594 46.0011 32.181 45.8857 32.7931L50.1119 35.9662C50.5703 36.3221 50.8684 36.7773 51.0063 37.3319C51.1438 37.8865 51.0653 38.4185 50.7707 38.9281L48.1069 43.5238C47.8124 44.0337 47.3844 44.38 46.8232 44.5625C46.2624 44.745 45.7176 44.7194 45.1888 44.4856L40.3813 42.4281C39.6021 43.0819 38.8184 43.6427 38.0301 44.1106C37.2417 44.5785 36.4213 44.9487 35.5688 45.2212L34.9101 50.5C34.8076 51.0704 34.5424 51.5465 34.1144 51.9281C33.6865 52.3094 33.1826 52.5 32.6026 52.5H27.4001ZM29.9338 36.25C31.6776 36.25 33.1553 35.6442 34.3669 34.4325C35.5782 33.2213 36.1838 31.7437 36.1838 30C36.1838 28.2563 35.5782 26.7788 34.3669 25.5675C33.1553 24.3558 31.6776 23.75 29.9338 23.75C28.1809 23.75 26.7009 24.3558 25.4938 25.5675C24.2871 26.7788 23.6838 28.2563 23.6838 30C23.6838 31.7437 24.2871 33.2213 25.4938 34.4325C26.7009 35.6442 28.1809 36.25 29.9338 36.25Z" fill="#251741"/>
<rect x="22" y="21" width="15" height="18" fill="#251741"/>
<path d="M29.6413 32.5006L22.211 31.6353C21.7703 31.5889 21.4879 31.3556 21.3638 30.9356C21.2396 30.5158 21.341 30.1609 21.6678 29.8709L33.8963 18.895C33.9523 18.8388 34.0172 18.7967 34.091 18.7688C34.1645 18.7406 34.2702 18.7266 34.4081 18.7266C34.6325 18.7266 34.81 18.8235 34.9406 19.0175C35.0713 19.2115 35.0724 19.4157 34.9441 19.6303L30.2903 27.5247L37.7688 28.39C38.2094 28.4365 38.4959 28.6656 38.6281 29.0775C38.7602 29.4894 38.6628 29.8403 38.336 30.1303L26.1075 41.1303C26.0515 41.1866 25.9866 41.2247 25.9128 41.2447C25.8393 41.2647 25.7336 41.2747 25.5956 41.2747C25.3713 41.2747 25.2018 41.1777 25.0872 40.9838C24.9726 40.7898 24.9715 40.5935 25.0838 40.395L29.6413 32.5006Z" fill="#F1FAFF"/>
</g>
<defs>
<clipPath id="clip0_5217_4832">
<rect width="60" height="60" fill="white"/>
</clipPath>
</defs>
</svg>
