<svg width="60" height="60" viewBox="0 0 60 60" fill="none" xmlns="http://www.w3.org/2000/svg">
<path d="M25.0005 34.9985V24.9985H35.0005V34.9985H25.0005ZM23.7505 48.8447V44.9985H19.0389C17.8883 44.9985 16.9276 44.6131 16.1567 43.8423C15.3859 43.0714 15.0005 42.1107 15.0005 40.9601V36.2485H11.1543V33.7485H15.0005V26.2485H11.1543V23.7485H15.0005V19.037C15.0005 17.8863 15.3859 16.9256 16.1567 16.1548C16.9276 15.3839 17.8883 14.9985 19.0389 14.9985H23.7505V11.1523H26.2505V14.9985H33.7505V11.1523H36.2505V14.9985H40.962C42.1127 14.9985 43.0734 15.3839 43.8442 16.1548C44.6151 16.9256 45.0005 17.8863 45.0005 19.037V23.7485H48.8467V26.2485H45.0005V33.7485H48.8467V36.2485H45.0005V40.9601C45.0005 42.1107 44.6151 43.0714 43.8442 43.8423C43.0734 44.6131 42.1127 44.9985 40.962 44.9985H36.2505V48.8447H33.7505V44.9985H26.2505V48.8447H23.7505ZM40.962 42.4985C41.3466 42.4985 41.6992 42.3383 42.0197 42.0178C42.3402 41.6972 42.5005 41.3447 42.5005 40.9601V19.037C42.5005 18.6524 42.3402 18.2998 42.0197 17.9793C41.6992 17.6588 41.3466 17.4985 40.962 17.4985H19.0389C18.6543 17.4985 18.3018 17.6588 17.9812 17.9793C17.6607 18.2998 17.5005 18.6524 17.5005 19.037V40.9601C17.5005 41.3447 17.6607 41.6972 17.9812 42.0178C18.3018 42.3383 18.6543 42.4985 19.0389 42.4985H40.962Z" fill="#F1FAFF"/>
</svg>
