<svg width="60" height="60" viewBox="0 0 60 60" fill="none" xmlns="http://www.w3.org/2000/svg">
<path d="M22.9327 54.2351C21.016 54.2351 19.3373 53.6549 17.8966 52.4946C16.4559 51.3344 15.4631 49.8472 14.9183 48.0331C14.4118 48.876 13.7123 49.5211 12.8197 49.9682C11.9271 50.4153 10.9872 50.6389 10 50.6389C8.25958 50.6389 6.78281 50.0299 5.56969 48.8119C4.35656 47.594 3.75 46.1196 3.75 44.3889C3.75 42.8536 4.28525 41.4554 5.35575 40.1941C6.42625 38.9329 7.77721 38.2943 9.40862 38.2783C8.56887 37.5091 7.90462 36.5836 7.41587 35.5018C6.92708 34.4201 6.68269 33.2943 6.68269 32.1244C6.68269 30.7462 7.02163 29.4481 7.6995 28.2302C8.37738 27.0122 9.3269 26.009 10.5481 25.2206C10.6602 25.586 10.8133 25.9794 11.0072 26.4009C11.2011 26.8224 11.399 27.2014 11.6009 27.5379C10.8253 28.1244 10.2388 28.8208 9.84138 29.6269C9.44392 30.433 9.24519 31.2863 9.24519 32.1869C9.24519 34.7767 10.2035 36.4466 12.1202 37.1966C14.0369 37.9466 16.0096 38.5203 18.0384 38.9177L18.6009 39.9081C18.1426 41.2415 17.7708 42.3689 17.4856 43.2903C17.2003 44.2118 17.0577 45.0635 17.0577 45.8456C17.0577 47.4161 17.6258 48.7823 18.762 49.9441C19.8982 51.106 21.2724 51.6869 22.8846 51.6869C24.6602 51.6869 26.117 51.0187 27.2548 49.6821C28.3926 48.3456 29.3269 46.759 30.0577 44.9225C30.7884 43.086 31.3549 41.1965 31.7572 39.2542C32.1594 37.3119 32.4968 35.7238 32.7692 34.4898L35.2404 35.1773C34.8974 36.828 34.4872 38.7495 34.0096 40.9417C33.532 43.134 32.8517 45.2118 31.9688 47.1749C31.0858 49.1381 29.9303 50.8055 28.5024 52.1773C27.0745 53.5491 25.2179 54.2351 22.9327 54.2351ZM25.2019 37.8312C23.5096 36.3152 21.9623 34.8977 20.5601 33.5788C19.1579 32.2598 17.9503 30.9666 16.9375 29.6989C15.9247 28.4313 15.1402 27.1637 14.5841 25.8961C14.028 24.6284 13.75 23.3087 13.75 21.9369C13.75 19.5811 14.5569 17.5964 16.1707 15.9826C17.7844 14.3688 19.7692 13.5619 22.125 13.5619C22.5801 13.5619 22.9904 13.5884 23.3557 13.6413C23.7211 13.6941 24.0673 13.7686 24.3943 13.8648C24.1955 13.4802 24.0384 13.0876 23.9231 12.6869C23.8077 12.2863 23.75 11.8568 23.75 11.3984C23.75 9.66769 24.359 8.19333 25.5769 6.97538C26.7949 5.75742 28.2692 5.14844 30 5.14844C31.7308 5.14844 33.2051 5.75742 34.4231 6.97538C35.641 8.19333 36.25 9.66769 36.25 11.3984C36.25 11.8568 36.1923 12.2839 36.0769 12.6797C35.9616 13.0755 35.8045 13.4658 35.6058 13.8504C35.9327 13.7542 36.2789 13.6821 36.6442 13.6341C37.0096 13.586 37.4199 13.5619 37.875 13.5619C39.766 13.5619 41.4183 14.0996 42.8317 15.1749C44.2452 16.2502 45.2148 17.6228 45.7404 19.2927C45.343 19.2318 44.8999 19.2014 44.4111 19.2014C43.9223 19.2014 43.4744 19.227 43.0673 19.2783C42.6154 18.32 41.9319 17.5443 41.0168 16.9514C40.1018 16.3584 39.0545 16.0619 37.875 16.0619C36.3205 16.0619 35.0809 16.465 34.1562 17.2711C33.2316 18.0771 32.0289 19.3408 30.5481 21.0619H29.3894C27.867 19.2895 26.6434 18.0131 25.7188 17.2326C24.7941 16.4522 23.5962 16.0619 22.125 16.0619C20.4391 16.0619 19.0385 16.6196 17.9231 17.735C16.8077 18.8504 16.25 20.251 16.25 21.9369C16.25 22.8953 16.4968 23.8929 16.9904 24.9298C17.484 25.9666 18.1963 27.0579 19.1274 28.2038C20.0585 29.3496 21.1819 30.5683 22.4976 31.86C23.8133 33.1517 25.3093 34.5475 26.9856 36.0475L25.2019 37.8312ZM36.9087 54.2831C36.3125 54.2831 35.7268 54.2222 35.1514 54.1004C34.5761 53.9786 34.016 53.7751 33.4711 53.4898C33.7051 53.1949 33.9391 52.844 34.1731 52.4369C34.4071 52.0299 34.6154 51.6533 34.7981 51.3071C35.1603 51.4706 35.5305 51.5828 35.9087 51.6437C36.2869 51.7046 36.657 51.735 37.0192 51.735C38.641 51.735 40.0281 51.1541 41.1803 49.9923C42.3325 48.8304 42.9086 47.4434 42.9086 45.8312C42.9086 45.0395 42.766 44.1934 42.4808 43.2927C42.1955 42.3921 41.8237 41.2751 41.3654 39.9417L41.9759 38.9514C44.0465 38.5539 46.0297 37.9722 47.9255 37.2062C49.8213 36.4402 50.7692 34.7623 50.7692 32.1725C50.7692 30.1533 50.0585 28.6565 48.637 27.6821C47.2155 26.7078 45.6154 26.2206 43.8366 26.2206C42.1506 26.2206 40.1891 26.5059 37.9519 27.0764C35.7148 27.6469 33.1298 28.4209 30.1971 29.3985L29.5096 26.9273C32.375 26.0139 34.9503 25.235 37.2356 24.5908C39.5208 23.9465 41.6298 23.6244 43.5625 23.6244C46.085 23.6244 48.3334 24.3664 50.3077 25.8504C52.2821 27.3344 53.2692 29.4418 53.2692 32.1725C53.2692 33.3424 53.0329 34.4441 52.5601 35.4778C52.0874 36.5115 51.4311 37.445 50.5914 38.2783C52.2228 38.3264 53.5737 38.965 54.6442 40.1941C55.7147 41.4233 56.25 42.8215 56.25 44.3889C56.25 46.0876 55.6434 47.5539 54.4303 48.7879C53.2172 50.0219 51.7404 50.6389 50 50.6389C49.0128 50.6389 48.0729 50.4153 47.1803 49.9682C46.2877 49.5211 45.5882 48.876 45.0817 48.0331C44.5369 49.8472 43.5281 51.3424 42.0553 52.5187C40.5826 53.6949 38.867 54.2831 36.9087 54.2831Z" fill="#251741"/>
</svg>
