<svg width="60" height="60" viewBox="0 0 60 60" fill="none" xmlns="http://www.w3.org/2000/svg">
<path d="M29.5 49.9663C28.125 49.9663 26.9479 49.4823 25.9688 48.5144C24.9896 47.5465 24.5 46.375 24.5 45C24.5 43.625 24.9896 42.4479 25.9688 41.4688C26.9479 40.4896 28.125 40 29.5 40L31 38.5625C31.3333 38.2292 31.7188 37.9688 32.1562 37.7812C32.5938 37.5938 33.0417 37.5 33.5 37.5C34.4583 37.5 35.2812 37.8542 35.9688 38.5625C36.6562 39.2708 37 40.1042 37 41.0625V42.125C37 42.9583 37.2708 43.6458 37.8125 44.1875C38.3542 44.7292 39.0417 45 39.875 45C40.5 45 41.0625 44.8125 41.5625 44.4375C42.0625 44.0625 42.4167 43.5833 42.625 43L43.375 40.9375C43.75 39.9375 44.3381 39.1146 45.1394 38.4688C45.9406 37.8229 46.8829 37.5 47.9663 37.5C48.4246 36.3333 48.7892 35.125 49.06 33.875C49.3308 32.625 49.4663 31.3333 49.4663 30C49.4663 26.2917 48.5552 22.9223 46.7331 19.8919C44.911 16.8615 42.5 14.4712 39.5 12.7212V15C39.5 16.375 39.0104 17.5521 38.0312 18.5312C37.0521 19.5104 35.875 20 34.5 20H32V25C32 25.7083 31.7604 26.3021 31.2812 26.7812C30.8021 27.2604 30.2083 27.5 29.5 27.5H27V31.75C27 32.6667 26.6875 33.4375 26.0625 34.0625C25.4375 34.6875 24.6667 35 23.75 35C23.1667 35 22.6354 34.875 22.1562 34.625C21.6771 34.375 21.2917 34.0208 21 33.5625L17 27.5H14.5V30C14.5 31.2917 14.0775 32.3958 13.2325 33.3125C12.3875 34.2292 11.3629 34.7708 10.1587 34.9375C11.2421 39.2708 13.5698 42.859 17.1419 45.7019C20.714 48.5448 24.8333 49.9663 29.5 49.9663ZM34.5 35C33.7917 35 33.1979 34.7604 32.7188 34.2812C32.2396 33.8021 32 33.2083 32 32.5C32 31.7917 32.2396 31.1979 32.7188 30.7188C33.1979 30.2396 33.7917 30 34.5 30H37C37.7083 30 38.3021 30.2396 38.7812 30.7188C39.2604 31.1979 39.5 31.7917 39.5 32.5C39.5 33.2083 39.2604 33.8021 38.7812 34.2812C38.3021 34.7604 37.7083 35 37 35H34.5ZM40.3125 27.5C39.4792 27.5 38.8229 27.1771 38.3438 26.5312C37.8646 25.8854 37.75 25.1667 38 24.375L38.9375 21.625C39.1042 21.125 39.3958 20.7292 39.8125 20.4375C40.2292 20.1458 40.6875 20 41.1875 20C42.0208 20 42.6771 20.3229 43.1562 20.9688C43.6354 21.6146 43.75 22.3333 43.5 23.125L42.5625 25.875C42.3958 26.375 42.1042 26.7708 41.6875 27.0625C41.2708 27.3542 40.8125 27.5 40.3125 27.5ZM29.5081 52.5C26.3969 52.5 23.4717 51.9096 20.7325 50.7288C17.9937 49.5479 15.6112 47.9454 13.585 45.9212C11.5588 43.8971 9.95479 41.5167 8.77312 38.78C7.59104 36.0438 7 33.1198 7 30.0081C7 26.8969 7.59042 23.9717 8.77125 21.2325C9.95208 18.4937 11.5546 16.1112 13.5787 14.085C15.6029 12.0587 17.9833 10.4548 20.72 9.27312C23.4562 8.09104 26.3802 7.5 29.4919 7.5C32.6031 7.5 35.5283 8.09042 38.2675 9.27125C41.0063 10.4521 43.3888 12.0546 45.415 14.0788C47.4412 16.1029 49.0452 18.4833 50.2269 21.22C51.409 23.9563 52 26.8802 52 29.9919C52 33.1031 51.4096 36.0283 50.2287 38.7675C49.0479 41.5062 47.4454 43.8888 45.4212 45.915C43.3971 47.9412 41.0167 49.5452 38.28 50.7269C35.5437 51.909 32.6198 52.5 29.5081 52.5Z" fill="#251741"/>
</svg>
