<svg width="60" height="60" viewBox="0 0 60 60" fill="none" xmlns="http://www.w3.org/2000/svg">
<path d="M34.2745 47.451C33.8803 47.9286 33.3955 48.1906 32.8202 48.2371C32.2449 48.2836 31.7184 48.1097 31.2409 47.7155L23.1207 40.9174C21.3578 39.4559 20.0982 37.6594 19.3418 35.528C18.5854 33.3966 18.3883 31.2106 18.7505 28.9702L15.7793 26.4654C15.3114 26.1032 15.0542 25.6473 15.0077 25.0977C14.9612 24.548 15.1143 24.0344 15.4668 23.5568L16.188 22.6914H11.1543L11.1543 29.5664C11.1543 30.2363 10.9051 30.8204 10.4067 31.3188C9.90832 31.8172 9.32417 32.0664 8.6543 32.0664L8.6543 10.8164C9.32417 10.8164 9.90832 11.0656 10.4067 11.564C10.9051 12.0624 11.1543 12.6465 11.1543 13.3164L11.1543 20.1914H18.2457L22.2649 15.3116C22.6912 14.8661 23.192 14.6201 23.7673 14.5736C24.3426 14.5271 24.853 14.685 25.2985 15.0472L28.2072 17.4895C30.3643 16.6914 32.563 16.4895 34.8034 16.8837C37.0438 17.2779 39.0454 18.2058 40.8082 19.6673L48.9284 26.4654C49.3739 26.8597 49.6199 27.3444 49.6664 27.9198C49.7129 28.4951 49.555 29.0007 49.1928 29.4366L34.2745 47.451Z" fill="#F1FAFF"/>
</svg>
