<svg width="148" height="148" viewBox="0 0 148 148" fill="none" xmlns="http://www.w3.org/2000/svg">
<path d="M24.5891 83.5153C40.8323 56.2141 57.0747 28.9128 73.3197 1.61328C70.2853 20.3051 67.2392 38.9944 64.2048 57.6862C64.183 57.882 63.9873 57.9916 63.8694 58.1352C43.1326 79.4494 22.3913 100.759 1.65625 122.075C9.28483 109.213 16.9487 96.3707 24.5891 83.5153Z" fill="#062F62"/>
<path d="M74.9375 1.60547C98.8537 41.7656 122.746 81.9388 146.66 122.101C137.131 112.342 127.625 102.56 118.102 92.7947C106.787 81.1757 95.4695 69.5576 84.1531 57.9394C84.037 57.7907 84.057 57.5888 84.018 57.4165C80.9945 38.8125 77.961 20.2094 74.9375 1.60547Z" fill="#062F62"/>
<path d="M40.1576 87.1418C40.7776 86.497 41.3531 85.8106 41.9975 85.1902C46.0406 85.171 50.0856 85.1841 54.1296 85.1832C47.1336 97.4905 40.1014 109.779 33.1064 122.086C24.654 122.086 16.2024 122.089 7.75 122.085C18.5562 110.44 29.3542 98.7886 40.1576 87.1418Z" fill="#062F62"/>
<path d="M58.134 85.1807C65.1916 85.1825 72.2483 85.1764 79.305 85.1825C79.9294 89.2762 80.5621 93.3681 81.1847 97.4619C78.85 97.4636 76.5162 97.4645 74.1815 97.4636C74.1806 105.671 74.1815 113.878 74.1806 122.087C66.7868 122.088 59.3929 122.082 52 122.09C53.0704 118.554 54.1942 115.033 55.2854 111.503C56.7392 106.847 58.1821 102.189 59.6404 97.5349C57.2522 97.5367 54.8649 97.5349 52.4767 97.5367C54.3637 93.4186 56.2471 89.2988 58.134 85.1807Z" fill="#062F62"/>
<path d="M86.3426 85.3685C87.1175 85.0614 87.9622 85.205 88.7743 85.1815C94.6346 85.1797 100.495 85.1841 106.356 85.1789C109.811 88.8845 113.246 92.6102 116.699 96.3184C111.919 96.3202 107.138 96.315 102.358 96.3219C101.412 96.3428 100.702 97.4269 101.152 98.2457C102.602 100.856 104.08 103.453 105.538 106.061C106.107 107.271 107.423 108.099 108.806 108.119C114.455 108.12 120.104 108.119 125.753 108.119C126.372 108.129 126.994 108.1 127.613 108.131C131.918 112.766 136.199 117.425 140.491 122.071C126.213 122.074 111.936 122.074 97.6573 122.072C97.0255 122.056 96.3875 122.145 95.7621 122.026C94.2377 121.799 92.8664 120.811 92.2093 119.472C91.8857 118.866 91.7924 118.185 91.6066 117.536C89.1441 108.052 86.6689 98.5702 84.2128 89.0846C83.8403 87.5646 84.8064 85.881 86.3426 85.3685Z" fill="#062F62"/>
<path d="M39.1031 132.596C40.4128 131.511 42.1638 130.856 43.9067 131.033C44.9916 131.118 46.0356 131.532 46.8903 132.177C47.1568 132.364 47.5401 132.594 47.8583 132.378C48.267 132.048 48.1429 131.431 48.5407 131.093C48.6613 131.162 48.8362 131.214 48.8099 131.387C48.838 133.095 48.8317 134.807 48.8978 136.515C48.906 136.752 48.8897 136.994 48.7999 137.221C48.674 137.182 48.5009 137.172 48.4719 137.02C48.1719 136.21 47.9407 135.372 47.5447 134.599C47.1912 133.922 46.8096 133.247 46.274 132.686C45.665 132.032 44.8311 131.542 43.9103 131.455C42.7103 131.347 41.3526 131.684 40.6221 132.667C40.0928 133.363 39.8826 134.221 39.704 135.051C39.472 136.341 39.4058 137.651 39.3415 138.958C39.3234 140.582 39.3469 142.257 39.9641 143.793C40.3085 144.649 40.8904 145.464 41.7587 145.893C42.6985 146.366 43.8142 146.308 44.8221 146.097C46.0003 145.855 47.0698 145.143 47.6788 144.139C48.2951 143.183 48.4755 142.047 48.538 140.944C48.7474 140.892 48.9622 140.903 49.1734 140.944C49.2033 141.061 49.273 141.176 49.2486 141.305C49.1743 142.104 49.0193 142.901 48.7338 143.658C48.2145 145.076 46.8604 146.133 45.3514 146.469C44.2864 146.701 43.159 146.831 42.085 146.575C40.8161 146.281 39.6451 145.659 38.65 144.855C38.311 144.575 37.9883 144.267 37.7663 143.891C37.3729 143.247 36.9424 142.617 36.6624 141.915C35.9092 140.068 35.9147 137.949 36.6787 136.106C37.2134 134.79 38.0264 133.564 39.1031 132.596Z" fill="#062F62"/>
<path d="M136.898 131.159C137.235 131.137 137.571 131.067 137.91 131.105C138.125 131.143 138.271 131.343 138.257 131.55C138.264 135.843 138.26 140.137 138.259 144.43C138.242 144.871 138.226 145.426 138.67 145.694C139.214 145.955 139.849 145.889 140.44 145.899C140.542 146.034 140.562 146.275 140.336 146.287C138.98 146.372 137.622 146.422 136.265 146.486C136.016 146.512 135.697 146.43 135.644 146.162C135.603 145.729 135.657 145.293 135.623 144.862C135.581 144.804 135.538 144.75 135.495 144.701C135.191 145.029 134.915 145.386 134.549 145.659C133.609 146.413 132.302 146.725 131.106 146.458C129.806 146.191 128.716 145.299 128.066 144.207C127.194 142.747 126.967 140.935 127.486 139.325C127.937 137.954 128.915 136.731 130.232 136.031C131.191 135.521 132.359 135.305 133.425 135.613C134.322 135.856 135.022 136.495 135.547 137.21C135.689 137 135.611 136.745 135.62 136.513C135.61 135.295 135.621 134.077 135.619 132.859C135.626 132.465 135.365 132.072 134.976 131.936C134.422 131.738 133.822 131.812 133.246 131.757C133.251 131.618 133.2 131.438 133.384 131.395C134.556 131.316 135.727 131.232 136.898 131.159ZM132.22 136.035C131.529 136.227 131.053 136.807 130.775 137.417C130.268 138.527 130.193 139.759 130.155 140.953C130.18 141.8 130.211 142.653 130.399 143.484C130.552 144.14 130.792 144.81 131.282 145.309C131.81 145.858 132.674 146.066 133.418 145.866C133.899 145.721 134.31 145.402 134.595 145.008C135.205 144.194 135.448 143.189 135.568 142.21C135.702 140.872 135.652 139.492 135.218 138.205C134.963 137.49 134.579 136.772 133.929 136.317C133.447 135.97 132.795 135.863 132.22 136.035Z" fill="#062F62"/>
<path d="M74.9265 131.31C75.7784 131.061 76.7554 131.668 76.8497 132.521C77.0074 133.365 76.2443 134.211 75.3552 134.198C74.5775 134.229 73.8588 133.607 73.8062 132.863C73.721 132.172 74.2268 131.478 74.9265 131.31Z" fill="#062F62"/>
<path d="M104.651 131.308C105.594 131.037 106.639 131.828 106.566 132.774C106.57 133.663 105.61 134.379 104.713 134.168C103.949 134.023 103.397 133.267 103.522 132.528C103.587 131.95 104.064 131.445 104.651 131.308Z" fill="#062F62"/>
<path d="M111.436 131.553C111.461 131.268 111.967 131.278 111.991 131.56C111.994 132.834 111.987 134.11 111.99 135.383C111.954 135.572 112.132 135.743 112.327 135.731C113.267 135.746 114.209 135.715 115.149 135.744C115.428 135.764 115.47 136.16 115.238 136.276C114.299 136.274 113.358 136.259 112.419 136.275C112.144 136.261 111.962 136.528 111.992 136.772C111.987 139.383 111.994 141.995 111.989 144.607C111.97 145.093 112.162 145.643 112.641 145.874C113.332 146.196 114.254 146.027 114.733 145.435C115.238 144.809 115.367 143.982 115.364 143.211C115.343 143.066 115.422 142.945 115.491 142.827C115.624 142.847 115.807 142.796 115.89 142.936C116.012 143.09 115.936 143.292 115.933 143.47C115.86 144.429 115.565 145.441 114.82 146.121C114.31 146.605 113.583 146.825 112.879 146.835C112.046 146.851 111.179 146.745 110.449 146.336C109.754 145.954 109.278 145.207 109.29 144.433C109.293 141.939 109.291 139.444 109.292 136.95C109.268 136.736 109.299 136.46 109.096 136.319C108.833 136.218 108.534 136.285 108.258 136.268C107.946 136.242 107.597 136.363 107.325 136.173C107.316 135.987 107.362 135.72 107.616 135.738C108.924 135.847 110.142 135.003 110.719 133.919C111.097 133.177 111.306 132.366 111.436 131.553Z" fill="#062F62"/>
<path d="M19.5135 131.559C24.0388 131.56 28.5641 131.557 33.0894 131.56C33.0804 133.542 33.103 135.524 33.0786 137.505C33.0976 137.782 32.7314 137.837 32.5647 137.66C32.3399 136.205 31.8686 134.775 31.0828 133.508C30.723 132.948 30.2345 132.39 29.5412 132.225C29.0209 132.115 28.4853 132.057 27.9542 132.091C27.7584 132.222 27.7394 132.479 27.7385 132.691C27.7439 136.75 27.7394 140.81 27.7403 144.868C27.7231 145.216 27.917 145.572 28.2632 145.705C29.0363 146.018 29.9037 145.906 30.7067 146.082C30.7448 146.275 30.6623 146.509 30.4112 146.466C27.6306 146.472 24.8491 146.464 22.0685 146.47C21.9271 146.46 21.744 146.486 21.6597 146.348C21.6624 146.278 21.6688 146.135 21.6715 146.065C22.5715 145.921 23.5277 145.913 24.3533 145.494C24.598 145.369 24.8881 145.178 24.8745 144.879C24.8772 140.758 24.8754 136.637 24.8754 132.516C24.8899 132.342 24.8228 132.102 24.6062 132.089C23.9319 132.048 23.2104 132.104 22.6186 132.446C21.8763 132.933 21.415 133.708 21.028 134.468C20.5196 135.459 20.254 136.541 20.0175 137.616C19.9295 137.83 19.6622 137.776 19.5117 137.657C19.5135 135.624 19.5126 133.591 19.5135 131.559Z" fill="#062F62"/>
<path d="M7.81481 132.01C7.79306 131.856 7.78672 131.617 8.0142 131.632C10.5556 131.629 13.0978 131.628 15.6401 131.631C15.8685 131.614 15.854 131.855 15.8385 132.008C15.1361 132.166 14.3721 132.106 13.7087 132.415C13.4331 132.541 13.2519 132.828 13.2773 133.124C13.2782 137.07 13.2754 141.015 13.2782 144.961C13.2528 145.304 13.5247 145.597 13.8492 145.705C14.4446 145.908 15.0863 145.933 15.7089 146.01C15.8576 146.053 15.8793 146.213 15.8304 146.338C15.718 146.475 15.5231 146.441 15.3636 146.452C12.9455 146.445 10.5275 146.454 8.10937 146.447C7.88913 146.479 7.73777 146.293 7.81209 146.095C7.96254 145.943 8.20091 145.999 8.39486 145.962C8.88791 145.897 9.39817 145.865 9.86312 145.681C10.1658 145.567 10.3888 145.277 10.3752 144.96C10.3788 141.012 10.3761 137.065 10.3761 133.118C10.3997 132.776 10.1513 132.471 9.82596 132.359C9.18246 132.122 8.47915 132.149 7.81481 132.01Z" fill="#062F62"/>
<path d="M57.8846 131.66C60.5655 131.623 63.25 131.653 65.9319 131.644C66.182 131.579 66.3243 131.953 66.095 132.058C65.3337 132.169 64.5271 132.118 63.7956 132.386C63.4077 132.516 63.2002 132.912 63.2292 133.292C63.231 137.154 63.2228 141.016 63.2319 144.877C63.2011 145.286 63.5038 145.661 63.9108 145.766C64.6286 145.961 65.389 146.043 66.1304 145.93C67.159 145.808 68.272 145.617 69.0496 144.902C70.1644 143.874 70.5877 142.377 70.826 140.958C70.8695 140.765 70.8532 140.464 71.0979 140.399C71.349 140.463 71.3717 140.744 71.3707 140.952C71.3707 142.665 71.3698 144.378 71.3717 146.092C71.4052 146.252 71.2837 146.441 71.1034 146.443C66.9642 146.456 62.8241 146.475 58.684 146.468C58.4157 146.453 58.1374 146.504 57.8773 146.434C57.6797 146.347 57.7541 146.036 57.9598 146.03C58.5843 145.94 59.2395 145.943 59.8323 145.711C60.1812 145.579 60.396 145.227 60.3715 144.872C60.3715 140.985 60.3697 137.097 60.3715 133.21C60.3951 132.831 60.125 132.479 59.7552 132.36C59.1788 132.176 58.5643 132.149 57.9661 132.077C57.7368 132.067 57.6961 131.758 57.8846 131.66Z" fill="#062F62"/>
<path d="M86.1029 136.217C86.6748 135.832 87.3482 135.558 88.0542 135.538C88.8871 135.502 89.7708 135.627 90.4578 136.112C91.0179 136.506 91.4058 137.096 91.6224 137.724C91.6741 137.879 91.7584 138.022 91.8544 138.159C92.1236 137.907 92.2142 137.542 92.459 137.274C92.9583 136.698 93.5538 136.185 94.2625 135.858C95.1127 135.441 96.1196 135.471 97.0305 135.661C98.2821 135.918 99.3525 137.009 99.3842 138.261C99.425 138.955 99.3743 139.649 99.3761 140.343C99.2927 141.851 99.328 143.364 99.2465 144.871C99.2202 145.202 99.3235 145.579 99.6634 145.732C100.175 145.957 100.752 145.985 101.3 146.082C101.328 146.202 101.325 146.325 101.297 146.448C100.053 146.493 98.8069 146.455 97.5625 146.468C96.4985 146.455 95.4335 146.492 94.3713 146.448C94.3396 146.324 94.3387 146.201 94.3722 146.082C94.9115 145.995 95.4671 145.957 95.9819 145.769C96.2846 145.654 96.4858 145.355 96.4667 145.043C96.4903 142.955 96.4658 140.868 96.4785 138.782C96.5347 138.205 96.5202 137.596 96.2619 137.062C96.0598 136.642 95.603 136.35 95.119 136.354C94.4076 136.325 93.7469 136.696 93.2837 137.19C92.517 138.014 92.0584 139.071 91.8825 140.156C91.7112 140.874 91.7729 141.613 91.7629 142.344C91.7656 143.246 91.7566 144.149 91.7656 145.052C91.7493 145.366 91.9614 145.657 92.2623 145.773C92.7381 145.956 93.2592 145.973 93.7541 146.084C93.8973 146.16 93.8946 146.366 93.7478 146.44C93.5728 146.48 93.3925 146.464 93.2157 146.468C91.1892 146.462 89.1626 146.472 87.1361 146.465C86.9222 146.52 86.7291 146.266 86.8914 146.106C87.476 145.929 88.153 145.998 88.6832 145.664C89.0657 145.406 88.985 144.91 88.9895 144.522C88.9932 142.433 88.9768 140.345 89.0004 138.258C88.9569 137.679 88.8645 137.026 88.3932 136.614C88.0297 136.295 87.4868 136.31 87.0436 136.438C86.3865 136.617 85.8672 137.087 85.4811 137.61C85.0062 138.273 84.6582 139.024 84.5204 139.821C84.1651 141.365 84.3346 142.952 84.2947 144.518C84.2938 144.922 84.2295 145.45 84.6518 145.694C85.1603 145.962 85.7621 145.968 86.3195 146.079C86.3421 146.118 86.3856 146.198 86.4074 146.237C86.3875 146.29 86.3467 146.394 86.3267 146.446C85.3896 146.495 84.4497 146.455 83.5117 146.468C82.1205 146.462 80.7283 146.481 79.338 146.459C79.1033 146.453 79.1096 146.19 79.232 146.062C79.8111 146.014 80.403 145.972 80.9594 145.798C81.2939 145.701 81.5486 145.39 81.5186 145.048C81.5214 142.461 81.5241 139.874 81.5186 137.287C81.5295 136.944 81.2477 136.657 80.9187 136.566C80.441 136.429 79.9407 136.385 79.4477 136.325C79.1386 136.282 79.2619 135.829 79.5202 135.823C80.8824 135.775 82.2437 135.702 83.605 135.632C83.9159 135.599 84.2839 135.765 84.312 136.098C84.379 136.695 84.2385 137.296 84.3047 137.897C84.4135 138.113 84.5848 137.9 84.641 137.768C84.9518 137.123 85.5156 136.631 86.1029 136.217Z" fill="#062F62"/>
<path d="M120.88 135.577C122.374 135.379 124.004 135.769 125.108 136.786C126.133 137.74 126.504 139.178 126.434 140.512C126.442 140.674 126.29 140.814 126.12 140.78C123.855 140.77 121.59 140.793 119.325 140.798C119.097 140.799 119.024 141.041 119.02 141.22C118.941 142.344 118.993 143.519 119.47 144.564C119.789 145.273 120.433 145.857 121.226 146.033C122.45 146.298 123.845 145.983 124.719 145.092C125.273 144.536 125.621 143.809 125.767 143.057C125.79 142.896 125.922 142.713 126.117 142.756C126.427 142.799 126.332 143.169 126.321 143.382C126.074 144.643 125.125 145.745 123.892 146.235C122.367 146.847 120.541 146.826 119.084 146.05C117.452 145.215 116.325 143.572 116.119 141.814C115.709 138.984 117.934 136.042 120.88 135.577ZM121.17 136.043C120.69 136.142 120.256 136.424 119.976 136.811C119.352 137.66 119.241 138.727 119.107 139.728C119.058 139.98 119.176 140.346 119.503 140.324C120.652 140.336 121.8 140.328 122.948 140.327C123.265 140.337 123.669 140.267 123.779 139.932C123.925 139.447 123.916 138.932 123.885 138.433C123.847 137.74 123.699 136.989 123.164 136.484C122.642 135.998 121.854 135.932 121.17 136.043Z" fill="#062F62"/>
<path d="M75.006 135.787C75.4601 135.783 75.9114 135.692 76.3646 135.727C76.6265 135.763 76.747 136.018 76.7217 136.251C76.7244 139.214 76.7162 142.177 76.7235 145.14C76.7108 145.438 76.9564 145.685 77.2401 145.772C77.8047 145.947 78.4047 145.978 78.9857 146.083C79.1842 146.155 79.1153 146.483 78.8996 146.463C76.6029 146.476 74.3054 146.47 72.0097 146.464C71.7831 146.493 71.7776 146.245 71.8239 146.101C72.3613 145.956 72.9051 145.83 73.4471 145.699C73.8259 145.605 74.1024 145.256 74.0752 144.877C74.0806 142.378 74.077 139.878 74.0743 137.379C74.0924 137.042 73.8722 136.723 73.5459 136.604C73.0311 136.424 72.4773 136.397 71.9399 136.323C71.7794 136.279 71.8239 136.105 71.8012 135.989C72.0405 135.899 72.2988 135.899 72.5525 135.895C73.371 135.879 74.1867 135.801 75.006 135.787Z" fill="#062F62"/>
<path d="M102.917 135.874C103.882 135.806 104.851 135.797 105.816 135.718C106.067 135.679 106.416 135.797 106.408 136.09C106.419 139.077 106.408 142.065 106.415 145.052C106.398 145.353 106.587 145.641 106.883 145.75C107.466 145.953 108.094 145.972 108.699 146.085C108.922 146.194 108.772 146.524 108.537 146.467C106.268 146.469 103.998 146.474 101.73 146.465C101.524 146.498 101.409 146.218 101.577 146.112C102.12 145.901 102.712 145.844 103.263 145.659C103.6 145.547 103.793 145.211 103.784 144.881C103.787 142.38 103.787 139.879 103.784 137.377C103.802 137.024 103.557 136.696 103.21 136.587C102.708 136.43 102.177 136.386 101.655 136.33C101.496 136.279 101.531 136.102 101.515 135.982C101.969 135.851 102.45 135.915 102.917 135.874Z" fill="#062F62"/>
</svg>
