<svg width="148" height="148" viewBox="0 0 148 148" fill="none" xmlns="http://www.w3.org/2000/svg">
<rect width="148" height="148" fill="#F1FAFF"/>
<g clip-path="url(#clip0_3969_4657)">
<mask id="mask0_3969_4657" style="mask-type:luminance" maskUnits="userSpaceOnUse" x="4" y="65" width="140" height="18">
<path d="M143.988 65H4V82.0323H143.988V65Z" fill="white"/>
</mask>
<g mask="url(#mask0_3969_4657)">
<path fill-rule="evenodd" clip-rule="evenodd" d="M34.0049 69.5645H43.5345C45.6956 69.5645 47.4661 71.271 47.4661 73.3539V82.0323H33.2157C31.9179 82.0524 30.8484 81.0209 30.8223 79.723V76.7187C30.8544 75.517 31.8438 74.5617 33.0475 74.5737H40.9528L40.1156 76.3182H34.3073C34.0349 76.3062 33.7986 76.5084 33.7705 76.7808V79.1522C33.7986 79.4246 34.0349 79.6269 34.3073 79.6149H44.3957V73.9268C44.3957 72.8232 43.4123 71.982 42.3207 71.982H32.8512L34.0049 69.5645ZM112.317 65.03V82.0323H98.4249C97.125 82.0564 96.0495 81.0249 96.0215 79.725V73.3539C96.0215 71.271 97.79 69.5645 99.9531 69.5645H107.87L106.705 71.982H101.177C100.085 71.982 99.1019 72.8232 99.1019 73.9268V79.1522C99.1299 79.4246 99.3662 79.6269 99.6386 79.6149H109.236V65.03H112.317ZM63.495 82.0303H66.5734V73.3539C66.5734 71.271 64.8049 69.5645 62.6418 69.5645H56.1124L54.9508 71.982H61.42C62.5136 71.982 63.495 72.8232 63.495 73.9268V82.0303ZM50.6907 65.03V82.0323H53.7691V65.03H50.6907ZM25.026 82.0323H28.1044V73.3539C28.1044 71.271 26.3359 69.5645 24.1728 69.5645H4V82.0323H7.0784V72.4446C7.10844 72.1722 7.34278 71.97 7.61717 71.982H13.9763C14.2486 71.97 14.485 72.1722 14.513 72.4446V82.0323H17.5914V72.4446C17.6195 72.1722 17.8558 71.968 18.1302 71.982H22.9511C24.0446 71.982 25.026 72.8232 25.026 73.9268V82.0323ZM128.384 69.5645H120.661C118.498 69.5645 116.729 71.271 116.729 73.3539V82.0323H119.803V73.9268C119.803 72.8232 120.785 71.982 121.878 71.982H127.214L128.384 69.5645ZM88.9894 69.5645C91.1525 69.5645 92.923 71.271 92.923 73.3539V82.0323H89.8446V73.9268C89.8446 72.8232 88.8612 71.982 87.7697 71.982H80.3751V82.0323H77.2947V69.5705C81.1843 69.5705 85.0818 69.5705 88.9894 69.5645ZM70.3948 70.3516L73.4732 68.5991V82.0323H70.3948V70.3516ZM73.4732 66.8466V65H70.3948V68.6051L73.4732 66.8466ZM130.527 69.5645H140.056C142.219 69.5645 143.988 71.271 143.988 73.3539V82.0323H129.738C128.438 82.0564 127.362 81.0249 127.334 79.725V76.7187C127.366 75.515 128.358 74.5597 129.561 74.5737H137.465L136.637 76.3182H130.819C130.547 76.3062 130.31 76.5084 130.282 76.7808V79.1522C130.31 79.4246 130.547 79.6269 130.819 79.6149H140.908V73.9268C140.908 72.8232 139.924 71.982 138.833 71.982H129.373L130.527 69.5645Z" fill="#EA3A51"/>
</g>
</g>
<defs>
<clipPath id="clip0_3969_4657">
<rect width="140" height="17.2246" fill="white" transform="translate(4 65)"/>
</clipPath>
</defs>
</svg>
