<svg width="40" height="60" viewBox="0 0 40 60" fill="none" xmlns="http://www.w3.org/2000/svg">
<path d="M14.3778 38.8948C14.0314 38.8948 13.7359 39.0161 13.4916 39.2586C13.2472 39.5011 13.125 39.7955 13.125 40.1417C13.125 40.4882 13.2463 40.7836 13.4888 41.028C13.7313 41.2726 14.0257 41.3948 14.3722 41.3948C14.7186 41.3948 15.0141 41.2736 15.2584 41.0311C15.5028 40.7884 15.625 40.4939 15.625 40.1477C15.625 39.8012 15.5037 39.5058 15.2612 39.2614C15.0187 39.017 14.7243 38.8948 14.3778 38.8948ZM14.3778 49.8561C14.0314 49.8561 13.7359 49.9773 13.4916 50.2198C13.2472 50.4626 13.125 50.757 13.125 51.1033C13.125 51.4497 13.2463 51.7452 13.4888 51.9895C13.7313 52.2339 14.0257 52.3561 14.3722 52.3561C14.7186 52.3561 15.0141 52.2348 15.2584 51.9923C15.5028 51.7498 15.625 51.4555 15.625 51.1092C15.625 50.7628 15.5037 50.4673 15.2612 50.223C15.0187 49.9784 14.7243 49.8561 14.3778 49.8561ZM10.9616 35.7695H29.0384C29.3109 35.7695 29.5393 35.8612 29.7234 36.0445C29.9078 36.2277 30 36.4545 30 36.7252V43.4139C30 43.736 29.9078 44.0008 29.7234 44.2083C29.5393 44.416 29.3109 44.5198 29.0384 44.5198H10.9616C10.6891 44.5198 10.4607 44.416 10.2766 44.2083C10.0922 44.0008 10 43.736 10 43.4139V36.7252C10 36.4545 10.0922 36.2277 10.2766 36.0445C10.4607 35.8612 10.6891 35.7695 10.9616 35.7695ZM10.9616 46.7311H28.9903C29.2964 46.7311 29.5411 46.8326 29.7247 47.0355C29.9082 47.2382 30 47.4893 30 47.7889V54.3273C30 54.6815 29.9082 54.9623 29.7247 55.1698C29.5411 55.3776 29.2964 55.4814 28.9903 55.4814H11.0097C10.7036 55.4814 10.4589 55.3776 10.2753 55.1698C10.0918 54.9623 10 54.6815 10 54.3273V47.7889C10 47.4893 10.0837 47.2382 10.2512 47.0355C10.4187 46.8326 10.6555 46.7311 10.9616 46.7311Z" fill="#251741"/>
<path d="M10.832 31.6654C8.75286 31.6654 6.98314 30.9399 5.52286 29.4891C4.06231 28.0383 3.33203 26.2733 3.33203 24.1941C3.33203 22.2838 3.98481 20.5884 5.29036 19.1079C6.59592 17.627 8.21884 16.832 10.1591 16.7229C10.533 14.2956 11.6494 12.2904 13.5083 10.707C15.3672 9.1237 17.5306 8.33203 19.9987 8.33203C22.7787 8.33203 25.1404 9.3037 27.0837 11.247C29.027 13.1904 29.9987 15.552 29.9987 18.332V19.9987H31.0245C32.6206 20.0501 33.9598 20.6361 35.042 21.7566C36.1243 22.8774 36.6654 24.2359 36.6654 25.832C36.6654 27.4668 36.1017 28.8476 34.9745 29.9745C33.8476 31.1018 32.4668 31.6654 30.832 31.6654H20.832V19.2999L23.7745 22.2329C23.9304 22.3887 24.1199 22.4666 24.3433 22.4666C24.5666 22.4666 24.7594 22.3854 24.9216 22.2229C25.0991 22.067 25.1824 21.8705 25.1716 21.6333C25.1611 21.3961 25.0777 21.1995 24.9216 21.0437L20.9412 17.0629C20.6718 16.7937 20.3576 16.6591 19.9987 16.6591C19.6398 16.6591 19.3256 16.7937 19.0562 17.0629L15.0758 21.0437C14.9197 21.1995 14.8347 21.3945 14.8208 21.6287C14.8069 21.8626 14.8919 22.0606 15.0758 22.2229C15.2316 22.379 15.4265 22.4533 15.6604 22.4458C15.8945 22.4383 16.0927 22.3566 16.2549 22.2008L19.1654 19.2999V31.6654H10.832Z" fill="#251741"/>
</svg>
