<svg width="60" height="60" viewBox="0 0 60 60" fill="none" xmlns="http://www.w3.org/2000/svg">
<path d="M16.0387 51C14.9279 51 13.9771 50.6046 13.1862 49.8138C12.3954 49.0229 12 48.0721 12 46.9613V25.0387C12 23.9279 12.3954 22.9771 13.1862 22.1862C13.9771 21.3954 14.9279 21 16.0387 21H19.5V16C19.5 13.2146 20.4704 10.8517 22.4112 8.91125C24.3517 6.97042 26.7146 6 29.5 6C32.2854 6 34.6483 6.97042 36.5887 8.91125C38.5296 10.8517 39.5 13.2146 39.5 16V21H42.9613C44.0721 21 45.0229 21.3954 45.8138 22.1862C46.6046 22.9771 47 23.9279 47 25.0387V46.9613C47 48.0721 46.6046 49.0229 45.8138 49.8138C45.0229 50.6046 44.0721 51 42.9613 51H16.0387ZM29.5 39.75C30.5546 39.75 31.4431 39.3885 32.1656 38.6656C32.8885 37.9431 33.25 37.0546 33.25 36C33.25 34.9454 32.8885 34.0569 32.1656 33.3344C31.4431 32.6115 30.5546 32.25 29.5 32.25C28.4454 32.25 27.5569 32.6115 26.8344 33.3344C26.1115 34.0569 25.75 34.9454 25.75 36C25.75 37.0546 26.1115 37.9431 26.8344 38.6656C27.5569 39.3885 28.4454 39.75 29.5 39.75ZM22 21H37V16C37 13.9167 36.2708 12.1458 34.8125 10.6875C33.3542 9.22917 31.5833 8.5 29.5 8.5C27.4167 8.5 25.6458 9.22917 24.1875 10.6875C22.7292 12.1458 22 13.9167 22 16V21Z" fill="#251741"/>
<rect x="22.5" y="22.5" width="15" height="26.25" fill="#251741"/>
<path d="M29.8157 26.8125C32.0126 26.8125 34.085 27.2865 36.0329 28.2344C37.9811 29.1823 39.6033 30.5441 40.8998 32.3197C41.0138 32.4591 41.0487 32.5897 41.0045 32.7116C40.9603 32.8332 40.8838 32.9301 40.7748 33.0022C40.6658 33.0743 40.5484 33.106 40.4226 33.0975C40.2968 33.089 40.1867 33.0155 40.0923 32.8772C38.9144 31.2201 37.4167 29.9553 35.5992 29.0828C33.7817 28.2103 31.8539 27.7741 29.8157 27.7741C27.7949 27.7741 25.8911 28.2183 24.1042 29.1069C22.3173 29.9954 20.8325 31.2522 19.6498 32.8772C19.5408 33.0326 19.4191 33.1128 19.2845 33.1178C19.1499 33.1226 19.0281 33.0809 18.9192 32.9928C18.8294 32.9205 18.7749 32.8303 18.7557 32.7222C18.7366 32.6141 18.7654 32.5007 18.8423 32.3822C20.15 30.6434 21.7624 29.2804 23.6795 28.2931C25.5968 27.306 27.6422 26.8125 29.8157 26.8125ZM29.817 29.75C32.5966 29.75 34.9848 30.6759 36.9817 32.5278C38.9786 34.3797 39.977 36.6741 39.977 39.4109C39.977 40.4184 39.6212 41.2597 38.9095 41.9347C38.1978 42.6095 37.3308 42.9469 36.3086 42.9469C35.2942 42.9469 34.4188 42.6095 33.6823 41.9347C32.9461 41.2597 32.5779 40.4184 32.5779 39.4109C32.5779 38.6914 32.3108 38.0811 31.7767 37.5803C31.2427 37.0795 30.6051 36.8291 29.8639 36.8291C29.1095 36.8291 28.4605 37.0774 27.917 37.5741C27.3737 38.0705 27.102 38.6828 27.102 39.4109C27.102 41.4797 27.7169 43.2072 28.9467 44.5934C30.1767 45.9797 31.7396 46.9436 33.6354 47.4853C33.7836 47.5328 33.8867 47.612 33.9448 47.7228C34.0029 47.8336 34.0112 47.9523 33.9695 48.0788C33.9278 48.1896 33.8605 48.2891 33.7676 48.3772C33.6747 48.4653 33.5425 48.4885 33.3711 48.4469C31.2686 47.9052 29.5378 46.8388 28.1789 45.2475C26.8199 43.6563 26.1404 41.7107 26.1404 39.4109C26.1404 38.4014 26.5074 37.5584 27.2414 36.8822C27.9753 36.2059 28.85 35.8678 29.8654 35.8678C30.8811 35.8678 31.7473 36.2059 32.4642 36.8822C33.1811 37.5584 33.5395 38.4014 33.5395 39.4109C33.5395 40.1391 33.8134 40.7514 34.3614 41.2478C34.9093 41.7445 35.5559 41.9928 36.3014 41.9928C37.0466 41.9928 37.6852 41.7424 38.2173 41.2416C38.7494 40.7407 39.0154 40.1305 39.0154 39.4109C39.0154 36.9536 38.1115 34.8882 36.3036 33.2147C34.4958 31.5409 32.3372 30.7041 29.8276 30.7041C27.318 30.7041 25.1658 31.5432 23.3711 33.2216C21.5763 34.8999 20.6789 36.9606 20.6789 39.4038C20.6789 39.9117 20.7377 40.5467 20.8554 41.3088C20.9731 42.0708 21.2012 42.9519 21.5395 43.9519C21.5859 44.0913 21.5847 44.2139 21.5357 44.3197C21.4868 44.4253 21.395 44.5094 21.2604 44.5719C21.1258 44.6344 21.0004 44.6367 20.8842 44.5788C20.7681 44.5208 20.6869 44.4256 20.6404 44.2931C20.3119 43.4325 20.0758 42.6092 19.9323 41.8231C19.789 41.0371 19.7173 40.233 19.7173 39.4109C19.7173 36.6741 20.7107 34.3797 22.6976 32.5278C24.6847 30.6759 27.0578 29.75 29.817 29.75ZM29.8639 23.75C31.1762 23.75 32.4576 23.9115 33.7082 24.2344C34.9591 24.5573 36.1688 25.0208 37.3373 25.625C37.5088 25.7131 37.6062 25.818 37.6295 25.9397C37.6528 26.0616 37.6412 26.1794 37.5945 26.2931C37.548 26.4069 37.464 26.4894 37.3423 26.5406C37.2204 26.5921 37.0954 26.5817 36.9673 26.5094C35.8792 25.899 34.7347 25.4467 33.5339 25.1525C32.3332 24.8585 31.1061 24.7116 29.8523 24.7116C28.6196 24.7116 27.4119 24.8681 26.2292 25.1813C25.0465 25.4946 23.8999 25.9373 22.7895 26.5094C22.7028 26.5656 22.5962 26.5757 22.4695 26.5397C22.343 26.5034 22.2542 26.426 22.2029 26.3075C22.1515 26.189 22.1346 26.074 22.1523 25.9625C22.17 25.8513 22.2381 25.7596 22.3567 25.6875C23.5073 25.0465 24.718 24.5632 25.9889 24.2378C27.2597 23.9126 28.5514 23.75 29.8639 23.75ZM29.8651 32.8053C31.7697 32.8053 33.3999 33.4403 34.7557 34.7103C36.1116 35.9803 36.7895 37.5472 36.7895 39.4109C36.7895 39.5551 36.7453 39.6713 36.657 39.7594C36.5689 39.8475 36.4527 39.8916 36.3086 39.8916C36.19 39.8916 36.0802 39.8475 35.9792 39.7594C35.8783 39.6713 35.8279 39.5551 35.8279 39.4109C35.8279 37.8164 35.2379 36.477 34.0579 35.3928C32.8779 34.3086 31.4801 33.7666 29.8645 33.7666C28.2487 33.7666 26.853 34.3086 25.6776 35.3928C24.5022 36.477 23.9145 37.8157 23.9145 39.4091C23.9145 41.1299 24.2141 42.5828 24.8132 43.7678C25.4126 44.953 26.2748 46.1539 27.3998 47.3703C27.5248 47.4984 27.5753 47.6257 27.5514 47.7522C27.5274 47.8789 27.4769 47.9806 27.3998 48.0575C27.3069 48.1504 27.1972 48.2009 27.0707 48.2091C26.9441 48.217 26.8263 48.1665 26.7173 48.0575C25.5363 46.7979 24.6136 45.4923 23.9492 44.1406C23.285 42.7887 22.9529 41.2119 22.9529 39.41C22.9529 37.5469 23.6288 35.9803 24.9804 34.7103C26.3321 33.4403 27.9603 32.8053 29.8651 32.8053ZM29.8036 38.9303C29.9463 38.9303 30.0629 38.9783 30.1536 39.0744C30.2442 39.1706 30.2895 39.2828 30.2895 39.4109C30.2895 41.0226 30.864 42.3442 32.0129 43.3756C33.1619 44.4071 34.5104 44.9228 36.0586 44.9228C36.2638 44.9228 36.4809 44.9124 36.7101 44.8916C36.9393 44.8707 37.1708 44.8395 37.4048 44.7978C37.5281 44.7722 37.6334 44.7903 37.7207 44.8522C37.8082 44.9139 37.8728 45.016 37.9145 45.1588C37.9562 45.2856 37.9328 45.3967 37.8445 45.4919C37.7564 45.5869 37.645 45.6552 37.5104 45.6969C37.2798 45.7531 37.0318 45.7984 36.7664 45.8328C36.5012 45.8672 36.2652 45.8844 36.0586 45.8844C34.2525 45.8844 32.6792 45.2708 31.3386 44.0438C29.9981 42.8165 29.3279 41.2722 29.3279 39.4109C29.3279 39.2828 29.3715 39.1706 29.4586 39.0744C29.5458 38.9783 29.6608 38.9303 29.8036 38.9303Z" fill="#F1FAFF"/>
</svg>
