<svg width="60" height="60" viewBox="0 0 60 60" fill="none" xmlns="http://www.w3.org/2000/svg">
<path d="M30 52.403C24.9775 50.9126 20.8053 47.8701 17.4832 43.2755C14.1611 38.681 12.5 33.5055 12.5 27.7491V14.2298L30 7.69141L47.5 14.2298V27.7491C47.5 33.5055 45.8389 38.681 42.5168 43.2755C39.1947 47.8701 35.0225 50.9126 30 52.403ZM30 49.7491C34.0417 48.4991 37.4167 46.0303 40.125 42.3428C42.8333 38.6553 44.4167 34.5408 44.875 29.9991H30V10.3597L15 15.9366V28.826C15 29.1497 15.0417 29.5408 15.125 29.9991H30V49.7491Z" fill="#F1FAFF"/>
</svg>
