<svg width="60" height="60" viewBox="0 0 60 60" fill="none" xmlns="http://www.w3.org/2000/svg">
<path d="M30.0001 35.5C28.1251 35.5 26.5313 34.8438 25.2188 33.5312C23.9063 32.2188 23.2501 30.625 23.2501 28.75C23.2501 26.875 23.9063 25.2812 25.2188 23.9688C26.5313 22.6562 28.1251 22 30.0001 22C31.8751 22 33.4688 22.6562 34.7813 23.9688C36.0938 25.2812 36.7501 26.875 36.7501 28.75C36.7501 30.625 36.0938 32.2188 34.7813 33.5312C33.4688 34.8438 31.8751 35.5 30.0001 35.5ZM30.0158 45C24.5951 45 19.6571 43.5264 15.202 40.5793C10.7468 37.6322 7.4103 33.6891 5.19238 28.75C7.4103 23.8109 10.7453 19.8678 15.1973 16.9207C19.6492 13.9736 24.5835 12.5 30.0001 12.5C35.1699 12.5 39.9095 13.851 44.2188 16.5529C48.5281 19.2548 51.8591 22.9038 54.2116 27.5H46.0097C44.6819 27.5 43.4253 27.7019 42.2398 28.1057C41.0544 28.5096 39.9873 29.0946 39.0386 29.8606C39.0706 29.6811 39.0946 29.496 39.1106 29.3053C39.1267 29.1146 39.1347 28.9295 39.1347 28.75C39.1347 26.2126 38.2455 24.0558 36.4671 22.2796C34.6888 20.5035 32.5293 19.6154 29.9888 19.6154C27.4482 19.6154 25.2925 20.5046 23.5217 22.2829C21.7509 24.0613 20.8654 26.2208 20.8654 28.7613C20.8654 31.3019 21.7535 33.4575 23.5297 35.2284C25.3059 36.9992 27.4627 37.8846 30.0001 37.8846C30.872 37.8846 31.7142 37.7644 32.5266 37.5241C33.339 37.2837 34.0882 36.9439 34.7741 36.5048C34.6683 36.9055 34.5914 37.3117 34.5433 37.7236C34.4953 38.1354 34.4713 38.5577 34.4713 38.9904V44.6106C33.7287 44.7219 32.9861 44.8146 32.2435 44.8887C31.501 44.9629 30.7584 45 30.0158 45ZM41.4904 50.0481C40.9183 50.0481 40.4388 49.8546 40.0518 49.4676C39.6648 49.0806 39.4713 48.601 39.4713 48.0289V41.25C39.4713 40.6699 39.6948 40.1963 40.1419 39.8293C40.589 39.4624 41.1187 39.2789 41.7308 39.2789V36.7789C41.7308 35.6022 42.1504 34.5949 42.9896 33.7569C43.8288 32.919 44.8377 32.5 46.0161 32.5C47.1945 32.5 48.1932 32.919 49.0121 33.7569C49.831 34.5949 50.2404 35.6022 50.2404 36.7789V39.2789C50.8527 39.2789 51.3823 39.4624 51.8294 39.8293C52.2765 40.1963 52.5001 40.6699 52.5001 41.25V48.0289C52.5001 48.601 52.3066 49.0806 51.9196 49.4676C51.5325 49.8546 51.053 50.0481 50.4809 50.0481H41.4904ZM43.6539 39.2789H48.3174V36.7789C48.3174 36.0705 48.1099 35.5008 47.6948 35.0697C47.2797 34.6386 46.718 34.4231 46.0097 34.4231C45.3014 34.4231 44.7317 34.6386 44.3006 35.0697C43.8695 35.5008 43.6539 36.0705 43.6539 36.7789V39.2789Z" fill="#F1FAFF"/>
</svg>
