<svg width="200" height="296" viewBox="0 0 200 296" fill="none" xmlns="http://www.w3.org/2000/svg">
<path d="M0 196L50 109.397H150L200 196L150 282.603H50L0 196Z" fill="#00B2A1"/>
<path d="M127.308 236H78.2687V181L109.615 150.039L111.827 152.25C112.283 152.705 112.665 153.289 112.976 154C113.287 154.712 113.442 155.366 113.442 155.962V156.75L108.327 181H141.923C144.012 181 145.881 181.824 147.529 183.472C149.176 185.119 150 186.988 150 189.078V195.232C150 195.687 149.953 196.183 149.86 196.722C149.768 197.26 149.628 197.757 149.442 198.212L135.789 230.578C135.103 232.116 133.949 233.404 132.327 234.443C130.705 235.481 129.032 236 127.308 236ZM73.2687 181V236H55V181H73.2687Z" fill="#E8EAED"/>
<path d="M100 21.6667C105.891 21.6667 110.667 16.891 110.667 11C110.667 5.10896 105.891 0.333336 100 0.333336C94.109 0.333336 89.3333 5.10896 89.3333 11C89.3333 16.891 94.109 21.6667 100 21.6667ZM102 111L102 11H98L98 111H102Z" fill="#00B2A1"/>
</svg>
