<svg width="76" height="50" viewBox="0 0 76 50" fill="none" xmlns="http://www.w3.org/2000/svg">
<path d="M0 25L12.5 3.34937H37.5L50 25L37.5 46.6506H12.5L0 25Z" fill="#3D8ED0"/>
<path d="M12.3945 35.2403V33.1828C12.3945 32.6394 12.5395 32.1538 12.8295 31.7259C13.1195 31.298 13.529 30.9518 14.058 30.6874C15.0723 30.1779 16.1981 29.7676 17.4352 29.4568C18.6724 29.1458 19.9089 28.9903 21.1445 28.9903C22.3799 28.9903 23.6163 29.1458 24.8536 29.4568C26.0907 29.7676 27.2164 30.1779 28.2308 30.6874C28.7597 30.9518 29.1692 31.298 29.4592 31.7259C29.7494 32.1538 29.8945 32.6394 29.8945 33.1828V35.2403H12.3945ZM21.1445 26.2018C20.0739 26.2018 19.1812 25.8444 18.4664 25.1296C17.7518 24.415 17.3945 23.4744 17.3945 22.3078H17.1298C16.9905 22.3078 16.8756 22.2624 16.7852 22.1718C16.6945 22.0812 16.6492 21.9662 16.6492 21.8268C16.6492 21.6874 16.6945 21.5724 16.7852 21.4818C16.8756 21.3914 16.9905 21.3462 17.1298 21.3462H17.3945C17.4264 20.7131 17.5593 20.1378 17.7933 19.6203C18.0274 19.1025 18.4073 18.6089 18.933 18.1393V19.3268C18.933 19.4662 18.9782 19.5812 19.0686 19.6718C19.1592 19.7624 19.2742 19.8078 19.4136 19.8078C19.553 19.8078 19.668 19.7624 19.7586 19.6718C19.8492 19.5812 19.8945 19.4662 19.8945 19.3268V17.6874C20.066 17.6249 20.2598 17.57 20.4761 17.5228C20.6926 17.4755 20.9154 17.4518 21.1445 17.4518C21.3737 17.4518 21.5964 17.4755 21.8127 17.5228C22.0289 17.57 22.2229 17.6249 22.3945 17.6874V19.3268C22.3945 19.4662 22.4397 19.5812 22.5302 19.6718C22.6208 19.7624 22.7358 19.8078 22.8752 19.8078C23.0145 19.8078 23.1295 19.7624 23.2202 19.6718C23.3106 19.5812 23.3558 19.4662 23.3558 19.3268V18.1393C23.8974 18.6089 24.2813 19.1025 24.5073 19.6203C24.7334 20.1378 24.8624 20.7131 24.8945 21.3462H25.1589C25.2983 21.3462 25.4133 21.3914 25.5039 21.4818C25.5943 21.5724 25.6395 21.6874 25.6395 21.8268C25.6395 21.9662 25.5943 22.0812 25.5039 22.1718C25.4133 22.2624 25.2983 22.3078 25.1589 22.3078H24.8945C24.8945 23.4744 24.5371 24.415 23.8223 25.1296C23.1076 25.8444 22.2149 26.2018 21.1445 26.2018ZM21.1445 24.9518C21.8639 24.9518 22.4604 24.715 22.9339 24.2415C23.4077 23.768 23.6445 23.1714 23.6445 22.4518H18.6445C18.6445 23.1714 18.8813 23.768 19.3548 24.2415C19.8284 24.715 20.4249 24.9518 21.1445 24.9518ZM30.5673 28.5578L30.4761 27.6681C30.319 27.6264 30.1552 27.5595 29.9845 27.4674C29.8139 27.3754 29.6685 27.2692 29.5483 27.149L28.7214 27.5096L28.2405 26.6731L28.9761 26.1443C28.944 26.0497 28.928 25.9632 28.928 25.8846V25.3774C28.928 25.3068 28.944 25.2162 28.9761 25.1056L28.2405 24.5768L28.7214 23.7403L29.5483 24.1009C29.6637 23.9855 29.8079 23.8805 29.9808 23.7859C30.1539 23.6915 30.319 23.6235 30.4761 23.5818L30.5673 22.6921H31.5289L31.6205 23.5818C31.7773 23.6235 31.9423 23.6915 32.1155 23.7859C32.2886 23.8805 32.4329 23.9855 32.5483 24.1009L33.3752 23.7403L33.8558 24.5768L33.1205 25.1056C33.1523 25.2162 33.1683 25.3068 33.1683 25.3774V25.8846C33.1683 25.9632 33.1523 26.0497 33.1205 26.1443L33.8558 26.6731L33.3752 27.5096L32.5483 27.149C32.4281 27.2692 32.2827 27.3754 32.112 27.4674C31.9412 27.5595 31.7773 27.6264 31.6205 27.6681L31.5289 28.5578H30.5673ZM31.0483 26.7546C31.3624 26.7546 31.6292 26.6449 31.8486 26.4256C32.0682 26.206 32.178 25.9391 32.178 25.6249C32.178 25.3108 32.0682 25.0439 31.8486 24.8243C31.6292 24.6049 31.3624 24.4953 31.0483 24.4953C30.7341 24.4953 30.4672 24.6049 30.2477 24.8243C30.0281 25.0439 29.9183 25.3108 29.9183 25.6249C29.9183 25.9391 30.0281 26.206 30.2477 26.4256C30.4672 26.6449 30.7341 26.7546 31.0483 26.7546ZM33.5867 21.7787L33.4808 20.8028C33.2454 20.7563 32.9974 20.6621 32.737 20.5203C32.4766 20.3786 32.2679 20.2051 32.1108 19.9999L31.183 20.3893L30.6445 19.4662L31.4664 18.8653C31.4247 18.745 31.3959 18.6217 31.3798 18.4953C31.3638 18.3686 31.3558 18.2451 31.3558 18.1249C31.3558 18.0047 31.3638 17.8813 31.3798 17.7546C31.3959 17.6282 31.4247 17.5048 31.4664 17.3846L30.6445 16.7837L31.183 15.8606L32.1108 16.2499C32.2679 16.0447 32.4766 15.8713 32.737 15.7296C32.9974 15.5878 33.2454 15.4936 33.4808 15.4471L33.5867 14.4712H34.6636L34.7695 15.4471C35.0049 15.4936 35.2529 15.5878 35.5133 15.7296C35.7737 15.8713 35.9824 16.0447 36.1395 16.2499L37.0673 15.8606L37.6058 16.7837L36.7839 17.3846C36.8256 17.5048 36.8544 17.6282 36.8705 17.7546C36.8865 17.8813 36.8945 18.0047 36.8945 18.1249C36.8945 18.2451 36.8865 18.3686 36.8705 18.4953C36.8544 18.6217 36.8256 18.745 36.7839 18.8653L37.6058 19.4662L37.0673 20.3893L36.1395 19.9999C35.9824 20.2051 35.7737 20.3786 35.5133 20.5203C35.2529 20.6621 35.0049 20.7563 34.7695 20.8028L34.6636 21.7787H33.5867ZM34.1252 19.8318C34.6108 19.8318 35.0166 19.6687 35.3427 19.3424C35.6689 19.0164 35.832 18.6106 35.832 18.1249C35.832 17.6393 35.6689 17.2335 35.3427 16.9074C35.0166 16.5812 34.6108 16.4181 34.1252 16.4181C33.6395 16.4181 33.2337 16.5812 32.9077 16.9074C32.5814 17.2335 32.4183 17.6393 32.4183 18.1249C32.4183 18.6106 32.5814 19.0164 32.9077 19.3424C33.2337 19.6687 33.6395 19.8318 34.1252 19.8318Z" fill="#E8EAED"/>
<path d="M64.6667 25C64.6667 27.9455 67.0545 30.3333 70 30.3333C72.9455 30.3333 75.3333 27.9455 75.3333 25C75.3333 22.0545 72.9455 19.6667 70 19.6667C67.0545 19.6667 64.6667 22.0545 64.6667 25ZM48 26L70 26V24L48 24V26Z" fill="#3D8ED0"/>
</svg>
