<svg width="76" height="50" viewBox="0 0 76 50" fill="none" xmlns="http://www.w3.org/2000/svg">
<path d="M64.6667 25C64.6667 27.9455 67.0545 30.3333 70 30.3333C72.9455 30.3333 75.3333 27.9455 75.3333 25C75.3333 22.0545 72.9455 19.6667 70 19.6667C67.0545 19.6667 64.6667 22.0545 64.6667 25ZM48 26H70V24H48V26Z" fill="#059489"/>
<path d="M0 25L12.5 3.34937H37.5L50 25L37.5 46.6506H12.5L0 25Z" fill="#059489"/>
<path d="M26.4904 37.1394C26.1843 37.1394 25.9155 37.0356 25.6838 36.8281C25.4524 36.6206 25.3366 36.3478 25.3366 36.0097C25.3366 35.8478 25.3718 35.6688 25.4423 35.4725C25.5129 35.2761 25.6187 35.1073 25.7598 34.9663L30.3632 30.3631L29.6732 29.6731L25.077 34.2766C24.9359 34.4176 24.7764 34.5233 24.5985 34.5938C24.4208 34.6642 24.2406 34.6994 24.0579 34.6994C23.7356 34.6994 23.4627 34.5876 23.2391 34.3641C23.0156 34.1405 22.9038 33.8677 22.9038 33.5456C22.9038 33.3533 22.9431 33.1654 23.0216 32.9819C23.1002 32.7986 23.1996 32.6468 23.3198 32.5266L27.9232 27.9231L27.2404 27.2403L22.637 31.8366C22.512 31.9616 22.3565 32.0634 22.1707 32.1419C21.9849 32.2204 21.7982 32.2597 21.6107 32.2597C21.2934 32.2597 21.0217 32.1467 20.7957 31.9206C20.5699 31.6948 20.457 31.4231 20.457 31.1056C20.457 30.9231 20.4922 30.7429 20.5626 30.565C20.633 30.3871 20.7387 30.2276 20.8798 30.0866L25.1948 25.7716L24.5048 25.0891L20.1973 29.4038C20.0771 29.524 19.924 29.6233 19.7382 29.7019C19.5522 29.7804 19.363 29.8197 19.1707 29.8197C18.8326 29.8197 18.5557 29.7119 18.3401 29.4963C18.1247 29.2808 18.017 29.0041 18.017 28.666C18.017 28.4832 18.0522 28.3029 18.1226 28.125C18.1932 27.9471 18.299 27.7876 18.4401 27.6466L24.6154 21.4713L27.3079 24.1706C27.5371 24.3998 27.7958 24.5621 28.0841 24.6575C28.3727 24.7529 28.6652 24.8006 28.9616 24.8006C29.5641 24.8006 30.0674 24.6023 30.4713 24.2056C30.8751 23.809 31.077 23.3021 31.077 22.685C31.077 22.3933 31.0209 22.0993 30.9088 21.8028C30.7965 21.5064 30.621 21.2388 30.3823 21L27.0723 17.69L28.2982 16.4641C28.5722 16.1947 28.9038 15.9836 29.2932 15.8306C29.6828 15.6775 30.0723 15.601 30.4616 15.601C30.8752 15.601 31.279 15.6775 31.6732 15.8306C32.0674 15.9836 32.4039 16.1995 32.6829 16.4785L38.036 21.8391C38.2989 22.1018 38.507 22.4223 38.6601 22.8006C38.813 23.1788 38.8895 23.5978 38.8895 24.0578C38.8895 24.4745 38.8117 24.8682 38.6563 25.2391C38.5009 25.6101 38.2941 25.9247 38.036 26.1828L27.5098 36.7163C27.3752 36.8508 27.2173 36.955 27.036 37.0288C26.855 37.1025 26.6731 37.1394 26.4904 37.1394ZM16.9976 27.7163L15.7045 26.4231C15.3503 26.0738 15.0834 25.6539 14.9038 25.1635C14.7245 24.673 14.6348 24.1939 14.6348 23.726C14.6348 23.2324 14.7149 22.7845 14.8751 22.3822C15.0353 21.9799 15.2397 21.6546 15.4882 21.4063L20.4088 16.4785C20.678 16.2091 20.9777 15.9955 21.3079 15.8378C21.6379 15.6799 21.9976 15.601 22.387 15.601C22.8053 15.601 23.1891 15.6751 23.5385 15.8235C23.8879 15.9716 24.2068 16.1899 24.4954 16.4785L29.6998 21.6828C29.8248 21.8078 29.9264 21.9632 30.0048 22.1491C30.0833 22.3349 30.1226 22.5112 30.1226 22.6778C30.1226 23.0112 30.0136 23.2908 29.7957 23.5169C29.5778 23.7427 29.3022 23.8556 28.9688 23.8556C28.7813 23.8556 28.601 23.8217 28.4279 23.7538C28.255 23.6856 28.0956 23.5787 27.9498 23.4328L24.6082 20.1056L16.9976 27.7163Z" fill="#E8EAED"/>
</svg>
