<svg width="200" height="297" viewBox="0 0 200 297" fill="none" xmlns="http://www.w3.org/2000/svg">
<path d="M0 100L50 13.3975H150L200 100L150 186.603H50L0 100Z" fill="#059489"/>
<path d="M105.962 148.556C104.737 148.556 103.662 148.141 102.735 147.311C101.809 146.481 101.347 145.39 101.347 144.037C101.347 143.39 101.487 142.674 101.769 141.889C102.052 141.103 102.475 140.428 103.039 139.864L121.453 121.451L118.693 118.691L100.308 137.105C99.7436 137.669 99.1057 138.092 98.3941 138.374C97.6832 138.655 96.9624 138.796 96.2316 138.796C94.9424 138.796 93.8507 138.349 92.9566 137.455C92.0624 136.561 91.6153 135.469 91.6153 134.181C91.6153 133.412 91.7724 132.66 92.0866 131.926C92.4007 131.193 92.7982 130.586 93.2791 130.105L111.693 111.691L108.962 108.96L90.5478 127.345C90.0478 127.845 89.4261 128.252 88.6828 128.566C87.9395 128.88 87.1928 129.037 86.4428 129.037C85.1736 129.037 84.087 128.585 83.1828 127.681C82.2795 126.778 81.8278 125.691 81.8278 124.421C81.8278 123.691 81.9686 122.97 82.2503 122.259C82.532 121.547 82.9549 120.909 83.5191 120.345L100.779 103.085L98.0191 100.355L80.7891 117.614C80.3082 118.094 79.6961 118.492 78.9528 118.806C78.2086 119.12 77.452 119.277 76.6828 119.277C75.3303 119.277 74.2228 118.846 73.3603 117.984C72.4986 117.122 72.0678 116.015 72.0678 114.662C72.0678 113.932 72.2086 113.21 72.4903 112.499C72.7728 111.787 73.1961 111.149 73.7603 110.585L98.4616 85.8836L109.232 96.6811C110.148 97.5978 111.183 98.2469 112.337 98.6286C113.491 99.0103 114.661 99.2011 115.847 99.2011C118.257 99.2011 120.269 98.4078 121.885 96.8211C123.5 95.2344 124.308 93.2069 124.308 90.7386C124.308 89.5719 124.084 88.3957 123.635 87.2098C123.186 86.024 122.484 84.9536 121.529 83.9986L108.289 70.7586L113.193 65.8548C114.289 64.7773 115.615 63.9328 117.173 63.3211C118.731 62.7086 120.289 62.4023 121.847 62.4023C123.501 62.4023 125.116 62.7086 126.693 63.3211C128.269 63.9328 129.616 64.7965 130.732 65.9123L152.144 87.3548C153.196 88.4057 154.028 89.6878 154.64 91.2011C155.252 92.7136 155.558 94.3898 155.558 96.2298C155.558 97.8965 155.247 99.4715 154.625 100.955C154.004 102.439 153.177 103.697 152.144 104.73L110.039 146.864C109.501 147.402 108.869 147.819 108.144 148.114C107.42 148.409 106.692 148.556 105.962 148.556ZM67.9903 110.864L62.8178 105.691C61.4011 104.294 60.3336 102.614 59.6153 100.652C58.8978 98.6907 58.5391 96.774 58.5391 94.9023C58.5391 92.9282 58.8595 91.1365 59.5003 89.5273C60.1411 87.9182 60.9586 86.6169 61.9528 85.6236L81.6353 65.9123C82.712 64.8348 83.9107 63.9807 85.2316 63.3498C86.5516 62.7182 87.9903 62.4023 89.5478 62.4023C91.2211 62.4023 92.7566 62.699 94.1541 63.2923C95.5516 63.8848 96.8274 64.7582 97.9816 65.9123L118.799 86.7298C119.299 87.2298 119.706 87.8515 120.019 88.5948C120.333 89.3382 120.49 90.0432 120.49 90.7098C120.49 92.0432 120.054 93.1619 119.183 94.0661C118.311 94.9694 117.209 95.4211 115.875 95.4211C115.125 95.4211 114.404 95.2853 113.712 95.0136C113.02 94.7411 112.382 94.3132 111.799 93.7298L98.4328 80.4211L67.9903 110.864Z" fill="#E8EAED"/>
<path d="M100 275.333C94.109 275.333 89.3333 280.109 89.3333 286C89.3333 291.891 94.109 296.667 100 296.667C105.891 296.667 110.667 291.891 110.667 286C110.667 280.109 105.891 275.333 100 275.333ZM98 186L98 286H102L102 186H98Z" fill="#059489"/>
</svg>
