<svg width="76" height="50" viewBox="0 0 76 50" fill="none" xmlns="http://www.w3.org/2000/svg">
<path d="M0 25L12.5 3.34937H37.5L50 25L37.5 46.6506H12.5L0 25Z" fill="#6D9B2E"/>
<path d="M30 23.4616C30.2579 23.4616 30.4827 23.3658 30.6744 23.1744C30.8658 22.9827 30.9616 22.7579 30.9616 22.5C30.9616 22.2421 30.8658 22.0173 30.6744 21.8256C30.4827 21.6342 30.2579 21.5384 30 21.5384C29.7421 21.5384 29.5173 21.6342 29.3256 21.8256C29.1342 22.0173 29.0384 22.2421 29.0384 22.5C29.0384 22.7579 29.1342 22.9827 29.3256 23.1744C29.5173 23.3658 29.7421 23.4616 30 23.4616ZM20 20.625H26.25V19.375H20V20.625ZM16.5625 35C15.9504 32.8173 15.3286 30.6519 14.6972 28.5037C14.0657 26.3554 13.75 24.1458 13.75 21.875C13.75 20.3108 14.2965 18.9823 15.3894 17.8894C16.4823 16.7965 17.8108 16.25 19.375 16.25H26.25C26.79 15.5385 27.4282 14.944 28.1647 14.4662C28.9011 13.9887 29.7212 13.75 30.625 13.75C30.7933 13.75 30.9396 13.8041 31.0637 13.9122C31.1879 14.0203 31.25 14.1585 31.25 14.3269C31.25 14.4952 31.214 14.6386 31.1419 14.7572C31.0265 15.1305 30.9243 15.4971 30.8353 15.8569C30.7464 16.2167 30.665 16.5857 30.5912 16.9641L34.2525 20.625H36.25V27.1803L32.9591 28.2644L30.9375 35H26.25V32.5H21.25V35H16.5625Z" fill="#E8EAED"/>
<path d="M64.6667 25C64.6667 27.9455 67.0545 30.3333 70 30.3333C72.9455 30.3333 75.3333 27.9455 75.3333 25C75.3333 22.0545 72.9455 19.6667 70 19.6667C67.0545 19.6667 64.6667 22.0545 64.6667 25ZM48 26H70V24H48V26Z" fill="#6D9B2E"/>
</svg>
