<svg width="200" height="297" viewBox="0 0 200 297" fill="none" xmlns="http://www.w3.org/2000/svg">
<path d="M0 100L50 13.3975H150L200 100L150 186.603H50L0 100Z" fill="#251741"/>
<g clip-path="url(#clip0_4903_4658)">
<path d="M78.3838 138L76.5763 123.539C74.9804 123.058 73.2546 122.301 71.3988 121.269C69.5429 120.237 67.9646 119.132 66.6637 117.952L53.3263 123.625L44 107.375L55.5287 98.6825C55.3812 97.7792 55.2596 96.8483 55.1637 95.89C55.0671 94.9317 55.0188 94.0004 55.0188 93.0962C55.0188 92.2562 55.0671 91.3733 55.1637 90.4475C55.2596 89.5208 55.3812 88.4775 55.5287 87.3175L44 78.625L53.3263 62.5675L66.5675 68.1438C68.0608 66.9004 69.6763 65.7787 71.4137 64.7787C73.1504 63.7787 74.8392 63.0063 76.48 62.4613L78.3838 48H97.0387L98.8463 62.5575C100.763 63.2308 102.457 64.0033 103.927 64.875C105.398 65.7467 106.913 66.8363 108.471 68.1438L122.096 62.5675L131.423 78.625L119.509 87.6062C119.785 88.6379 119.939 89.585 119.971 90.4475C120.003 91.3092 120.019 92.16 120.019 93C120.019 93.7758 119.987 94.5946 119.923 95.4562C119.858 96.3187 119.711 97.3621 119.48 98.5863L131.201 107.375L121.875 123.625L108.471 117.856C106.913 119.164 105.345 120.285 103.769 121.221C102.192 122.157 100.551 122.897 98.8463 123.442L97.0387 138H78.3838ZM82.7113 133H92.49L94.3363 119.461C96.8554 118.795 99.1229 117.88 101.139 116.716C103.155 115.553 105.208 113.958 107.298 111.932L119.769 117.25L124.74 108.75L113.798 100.529C114.214 99.1054 114.49 97.7962 114.625 96.6012C114.759 95.4054 114.826 94.205 114.826 93C114.826 91.7308 114.759 90.5304 114.625 89.3988C114.49 88.2679 114.214 87.0229 113.798 85.6637L124.933 77.25L119.961 68.75L107.201 74.0963C105.689 72.4363 103.7 70.88 101.235 69.4275C98.7708 67.9758 96.4392 67.0129 94.24 66.5387L92.7113 53H82.74L81.1825 66.4425C78.6633 66.9808 76.3475 67.8479 74.235 69.0437C72.1233 70.2387 70.0225 71.8813 67.9325 73.9713L55.4613 68.75L50.49 77.25L61.3363 85.3463C60.9196 86.4679 60.6279 87.6858 60.4613 89C60.2946 90.3142 60.2113 91.6796 60.2113 93.0962C60.2113 94.3654 60.2946 95.625 60.4613 96.875C60.6279 98.125 60.8875 99.3429 61.24 100.529L50.49 108.75L55.4613 117.25L67.8363 112C69.7979 113.981 71.8346 115.569 73.9463 116.765C76.0588 117.96 78.4388 118.891 81.0863 119.557L82.7113 133ZM87.5763 105.5C91.0638 105.5 94.0192 104.288 96.4425 101.865C98.865 99.4425 100.076 96.4875 100.076 93C100.076 89.5125 98.865 86.5575 96.4425 84.135C94.0192 81.7117 91.0638 80.5 87.5763 80.5C84.0704 80.5 81.1104 81.7117 78.6963 84.135C76.2829 86.5575 75.0763 89.5125 75.0763 93C75.0763 96.4875 76.2829 99.4425 78.6963 101.865C81.1104 104.288 84.0704 105.5 87.5763 105.5Z" fill="#E8EAED"/>
<path d="M116.491 157.269L132.866 140.866C133.795 141.295 134.743 141.633 135.71 141.88C136.676 142.127 137.702 142.25 138.789 142.25C142.603 142.25 145.848 140.912 148.524 138.236C151.201 135.559 152.539 132.314 152.539 128.5C152.539 127.417 152.419 126.374 152.178 125.373C151.938 124.371 151.587 123.41 151.125 122.491L142.289 131.231L136.058 125L144.702 116.259C143.782 115.798 142.837 115.431 141.868 115.159C140.899 114.886 139.872 114.75 138.789 114.75C134.975 114.75 131.73 116.088 129.053 118.764C126.377 121.441 125.039 124.686 125.039 128.5C125.039 129.651 125.154 130.709 125.385 131.676C125.616 132.642 125.962 133.558 126.423 134.423L110.02 150.798C109.648 151.17 109.462 151.63 109.462 152.178C109.462 152.726 109.648 153.186 110.02 153.557L113.827 157.366C114.199 157.737 114.643 157.907 115.159 157.875C115.675 157.843 116.119 157.641 116.491 157.269Z" fill="#E8EAED"/>
</g>
<path d="M100 275.333C94.109 275.333 89.3333 280.109 89.3333 286C89.3333 291.891 94.109 296.667 100 296.667C105.891 296.667 110.667 291.891 110.667 286C110.667 280.109 105.891 275.333 100 275.333ZM98 186L98 286H102L102 186H98Z" fill="#251741"/>
<defs>
<clipPath id="clip0_4903_4658">
<rect width="120" height="120" fill="white" transform="translate(40 40)"/>
</clipPath>
</defs>
</svg>
