<svg width="76" height="50" viewBox="0 0 76 50" fill="none" xmlns="http://www.w3.org/2000/svg">
<path d="M0 25L12.5 3.34937H37.5L50 25L37.5 46.6506H12.5L0 25Z" fill="#251741"/>
<g clip-path="url(#clip0_4903_4625)">
<path d="M19.5959 34.5L19.1441 30.8847C18.7451 30.7645 18.3136 30.5753 17.8497 30.3172C17.3857 30.0593 16.9911 29.7829 16.6659 29.4881L13.3316 30.9062L11 26.8438L13.8822 24.6706C13.8453 24.4448 13.8149 24.2121 13.7909 23.9725C13.7668 23.7329 13.7547 23.5001 13.7547 23.2741C13.7547 23.0641 13.7668 22.8433 13.7909 22.6119C13.8149 22.3802 13.8453 22.1194 13.8822 21.8294L11 19.6562L13.3316 15.6419L16.6419 17.0359C17.0152 16.7251 17.4191 16.4447 17.8534 16.1947C18.2876 15.9447 18.7098 15.7516 19.12 15.6153L19.5959 12H24.2597L24.7116 15.6394C25.1907 15.8077 25.6142 16.0008 25.9819 16.2188C26.3496 16.4367 26.7282 16.7091 27.1178 17.0359L30.5241 15.6419L32.8556 19.6562L29.8772 21.9016C29.9461 22.1595 29.9847 22.3962 29.9928 22.6119C30.0007 22.8273 30.0047 23.04 30.0047 23.25C30.0047 23.444 29.9967 23.6486 29.9806 23.8641C29.9646 24.0797 29.9277 24.3405 29.87 24.6466L32.8003 26.8438L30.4688 30.9062L27.1178 29.4641C26.7282 29.7909 26.3364 30.0714 25.9422 30.3053C25.548 30.5393 25.1378 30.7244 24.7116 30.8606L24.2597 34.5H19.5959ZM20.6778 33.25H23.1225L23.5841 29.8653C24.2139 29.6986 24.7807 29.4699 25.2847 29.1791C25.7889 28.8882 26.3021 28.4896 26.8244 27.9831L29.9422 29.3125L31.185 27.1875L28.4494 25.1322C28.5535 24.7764 28.6225 24.4491 28.6562 24.1503C28.6898 23.8514 28.7066 23.5513 28.7066 23.25C28.7066 22.9327 28.6898 22.6326 28.6562 22.3497C28.6225 22.067 28.5535 21.7557 28.4494 21.4159L31.2331 19.3125L29.9903 17.1875L26.8003 18.5241C26.4222 18.1091 25.925 17.72 25.3088 17.3569C24.6927 16.994 24.1098 16.7532 23.56 16.6347L23.1778 13.25H20.685L20.2956 16.6106C19.6658 16.7452 19.0869 16.962 18.5588 17.2609C18.0308 17.5597 17.5056 17.9703 16.9831 18.4928L13.8653 17.1875L12.6225 19.3125L15.3341 21.3366C15.2299 21.617 15.157 21.9215 15.1153 22.25C15.0736 22.5785 15.0528 22.9199 15.0528 23.2741C15.0528 23.5914 15.0736 23.9062 15.1153 24.2188C15.157 24.5312 15.2219 24.8357 15.31 25.1322L12.6225 27.1875L13.8653 29.3125L16.9591 28C17.4495 28.4952 17.9586 28.8923 18.4866 29.1912C19.0147 29.49 19.6097 29.7227 20.2716 29.8894L20.6778 33.25ZM21.8941 26.375C22.7659 26.375 23.5048 26.0721 24.1106 25.4663C24.7162 24.8606 25.0191 24.1219 25.0191 23.25C25.0191 22.3781 24.7162 21.6394 24.1106 21.0338C23.5048 20.4279 22.7659 20.125 21.8941 20.125C21.0176 20.125 20.2776 20.4279 19.6741 21.0338C19.0707 21.6394 18.7691 22.3781 18.7691 23.25C18.7691 24.1219 19.0707 24.8606 19.6741 25.4663C20.2776 26.0721 21.0176 26.375 21.8941 26.375Z" fill="#E8EAED"/>
<path d="M29.1227 39.3173L33.2165 35.2164C33.4488 35.3237 33.6858 35.4082 33.9274 35.47C34.169 35.5317 34.4256 35.5625 34.6973 35.5625C35.6507 35.5625 36.462 35.228 37.131 34.5589C37.8002 33.8898 38.1348 33.0785 38.1348 32.125C38.1348 31.8542 38.1047 31.5935 38.0446 31.3431C37.9845 31.0927 37.8967 30.8526 37.7813 30.6227L35.5723 32.8077L34.0145 31.25L36.1755 29.0648C35.9455 28.9495 35.7093 28.8578 35.467 28.7897C35.2247 28.7216 34.9681 28.6875 34.6973 28.6875C33.7437 28.6875 32.9324 29.022 32.2634 29.6911C31.5943 30.3602 31.2598 31.1715 31.2598 32.125C31.2598 32.4127 31.2886 32.6773 31.3462 32.9189C31.4039 33.1605 31.4904 33.3894 31.6059 33.6058L27.5049 37.6995C27.4119 37.7924 27.3654 37.9074 27.3654 38.0445C27.3654 38.1815 27.4119 38.2965 27.5049 38.3894L28.4568 39.3414C28.5497 39.4343 28.6607 39.4768 28.7898 39.4688C28.9187 39.4607 29.0297 39.4103 29.1227 39.3173Z" fill="#E8EAED"/>
</g>
<path d="M64.6667 25C64.6667 27.9455 67.0545 30.3333 70 30.3333C72.9455 30.3333 75.3333 27.9455 75.3333 25C75.3333 22.0545 72.9455 19.6667 70 19.6667C67.0545 19.6667 64.6667 22.0545 64.6667 25ZM48 26H70V24H48V26Z" fill="#251741"/>
<defs>
<clipPath id="clip0_4903_4625">
<rect width="30" height="30" fill="white" transform="translate(10 10)"/>
</clipPath>
</defs>
</svg>
