<svg width="76" height="50" viewBox="0 0 76 50" fill="none" xmlns="http://www.w3.org/2000/svg">
<path d="M0 25L12.5 3.34937H37.5L50 25L37.5 46.6506H12.5L0 25Z" fill="#00B2A1"/>
<path d="M31.8269 35H19.5672V21.25L27.4037 13.5096L27.9569 14.0625C28.0706 14.1762 28.1664 14.322 28.2441 14.5C28.3218 14.6779 28.3606 14.8413 28.3606 14.9903V15.1875L27.0819 21.25H35.4806C36.0031 21.25 36.4703 21.4559 36.8822 21.8678C37.2941 22.2796 37.5 22.7468 37.5 23.2693V24.8078C37.5 24.9215 37.4883 25.0457 37.465 25.1803C37.4419 25.3149 37.4071 25.439 37.3606 25.5528L33.9472 33.6443C33.7757 34.0289 33.4873 34.351 33.0819 34.6106C32.6763 34.8702 32.2579 35 31.8269 35ZM18.3172 21.25V35H13.75V21.25H18.3172Z" fill="#E8EAED"/>
<path d="M64.6667 25C64.6667 27.9455 67.0545 30.3333 70 30.3333C72.9455 30.3333 75.3333 27.9455 75.3333 25C75.3333 22.0545 72.9455 19.6667 70 19.6667C67.0545 19.6667 64.6667 22.0545 64.6667 25ZM48 26H70V24H48V26Z" fill="#00B2A1"/>
</svg>
