<svg width="200" height="297" viewBox="0 0 200 297" fill="none" xmlns="http://www.w3.org/2000/svg">
<path d="M0 100L50 13.3975H150L200 100L150 186.603H50L0 100Z" fill="#6D9B2E"/>
<path d="M120 93.8463C121.032 93.8463 121.931 93.4633 122.698 92.6975C123.463 91.9308 123.846 91.0317 123.846 90C123.846 88.9683 123.463 88.0692 122.698 87.3025C121.931 86.5367 121.032 86.1537 120 86.1537C118.968 86.1537 118.069 86.5367 117.302 87.3025C116.537 88.0692 116.154 88.9683 116.154 90C116.154 91.0317 116.537 91.9308 117.302 92.6975C118.069 93.4633 118.968 93.8463 120 93.8463ZM80 82.5H105V77.5H80V82.5ZM66.25 140C63.8017 131.269 61.3146 122.607 58.7887 114.015C56.2629 105.422 55 96.5833 55 87.5C55 81.2433 57.1858 75.9292 61.5575 71.5575C65.9292 67.1858 71.2433 65 77.5 65H105C107.16 62.1542 109.713 59.7758 112.659 57.865C115.605 55.955 118.885 55 122.5 55C123.173 55 123.758 55.2163 124.255 55.6488C124.752 56.0813 125 56.6342 125 57.3075C125 57.9808 124.856 58.5546 124.567 59.0287C124.106 60.5221 123.697 61.9883 123.341 63.4275C122.985 64.8667 122.66 66.3429 122.365 67.8562L137.01 82.5H145V108.721L131.836 113.057L123.75 140H105V130H85V140H66.25Z" fill="#E8EAED"/>
<path d="M100 275.333C94.109 275.333 89.3333 280.109 89.3333 286C89.3333 291.891 94.109 296.667 100 296.667C105.891 296.667 110.667 291.891 110.667 286C110.667 280.109 105.891 275.333 100 275.333ZM98 186L98 286H102L102 186H98Z" fill="#6D9B2E"/>
</svg>
