<svg width="200" height="295" viewBox="0 0 200 295" fill="none" xmlns="http://www.w3.org/2000/svg">
<path d="M0 195L50 108.397H150L200 195L150 281.603H50L0 195Z" fill="#3D8ED0"/>
<path d="M49.5781 235.963V227.733C49.5781 225.56 50.1581 223.617 51.3181 221.905C52.4781 220.194 54.116 218.809 56.2319 217.752C60.2894 215.713 64.7923 214.073 69.7406 212.829C74.6898 211.585 79.6356 210.963 84.5781 210.963C89.5198 210.963 94.4652 211.585 99.4144 212.829C104.363 214.073 108.866 215.713 112.923 217.752C115.039 218.809 116.677 220.194 117.837 221.905C118.998 223.617 119.578 225.56 119.578 227.733V235.963H49.5781ZM84.5781 199.809C80.2956 199.809 76.7248 198.38 73.8656 195.52C71.0073 192.662 69.5781 188.9 69.5781 184.233H68.5194C67.9619 184.233 67.5023 184.052 67.1406 183.689C66.7781 183.327 66.5969 182.867 66.5969 182.309C66.5969 181.752 66.7781 181.292 67.1406 180.929C67.5023 180.568 67.9619 180.387 68.5194 180.387H69.5781C69.7056 177.854 70.2373 175.553 71.1731 173.483C72.1098 171.412 73.6294 169.438 75.7319 167.559V172.309C75.7319 172.867 75.9127 173.327 76.2744 173.689C76.6369 174.052 77.0969 174.233 77.6544 174.233C78.2119 174.233 78.6719 174.052 79.0344 173.689C79.3969 173.327 79.5781 172.867 79.5781 172.309V165.752C80.264 165.502 81.0394 165.282 81.9044 165.093C82.7702 164.904 83.6615 164.809 84.5781 164.809C85.4948 164.809 86.3856 164.904 87.2506 165.093C88.1156 165.282 88.8915 165.502 89.5781 165.752V172.309C89.5781 172.867 89.759 173.327 90.1206 173.689C90.4831 174.052 90.9431 174.233 91.5006 174.233C92.0581 174.233 92.5181 174.052 92.8806 173.689C93.2423 173.327 93.4231 172.867 93.4231 172.309V167.559C95.5898 169.438 97.1252 171.412 98.0294 173.483C98.9335 175.553 99.4498 177.854 99.5781 180.387H100.636C101.193 180.387 101.653 180.568 102.016 180.929C102.377 181.292 102.558 181.752 102.558 182.309C102.558 182.867 102.377 183.327 102.016 183.689C101.653 184.052 101.193 184.233 100.636 184.233H99.5781C99.5781 188.9 98.1485 192.662 95.2894 195.52C92.4302 198.38 88.8598 199.809 84.5781 199.809ZM84.5781 194.809C87.4556 194.809 89.8415 193.862 91.7356 191.968C93.6306 190.074 94.5781 187.688 94.5781 184.809H74.5781C74.5781 187.688 75.5252 190.074 77.4194 191.968C79.3135 193.862 81.6998 194.809 84.5781 194.809ZM122.269 209.233L121.904 205.674C121.276 205.508 120.621 205.24 119.938 204.872C119.256 204.503 118.674 204.079 118.193 203.598L114.886 205.04L112.962 201.694L115.904 199.579C115.776 199.201 115.712 198.855 115.712 198.54V196.512C115.712 196.229 115.776 195.867 115.904 195.424L112.962 193.309L114.886 189.963L118.193 191.405C118.655 190.944 119.231 190.524 119.923 190.145C120.616 189.768 121.276 189.496 121.904 189.329L122.269 185.77H126.116L126.482 189.329C127.109 189.496 127.769 189.768 128.462 190.145C129.154 190.524 129.731 190.944 130.193 191.405L133.501 189.963L135.423 193.309L132.482 195.424C132.609 195.867 132.673 196.229 132.673 196.512V198.54C132.673 198.855 132.609 199.201 132.482 199.579L135.423 201.694L133.501 205.04L130.193 203.598C129.712 204.079 129.131 204.503 128.448 204.872C127.765 205.24 127.109 205.508 126.482 205.674L126.116 209.233H122.269ZM124.193 202.02C125.45 202.02 126.517 201.582 127.394 200.704C128.273 199.826 128.712 198.758 128.712 197.502C128.712 196.245 128.273 195.178 127.394 194.299C126.517 193.422 125.45 192.983 124.193 192.983C122.936 192.983 121.869 193.422 120.991 194.299C120.112 195.178 119.673 196.245 119.673 197.502C119.673 198.758 120.112 199.826 120.991 200.704C121.869 201.582 122.936 202.02 124.193 202.02ZM134.347 182.117L133.923 178.213C132.981 178.027 131.99 177.65 130.948 177.083C129.906 176.516 129.071 175.823 128.443 175.002L124.732 176.559L122.578 172.867L125.866 170.463C125.699 169.982 125.584 169.489 125.519 168.983C125.455 168.476 125.423 167.983 125.423 167.502C125.423 167.021 125.455 166.527 125.519 166.02C125.584 165.515 125.699 165.021 125.866 164.54L122.578 162.137L124.732 158.444L128.443 160.002C129.071 159.181 129.906 158.487 130.948 157.92C131.99 157.353 132.981 156.976 133.923 156.79L134.347 152.887H138.654L139.078 156.79C140.02 156.976 141.011 157.353 142.053 157.92C143.095 158.487 143.93 159.181 144.558 160.002L148.269 158.444L150.423 162.137L147.136 164.54C147.302 165.021 147.418 165.515 147.482 166.02C147.546 166.527 147.578 167.021 147.578 167.502C147.578 167.983 147.546 168.476 147.482 168.983C147.418 169.489 147.302 169.982 147.136 170.463L150.423 172.867L148.269 176.559L144.558 175.002C143.93 175.823 143.095 176.516 142.053 177.083C141.011 177.65 140.02 178.027 139.078 178.213L138.654 182.117H134.347ZM136.501 174.329C138.443 174.329 140.066 173.677 141.371 172.372C142.676 171.068 143.328 169.444 143.328 167.502C143.328 165.559 142.676 163.936 141.371 162.632C140.066 161.327 138.443 160.674 136.501 160.674C134.558 160.674 132.935 161.327 131.631 162.632C130.326 163.936 129.673 165.559 129.673 167.502C129.673 169.444 130.326 171.068 131.631 172.372C132.935 173.677 134.558 174.329 136.501 174.329Z" fill="#E8EAED"/>
<path d="M96 21.6667C101.891 21.6667 106.667 16.891 106.667 11C106.667 5.10896 101.891 0.333328 96 0.333328C90.109 0.333328 85.3333 5.10896 85.3333 11C85.3333 16.891 90.109 21.6667 96 21.6667ZM98 111L98 11H94L94 111H98Z" fill="#3D8ED0"/>
</svg>
