<svg width="60" height="61" viewBox="0 0 60 61" fill="none" xmlns="http://www.w3.org/2000/svg">
<path d="M24.9985 35.4985V25.4985H34.9985V35.4985H24.9985ZM23.7485 49.3447V45.4985H19.037C17.8863 45.4985 16.9256 45.1131 16.1548 44.3423C15.3839 43.5714 14.9985 42.6107 14.9985 41.4601V36.7485H11.1523V34.2485H14.9985V26.7485H11.1523V24.2485H14.9985V19.537C14.9985 18.3863 15.3839 17.4256 16.1548 16.6548C16.9256 15.8839 17.8863 15.4985 19.037 15.4985H23.7485V11.6523H26.2485V15.4985H33.7485V11.6523H36.2485V15.4985H40.9601C42.1107 15.4985 43.0714 15.8839 43.8423 16.6548C44.6131 17.4256 44.9985 18.3863 44.9985 19.537V24.2485H48.8447V26.7485H44.9985V34.2485H48.8447V36.7485H44.9985V41.4601C44.9985 42.6107 44.6131 43.5714 43.8423 44.3423C43.0714 45.1131 42.1107 45.4985 40.9601 45.4985H36.2485V49.3447H33.7485V45.4985H26.2485V49.3447H23.7485ZM40.9601 42.9985C41.3447 42.9985 41.6972 42.8383 42.0178 42.5178C42.3383 42.1972 42.4985 41.8447 42.4985 41.4601V19.537C42.4985 19.1524 42.3383 18.7998 42.0178 18.4793C41.6972 18.1588 41.3447 17.9985 40.9601 17.9985H19.037C18.6524 17.9985 18.2998 18.1588 17.9793 18.4793C17.6588 18.7998 17.4985 19.1524 17.4985 19.537V41.4601C17.4985 41.8447 17.6588 42.1972 17.9793 42.5178C18.2998 42.8383 18.6524 42.9985 19.037 42.9985H40.9601Z" fill="#251741"/>
</svg>
