<svg width="50" height="50" viewBox="0 0 50 50" fill="none" xmlns="http://www.w3.org/2000/svg">
<path d="M8.13411 45.8346V36.6039C6.99904 36.2942 6.05425 35.7032 5.29974 34.831C4.54523 33.9591 4.16797 32.9128 4.16797 31.6919V26.8044H14.1841V31.6919C14.1841 32.9128 13.8069 33.9591 13.0523 34.831C12.2978 35.7032 11.3529 36.2942 10.2174 36.6039V45.8346H8.13411ZM23.9596 45.8346V36.6039C22.8246 36.2942 21.8798 35.7032 21.1253 34.831C20.3707 33.9591 19.9935 32.9128 19.9935 31.6919V26.8044H30.0091V31.6919C30.0091 32.9128 29.6319 33.9591 28.8773 34.831C28.1228 35.7032 27.178 36.2942 26.043 36.6039V45.8346H23.9596ZM39.7852 45.8346V36.6039C38.6497 36.2942 37.7048 35.7032 36.9503 34.831C36.1957 33.9591 35.8185 32.9128 35.8185 31.6919V26.8044H45.8346V31.6919C45.8346 32.9128 45.4574 33.9591 44.7029 34.831C43.9484 35.7032 43.0036 36.2942 41.8685 36.6039V45.8346H39.7852ZM4.16797 24.7211V14.5445C4.16797 14.0678 4.32925 13.6681 4.65182 13.3456C4.97439 13.023 5.37405 12.8617 5.85078 12.8617H8.13411V5.20964C8.13411 4.9145 8.23412 4.6671 8.43411 4.46745C8.63412 4.2678 8.88186 4.16797 9.17734 4.16797C9.47283 4.16797 9.72005 4.2678 9.91901 4.46745C10.118 4.6671 10.2174 4.9145 10.2174 5.20964V12.8617H12.5013C12.978 12.8617 13.3777 13.023 13.7003 13.3456C14.0228 13.6681 14.1841 14.0678 14.1841 14.5445V24.7211H4.16797ZM19.9935 24.7211V14.5445C19.9935 14.0678 20.1546 13.6681 20.4768 13.3456C20.7994 13.023 21.199 12.8617 21.6758 12.8617H23.9596V5.20964C23.9596 4.9145 24.0596 4.6671 24.2596 4.46745C24.4596 4.2678 24.7074 4.16797 25.0029 4.16797C25.2984 4.16797 25.5456 4.2678 25.7445 4.46745C25.9435 4.6671 26.043 4.9145 26.043 5.20964V12.8617H28.3268C28.8036 12.8617 29.2032 13.023 29.5258 13.3456C29.848 13.6681 30.0091 14.0678 30.0091 14.5445V24.7211H19.9935ZM35.8185 24.7211V14.5445C35.8185 14.0678 35.9798 13.6681 36.3023 13.3456C36.6249 13.023 37.0246 12.8617 37.5013 12.8617H39.7852V5.20964C39.7852 4.9145 39.885 4.6671 40.0846 4.46745C40.2846 4.2678 40.5324 4.16797 40.8279 4.16797C41.1234 4.16797 41.3707 4.2678 41.5701 4.46745C41.769 4.6671 41.8685 4.9145 41.8685 5.20964V12.8617H44.1518C44.6286 12.8617 45.0282 13.023 45.3508 13.3456C45.6734 13.6681 45.8346 14.0678 45.8346 14.5445V24.7211H35.8185Z" fill="#F1FAFF"/>
</svg>
