<svg width="60" height="60" viewBox="0 0 60 60" fill="none" xmlns="http://www.w3.org/2000/svg">
<path d="M44.0051 35.8701L43.3649 35.5066C42.9921 35.2952 42.7902 34.9723 42.7592 34.5381C42.7288 34.1038 42.8999 33.7499 43.2727 33.4766L48.128 29.9016C48.5508 29.6173 48.9919 29.4626 49.4511 29.4376C49.9104 29.4126 50.3574 29.5308 50.7922 29.7922L51.4316 30.1558C51.8049 30.3672 51.9943 30.6802 51.9998 31.095C52.0058 31.5103 51.8474 31.8544 51.5246 32.1273L46.6693 35.7607C46.246 36.045 45.8047 36.1997 45.3454 36.2247C44.8862 36.2497 44.4394 36.1315 44.0051 35.8701ZM9.49924 50.8566C9.07246 50.8566 8.71589 50.7134 8.42953 50.427C8.14318 50.1407 8 49.7841 8 49.3573C8 48.9305 8.14318 48.574 8.42953 48.2876C8.71589 48.0013 9.07246 47.8581 9.49924 47.8581H20.5704C21.1086 47.8581 21.5507 47.6852 21.8965 47.3394C22.2428 46.993 22.416 46.5508 22.416 46.0125V29.2097L13.6507 24.3259C12.4323 23.6683 11.6492 22.687 11.3013 21.3822C10.9535 20.0768 11.1274 18.8342 11.8231 17.6543L15.5135 11.4152C16.1706 10.2733 17.1327 9.5284 18.3995 9.18057C19.6664 8.83275 20.8705 8.98742 22.0119 9.64459L45.3484 22.5441C46.1056 22.9784 46.5188 23.6365 46.5883 24.5186C46.6573 25.4012 46.3247 26.1095 45.5906 26.6438L36.0644 33.592C35.2957 34.1383 34.4424 34.4391 33.5044 34.4946C32.5664 34.5505 31.6881 34.3554 30.8695 33.9091L25.3568 30.8881V46.0125C25.3568 47.3543 24.8847 48.4973 23.9407 49.4413C22.9972 50.3848 21.8545 50.8566 20.5127 50.8566H9.49924Z" fill="#251741"/>
<path d="M27.0012 24.2C26.2512 24.2 25.6137 23.9375 25.0887 23.4125C24.5637 22.8875 24.3012 22.25 24.3012 21.5C24.3012 20.75 24.5637 20.1125 25.0887 19.5875C25.6137 19.0625 26.2512 18.8 27.0012 18.8C27.7512 18.8 28.3887 19.0625 28.9137 19.5875C29.4387 20.1125 29.7012 20.75 29.7012 21.5C29.7012 22.25 29.4387 22.8875 28.9137 23.4125C28.3887 23.9375 27.7512 24.2 27.0012 24.2ZM27.0075 28C24.8392 28 22.864 27.4106 21.082 26.2317C19.2999 25.0529 17.9653 23.4756 17.0781 21.5C17.9653 19.5244 19.2993 17.9471 21.0801 16.7683C22.8609 15.5894 24.8346 15 27.0012 15C29.0691 15 30.965 15.5404 32.6887 16.6212C34.4124 17.7019 35.7448 19.1615 36.6858 21H33.4051C32.8739 21 32.3713 21.0808 31.8971 21.2423C31.4229 21.4038 30.9961 21.6378 30.6166 21.9442C30.6294 21.8724 30.639 21.7984 30.6454 21.7221C30.6518 21.6458 30.655 21.5718 30.655 21.5C30.655 20.485 30.2994 19.6223 29.588 18.9118C28.8767 18.2014 28.0129 17.8462 26.9967 17.8462C25.9805 17.8462 25.1182 18.2018 24.4099 18.9132C23.7015 19.6245 23.3474 20.4883 23.3474 21.5045C23.3474 22.5207 23.7026 23.383 24.4131 24.0913C25.1235 24.7997 25.9862 25.1538 27.0012 25.1538C27.35 25.1538 27.6868 25.1058 28.0118 25.0096C28.3368 24.9135 28.6365 24.7776 28.9108 24.6019C28.8685 24.7622 28.8377 24.9247 28.8185 25.0894C28.7993 25.2542 28.7897 25.4231 28.7897 25.5962V27.8442C28.4926 27.8887 28.1956 27.9258 27.8986 27.9555C27.6016 27.9852 27.3045 28 27.0075 28ZM31.5974 30.0192C31.3685 30.0192 31.1767 29.9418 31.0219 29.787C30.8671 29.6322 30.7897 29.4404 30.7897 29.2116V26.5C30.7897 26.268 30.8791 26.0785 31.0579 25.9317C31.2368 25.7849 31.4486 25.7116 31.6935 25.7116V24.7116C31.6935 24.2409 31.8613 23.8379 32.197 23.5028C32.5327 23.1676 32.9362 23 33.4076 23C33.879 23 34.2785 23.1676 34.606 23.5028C34.9336 23.8379 35.0973 24.2409 35.0973 24.7116V25.7116C35.3422 25.7116 35.5541 25.7849 35.7329 25.9317C35.9118 26.0785 36.0012 26.268 36.0012 26.5V29.2116C36.0012 29.4404 35.9238 29.6322 35.769 29.787C35.6142 29.9418 35.4224 30.0192 35.1935 30.0192H31.5974ZM32.4627 25.7116H34.3281V24.7116C34.3281 24.4282 34.2451 24.2003 34.0791 24.0279C33.9131 23.8554 33.6884 23.7692 33.4051 23.7692C33.1217 23.7692 32.8938 23.8554 32.7214 24.0279C32.549 24.2003 32.4627 24.4282 32.4627 24.7116V25.7116Z" fill="#F1FAFF"/>
</svg>
