<svg width="60" height="61" viewBox="0 0 60 61" fill="none" xmlns="http://www.w3.org/2000/svg">
<path d="M29.9991 36C28.1241 36 26.5303 35.3438 25.2178 34.0312C23.9053 32.7188 23.2491 31.125 23.2491 29.25C23.2491 27.375 23.9053 25.7812 25.2178 24.4688C26.5303 23.1562 28.1241 22.5 29.9991 22.5C31.8741 22.5 33.4678 23.1562 34.7803 24.4688C36.0928 25.7812 36.7491 27.375 36.7491 29.25C36.7491 31.125 36.0928 32.7188 34.7803 34.0312C33.4678 35.3438 31.8741 36 29.9991 36ZM30.0148 45.5C24.5941 45.5 19.6562 44.0264 15.201 41.0793C10.7459 38.1322 7.40932 34.1891 5.19141 29.25C7.40932 24.3109 10.7443 20.3678 15.1963 17.4207C19.6482 14.4736 24.5825 13 29.9991 13C35.169 13 39.9086 14.351 44.2178 17.0529C48.5271 19.7548 51.8581 23.4038 54.2107 28H46.0087C44.681 28 43.4243 28.2019 42.2388 28.6057C41.0534 29.0096 39.9863 29.5946 39.0376 30.3606C39.0696 30.1811 39.0937 29.996 39.1097 29.8053C39.1257 29.6146 39.1337 29.4295 39.1337 29.25C39.1337 26.7126 38.2445 24.5558 36.4662 22.7796C34.6878 21.0035 32.5283 20.1154 29.9878 20.1154C27.4472 20.1154 25.2916 21.0046 23.5207 22.7829C21.7499 24.5613 20.8645 26.7208 20.8645 29.2613C20.8645 31.8019 21.7526 33.9575 23.5287 35.7284C25.3049 37.4992 27.4617 38.3846 29.9991 38.3846C30.871 38.3846 31.7132 38.2644 32.5256 38.0241C33.3381 37.7837 34.0872 37.4439 34.7732 37.0048C34.6674 37.4055 34.5904 37.8117 34.5423 38.2236C34.4943 38.6354 34.4703 39.0577 34.4703 39.4904V45.1106C33.7277 45.2219 32.9851 45.3146 32.2425 45.3887C31.5 45.4629 30.7574 45.5 30.0148 45.5ZM41.4895 50.5481C40.9173 50.5481 40.4378 50.3546 40.0508 49.9676C39.6638 49.5806 39.4703 49.101 39.4703 48.5289V41.75C39.4703 41.1699 39.6938 40.6963 40.1409 40.3293C40.588 39.9624 41.1177 39.7789 41.7298 39.7789V37.2789C41.7298 36.1022 42.1495 35.0949 42.9887 34.2569C43.8279 33.419 44.8367 33 46.0151 33C47.1936 33 48.1922 33.419 49.0112 34.2569C49.83 35.0949 50.2395 36.1022 50.2395 37.2789V39.7789C50.8517 39.7789 51.3813 39.9624 51.8284 40.3293C52.2755 40.6963 52.4991 41.1699 52.4991 41.75V48.5289C52.4991 49.101 52.3056 49.5806 51.9186 49.9676C51.5316 50.3546 51.052 50.5481 50.4799 50.5481H41.4895ZM43.653 39.7789H48.3164V37.2789C48.3164 36.5705 48.1089 36.0008 47.6938 35.5697C47.2788 35.1386 46.7171 34.9231 46.0087 34.9231C45.3004 34.9231 44.7307 35.1386 44.2996 35.5697C43.8685 36.0008 43.653 36.5705 43.653 37.2789V39.7789Z" fill="white"/>
</svg>
