<svg width="60" height="60" viewBox="0 0 60 60" fill="none" xmlns="http://www.w3.org/2000/svg">
<path d="M12.7416 47.5C11.591 47.5 10.6302 47.1146 9.85938 46.3438C9.08854 45.5729 8.70312 44.6122 8.70312 43.4616V16.5384C8.70312 15.3878 9.08854 14.4271 9.85938 13.6562C10.6302 12.8854 11.591 12.5 12.7416 12.5H39.6647C40.8154 12.5 41.7761 12.8854 42.5469 13.6562C43.3178 14.4271 43.7032 15.3878 43.7032 16.5384V28.1731L51.2994 20.5769V39.4231L43.7032 31.8269V43.4616C43.7032 44.6122 43.3178 45.5729 42.5469 46.3438C41.7761 47.1146 40.8154 47.5 39.6647 47.5H12.7416Z" fill="#F1FAFF"/>
<path d="M38.1539 29.9587C38.1539 27.6745 37.5375 25.5918 36.3047 23.7104C35.0716 21.829 33.4166 20.4268 31.3397 19.5037C31.1155 19.3945 30.9489 19.2401 30.8397 19.0404C30.7308 18.8406 30.7244 18.6393 30.8205 18.4362C30.923 18.2054 31.0989 18.0569 31.348 17.9908C31.5969 17.9244 31.8473 17.9458 32.0993 18.0549C34.4307 19.1424 36.3004 20.7498 37.7084 22.877C39.1165 25.0043 39.8205 27.3648 39.8205 29.9587C39.8205 32.5526 39.1165 34.9131 37.7084 37.0404C36.3004 39.1676 34.4307 40.775 32.0993 41.8624C31.8473 41.9716 31.5969 41.993 31.348 41.9266C31.0989 41.8605 30.923 41.712 30.8205 41.4812C30.7244 41.2781 30.7308 41.0768 30.8397 40.877C30.9489 40.6773 31.1155 40.5229 31.3397 40.4137C33.4166 39.4906 35.0716 38.0884 36.3047 36.207C37.5375 34.3256 38.1539 32.2429 38.1539 29.9587ZM19.8847 33.3337H15.5259C15.139 33.3337 14.8179 33.2061 14.5626 32.9508C14.3073 32.6955 14.1797 32.3744 14.1797 31.9874V28.0133C14.1797 27.6263 14.3073 27.3052 14.5626 27.05C14.8179 26.7947 15.139 26.667 15.5259 26.667H19.8847L24.3593 22.1924C24.6304 21.9213 24.9461 21.8568 25.3064 21.9987C25.6664 22.1409 25.8464 22.4054 25.8464 22.792V37.2087C25.8464 37.5954 25.6664 37.8598 25.3064 38.002C24.9461 38.144 24.6304 38.0794 24.3593 37.8083L19.8847 33.3337ZM33.3464 30.0004C33.3464 30.9106 33.1786 31.7744 32.843 32.5916C32.5075 33.4091 32.0373 34.1191 31.4326 34.7216C31.2404 34.8669 31.0305 34.8898 30.803 34.7904C30.5755 34.6909 30.4618 34.5173 30.4618 34.2695V25.6479C30.4618 25.4001 30.5755 25.2265 30.803 25.127C31.0305 25.0276 31.2404 25.0505 31.4326 25.1958C32.0373 25.805 32.5075 26.5304 32.843 27.372C33.1786 28.214 33.3464 29.0901 33.3464 30.0004Z" fill="#251741"/>
</svg>
