<svg width="60" height="60" viewBox="0 0 60 60" fill="none" xmlns="http://www.w3.org/2000/svg">
<path d="M16.25 47.5C13.1313 47.5 10.4767 46.4119 8.28625 44.2356C6.09542 42.0594 5 39.4119 5 36.2931C5 33.4277 5.97917 30.8846 7.9375 28.6637C9.89583 26.4425 12.3302 25.25 15.2406 25.0863C15.8015 21.4454 17.476 18.4375 20.2644 16.0625C23.0527 13.6875 26.2979 12.5 30 12.5C34.17 12.5 37.7125 13.9575 40.6275 16.8725C43.5425 19.7875 45 23.33 45 27.5V30H46.5387C48.9329 30.0771 50.9417 30.956 52.565 32.6369C54.1883 34.3181 55 36.3558 55 38.75C55 41.2021 54.1546 43.2733 52.4637 44.9637C50.7733 46.6546 48.7021 47.5 46.25 47.5H16.25Z" fill="#F1FAFF"/>
<path d="M24.0023 40.5C23.3084 40.5 22.7179 40.2572 22.2307 39.7715C21.7436 39.2858 21.5 38.6961 21.5 38.0022C21.5 37.3084 21.7431 36.7179 22.2292 36.2307C22.7156 35.7436 23.306 35.5 24.0005 35.5C24.195 35.5 24.3987 35.5282 24.6115 35.5845C24.8243 35.641 25.0224 35.7173 25.2058 35.8135L27.7463 32.6538C27.3821 32.2654 27.134 31.836 27.002 31.3655C26.8698 30.8948 26.8473 30.4178 26.9345 29.9345L23.198 28.702C22.9788 29.093 22.6764 29.4071 22.2908 29.6442C21.9049 29.8814 21.4747 30 21 30C20.3055 30 19.7153 29.7572 19.2292 29.2715C18.7431 28.7858 18.5 28.1961 18.5 27.5023C18.5 26.8084 18.7428 26.2179 19.2285 25.7307C19.7142 25.2436 20.3039 25 20.9978 25C21.6916 25 22.2821 25.2431 22.7693 25.7292C23.2564 26.2152 23.5 26.8055 23.5 27.5C23.5 27.5847 23.4968 27.6501 23.4905 27.6962C23.484 27.7424 23.4808 27.7885 23.4808 27.8345L27.198 29.1307C27.416 28.7102 27.7273 28.3429 28.1318 28.0288C28.5363 27.7148 29.0116 27.5122 29.5577 27.4212V23.4577C28.9206 23.3384 28.4183 23.0419 28.051 22.5682C27.6837 22.0946 27.5 21.5692 27.5 20.992C27.5 20.305 27.7428 19.7179 28.2285 19.2307C28.7142 18.7436 29.3039 18.5 29.9978 18.5C30.6916 18.5 31.2821 18.7431 31.7693 19.2292C32.2564 19.7152 32.5 20.3055 32.5 21C32.5 21.5718 32.3154 22.0946 31.9462 22.5682C31.5769 23.0419 31.0756 23.3384 30.4423 23.4577V27.4212C30.9884 27.5122 31.4606 27.7148 31.8587 28.0288C32.2567 28.3429 32.5712 28.7102 32.802 29.1307L36.5193 27.8345C36.5064 27.7757 36.5 27.7263 36.5 27.6865V27.5C36.5 26.8055 36.7428 26.2152 37.2285 25.7292C37.7142 25.2431 38.3039 25 38.9977 25C39.6916 25 40.2821 25.2428 40.7693 25.7285C41.2564 26.2142 41.5 26.8039 41.5 27.4977C41.5 28.1916 41.2569 28.7821 40.7708 29.2692C40.2847 29.7564 39.6945 30 39 30C38.5293 30 38.0992 29.8814 37.7095 29.6442C37.3198 29.4071 37.0173 29.093 36.802 28.702L33.0655 29.9345C33.1527 30.4178 33.1302 30.8938 32.998 31.3625C32.866 31.8312 32.6179 32.2552 32.2538 32.6345L34.7943 35.7885C34.9776 35.7052 35.1757 35.6363 35.3885 35.5818C35.6013 35.5273 35.805 35.5 35.9995 35.5C36.694 35.5 37.2844 35.7428 37.7708 36.2285C38.2569 36.7142 38.5 37.3039 38.5 37.9978C38.5 38.6916 38.2572 39.2821 37.7715 39.7693C37.2858 40.2564 36.6961 40.5 36.0023 40.5C35.3084 40.5 34.7179 40.2569 34.2308 39.7708C33.7436 39.2847 33.5 38.6945 33.5 38C33.5 37.7027 33.5477 37.4165 33.6432 37.1415C33.7387 36.8663 33.8974 36.6102 34.1193 36.373L31.5788 33.175C31.1263 33.4687 30.6023 33.6155 30.0068 33.6155C29.4113 33.6155 28.8808 33.4687 28.4155 33.175L25.8808 36.373C26.0898 36.6102 26.2452 36.8663 26.347 37.1415C26.449 37.4165 26.5 37.7027 26.5 38C26.5 38.6945 26.2572 39.2847 25.7715 39.7708C25.2858 40.2569 24.6961 40.5 24.0023 40.5Z" fill="#251741"/>
</svg>
